<?xml version="1.0" encoding="utf-8"?>
<!-- Generator: Adobe Illustrator 18.1.1, SVG Export Plug-In . SVG Version: 6.00 Build 0)  -->
<svg version="1.1" id="Layer_1" xmlns="http://www.w3.org/2000/svg" xmlns:xlink="http://www.w3.org/1999/xlink" x="0px" y="0px"
	 viewBox="0 0 178.9 54" enable-background="new 0 0 178.9 54" xml:space="preserve">
<g>
	<path fill="#FFFFFF" d="M41.4,16.6l-1,0.9c-2.8-3-6.7-4.9-11.1-4.9c-1.9,0-3.7,0.4-5.4,1l1.4,3.6c1.2-0.5,2.6-0.7,4-0.7
		c4.3,0,8,2.4,9.9,6c0.1,0.3,0.2,0.5,0.3,0.8c1.2,3.2,0.8,6.6-0.8,9.3l4.6,2.7c2.3-4,2.9-9,1.1-13.7C43.7,19.7,42.6,18,41.4,16.6z"
		/>
	<path fill="#FFFFFF" d="M36.9,42.1c-1.6,0.9-3.4,1.4-5.1,1.7C31,43.9,30.1,44,29.3,44c-4.9,0-9.3-2.2-12.3-5.6l-2.6,2.3
		c2.1,2.4,4.8,4.3,7.8,5.5c5.2,2,11.1,1.8,16.4-1c0.9-0.5,1.8-1.1,2.6-1.7l-2.1-2.8C38.4,41.2,37.7,41.7,36.9,42.1z"/>
	<path fill="#FFFFFF" d="M36.6,40.8c0.7-0.4,1.4-0.8,2-1.3l-2.4-3c-0.5,0.4-0.9,0.7-1.5,1c-0.9,0.5-1.9,0.9-2.9,1.1l0.9,3.8
		C34,42,35.3,41.5,36.6,40.8z"/>
	<path fill="#FFFFFF" d="M20.8,8.6l-2.7-6.1c-4.4,2-8.2,5.1-11.1,9l5.4,3.9C14.6,12.5,17.5,10.1,20.8,8.6z"/>
	<path fill="#FFFFFF" d="M29.3,4.4c-2.9,0-5.7,0.5-8.3,1.5l2.5,6.5c1.8-0.7,3.8-1.1,5.9-1.1c4.2,0,8,1.6,10.9,4.2l1.1-1.2
		c1.8,1.6,3.2,3.6,4.3,5.8l4.8-2.2C46.6,9.9,38.6,4.4,29.3,4.4z"/>
	<path fill="#FFFFFF" d="M3.1,27.5c0-5.1,1.5-9.9,4-14l-2.7-1.7C1.6,16.4,0,21.8,0,27.5c0,1.9,0.2,3.8,0.5,5.6l3.1-0.6
		C3.3,30.9,3.1,29.2,3.1,27.5z"/>
	<path fill="#FFFFFF" d="M18.5,11c-2.3,1.5-4.3,3.5-5.8,5.8L8.3,14c-2.5,3.9-4,8.6-4,13.6c0,1.6,0.2,3.2,0.5,4.8l8.5-1.6
		c-0.2-1-0.3-2.1-0.3-3.1c0-3.3,1-6.3,2.6-8.9c0.2-0.2,0.3-0.5,0.5-0.7c1.7-2.3,3.9-4.2,6.6-5.3l-1.4-3.2C20.3,10,19.4,10.5,18.5,11
		z"/>
	<path fill="#FFFFFF" d="M13.4,31.3L3.2,33.7c0.9,3.9,2.6,7.4,5,10.4l8.2-6.4C15,35.9,13.9,33.7,13.4,31.3z"/>
	<path fill="#FFFFFF" d="M17.9,37.5c2.8,3.2,6.8,5.2,11.4,5.2c0.8,0,1.6-0.1,2.4-0.2L31,38.7c-0.6,0.1-1.2,0.1-1.8,0.1
		c-3.4,0-6.4-1.5-8.4-3.8L17.9,37.5z"/>
	<path fill="#FFFFFF" d="M29.3,48.4c-6.2,0-11.9-2.8-15.7-7.1l-4.2,3.7c4.8,5.6,11.9,9.1,19.9,9.1c1.4,0,2.8-0.1,4.1-0.3l-0.9-5.5
		C31.5,48.3,30.4,48.4,29.3,48.4z"/>
	<path fill="#FFFFFF" d="M28.8,2.8L28.8,0c-3.3,0.1-6.5,0.7-9.4,1.8l1,2.7C23,3.5,25.9,2.9,28.8,2.8z"/>
	<path fill="#FFFFFF" d="M17.1,18.8c-0.1,0.1-0.2,0.3-0.3,0.4l0,0c-1.6,2.4-2.6,5.3-2.6,8.4c0,0.9,0.1,1.8,0.2,2.6l2.5-0.4
		c-0.1-0.6-0.2-1.3-0.2-2c0-0.7,0-1.4,0.2-2.2c0.3-2,1.1-3.8,2.2-5.4l1,0.8c1.1-1.6,2.7-2.8,4.5-3.6l-1.6-3.5
		C20.7,15,18.6,16.7,17.1,18.8z"/>
	<polygon fill="#FFFFFF" points="74.9,29.9 67.4,29.9 67.4,24.1 65.5,24.1 65.5,37.4 67.4,37.4 67.4,31.6 74.9,31.6 74.9,37.4 
		76.8,37.4 76.8,24.1 74.9,24.1 	"/>
	<path fill="#FFFFFF" d="M58.4,34.8c-0.7-1.2-1.3-2-1.7-2.5s-0.8-0.9-1.2-1.1c0.7-0.3,1.3-0.7,1.7-1.3c0.4-0.6,0.6-1.2,0.6-2
		c0-1.1-0.4-2-1.2-2.7c-0.8-0.7-1.9-1-3.2-1h-3.3v13.3h1.9v-5.8h0.5c0.6,0,1.1,0.1,1.3,0.2c0.3,0.1,0.6,0.4,0.9,0.7
		c0.3,0.3,0.7,0.8,1.1,1.3l0.6,1l0.6,1l0.4,0.5c0.1,0.1,0.1,0.1,0.1,0.2l0.6,0.9h2.3l-0.7-1C59.2,36.1,58.8,35.5,58.4,34.8z
		 M54.5,29.7c-0.4,0.2-1,0.2-2,0.2h-0.7v-4.2h0.6c0.9,0,1.6,0.1,2,0.2c0.4,0.1,0.7,0.4,0.9,0.7c0.2,0.3,0.3,0.7,0.3,1.1
		c0,0.4-0.1,0.8-0.3,1.1C55.2,29.3,54.9,29.5,54.5,29.7z"/>
	<path fill="#FFFFFF" d="M159.8,24.9c-1.1-0.5-2.5-0.8-4.3-0.8H151v13.3h4.2c1.2,0,2,0,2.4-0.1c0.4-0.1,0.9-0.2,1.4-0.4
		c0.9-0.3,1.6-0.8,2.3-1.4c0.6-0.6,1.1-1.3,1.5-2.1c0.3-0.8,0.5-1.7,0.5-2.6c0-1.2-0.3-2.4-0.9-3.4
		C161.7,26.3,160.9,25.5,159.8,24.9z M159.9,34.3c-0.3,0.3-0.6,0.5-1,0.7c-0.3,0.2-0.8,0.4-1.3,0.5c-0.5,0.1-1.3,0.2-2.2,0.2h-2.4
		v-9.9h2.4c0.9,0,1.6,0,2,0.1c0.4,0.1,0.8,0.2,1.3,0.4c0.5,0.2,0.9,0.5,1.2,0.8c1,0.9,1.4,2.1,1.4,3.5
		C161.3,32.1,160.8,33.3,159.9,34.3z"/>
	<path fill="#FFFFFF" d="M136.6,23.9c-2.1,0-3.8,0.7-5.1,2c-1.3,1.3-2,2.9-2,4.9c0,1.9,0.7,3.5,2,4.8c1.3,1.3,3,1.9,5,1.9
		c2.1,0,3.8-0.6,5.2-1.9c1.4-1.3,2.1-2.9,2.1-4.9c0-2-0.7-3.6-2.1-4.9C140.4,24.6,138.7,23.9,136.6,23.9z M140.4,34.4
		c-1,1-2.2,1.5-3.7,1.5c-1.5,0-2.7-0.5-3.7-1.4c-1-1-1.5-2.1-1.5-3.6c0-1.5,0.5-2.7,1.5-3.6c1-1,2.2-1.4,3.8-1.4
		c1.4,0,2.7,0.5,3.7,1.4c1,1,1.5,2.1,1.5,3.5C141.9,32.2,141.4,33.4,140.4,34.4z"/>
	<polygon fill="#FFFFFF" points="176.6,24.1 173,28.7 169.4,24.1 167.1,24.1 172,30.4 172,37.4 174,37.4 174,30.4 178.9,24.1 	"/>
	<path fill="#FFFFFF" d="M123.1,34c0-1.5-0.8-2.7-2.4-3.7l-1.5-0.9c-0.7-0.4-1.1-0.7-1.4-1.1c-0.3-0.3-0.4-0.7-0.4-1.1
		c0-0.5,0.2-0.8,0.6-1.1c0.4-0.3,0.9-0.4,1.5-0.4c1.1,0,2.1,0.5,3.1,1.4v-2.2c-0.9-0.6-1.9-0.9-3.1-0.9c-1.2,0-2.1,0.3-2.8,1
		c-0.7,0.7-1.1,1.5-1.1,2.5c0,0.7,0.2,1.3,0.6,1.9c0.4,0.5,1,1.1,1.9,1.6l1.4,0.9c1.2,0.7,1.8,1.5,1.8,2.3c0,0.5-0.2,0.9-0.6,1.3
		c-0.4,0.3-0.9,0.5-1.5,0.5c-1.4,0-2.5-0.6-3.6-2v2.4c1.1,0.8,2.3,1.2,3.6,1.2c1.1,0,2.1-0.3,2.8-1C122.8,35.9,123.1,35,123.1,34z"
		/>
	<path fill="#FFFFFF" d="M109.2,30c0.4-0.6,0.6-1.3,0.6-2.1c0-1.2-0.4-2.1-1.1-2.8c-0.8-0.7-1.8-1-3-1h-4.2v13.3h1.9v-5.8h1.4
		c1.3,0,2.2-0.1,2.9-0.4C108.3,31,108.8,30.5,109.2,30z M105.4,30h-2.1v-4.2h2c1.7,0,2.5,0.7,2.5,2c0,0.7-0.2,1.2-0.6,1.6
		C106.8,29.8,106.2,30,105.4,30z"/>
	<path fill="#FFFFFF" d="M87.9,24.1l-5.7,13.4h1.9l1.7-3.9h5.7l1.8,3.9h2l-5.9-13.4H87.9z M86.5,31.8l2-4.8l2.1,4.8H86.5z"/>
	<path fill="#FFFFFF" d="M138.2,44.6c-0.4-0.2-0.9-0.3-1.4-0.3h-2.1v4.9h2c0.5,0,1-0.1,1.4-0.3c0.4-0.2,0.7-0.5,0.9-0.9
		c0.2-0.4,0.3-0.8,0.3-1.3c0-0.5-0.1-0.9-0.3-1.3C138.9,45.1,138.6,44.8,138.2,44.6z M138,48c-0.3,0.3-0.7,0.5-1.3,0.5h-1v-3.4h1
		c0.5,0,1,0.2,1.3,0.5c0.3,0.3,0.5,0.7,0.5,1.3C138.4,47.3,138.3,47.7,138,48z"/>
	<rect x="141.8" y="44.3" fill="#FFFFFF" width="1" height="4.9"/>
	<path fill="#FFFFFF" d="M146.8,44.3l-2,4.9h1l0.5-1.2h2.2l0.5,1.2h1l-2.2-4.9H146.8z M146.5,47.3l0.8-2l0.8,2H146.5z"/>
	<path fill="#FFFFFF" d="M92.6,47.5h0.8v0.8c-0.2,0.1-0.4,0.1-0.5,0.1c-0.1,0-0.3,0-0.4,0c-0.5,0-1-0.2-1.3-0.5s-0.5-0.7-0.5-1.2
		c0-0.3,0.1-0.6,0.2-0.9c0.2-0.3,0.4-0.5,0.7-0.6c0.3-0.1,0.6-0.2,1-0.2c0.6,0,1.2,0.2,1.8,0.5v-0.9c-0.6-0.3-1.2-0.4-1.8-0.4
		c-0.5,0-1,0.1-1.4,0.3c-0.4,0.2-0.8,0.5-1,0.9c-0.2,0.4-0.4,0.8-0.4,1.3c0,0.5,0.1,0.9,0.4,1.3c0.2,0.4,0.6,0.7,1,0.9
		c0.4,0.2,0.9,0.3,1.4,0.3c0.4,0,0.7,0,1.1-0.1c0.3-0.1,0.6-0.2,0.9-0.4v-2h-1.8V47.5z"/>
	<path fill="#FFFFFF" d="M82.8,44.6c-0.4-0.2-0.9-0.3-1.4-0.3h-2.1v4.9h2c0.5,0,1-0.1,1.4-0.3c0.4-0.2,0.7-0.5,0.9-0.9
		c0.2-0.4,0.3-0.8,0.3-1.3c0-0.5-0.1-0.9-0.3-1.3C83.5,45.1,83.2,44.8,82.8,44.6z M82.6,48c-0.3,0.3-0.7,0.5-1.3,0.5h-1v-3.4h1
		c0.5,0,1,0.2,1.3,0.5c0.3,0.3,0.5,0.7,0.5,1.3C83.1,47.3,82.9,47.7,82.6,48z"/>
	<polygon fill="#FFFFFF" points="130.1,47.1 132.2,47.1 132.2,46.3 130.1,46.3 130.1,45.1 132.3,45.1 132.3,44.3 129.1,44.3 
		129.1,49.2 132.4,49.2 132.4,48.5 130.1,48.5 	"/>
	<path fill="#FFFFFF" d="M107.6,44.3l-2,4.9h1L107,48h2.2l0.5,1.2h1l-2.2-4.9H107.6z M107.3,47.3l0.8-2l0.8,2H107.3z"/>
	<polygon fill="#FFFFFF" points="113.7,44.3 112.8,44.3 112.8,49.2 116.1,49.2 116.1,48.5 113.7,48.5 	"/>
	<rect x="86.4" y="44.3" fill="#FFFFFF" width="1" height="4.9"/>
	<polygon fill="#FFFFFF" points="100,45.1 101.8,45.1 101.8,49.2 102.7,49.2 102.7,45.1 104.5,45.1 104.5,44.3 100,44.3 	"/>
	<rect x="96.9" y="44.3" fill="#FFFFFF" width="1" height="4.9"/>
	<polygon fill="#FFFFFF" points="124.1,46.2 122.5,44.3 121.7,44.3 121.7,49.2 122.6,49.2 122.6,45.8 122.6,45.8 124.1,47.5 
		124.2,47.5 125.6,45.8 125.7,45.8 125.7,49.2 126.6,49.2 126.6,44.3 125.8,44.3 	"/>
</g>
</svg>
