<?xml version="1.0" encoding="UTF-8" standalone="no"?>
<!-- Generator: Adobe Illustrator 18.1.1, SVG Export Plug-In . SVG Version: 6.00 Build 0)  -->
<svg id="Layer_1" xmlns="http://www.w3.org/2000/svg" xml:space="preserve" viewBox="0 0 178.9 54" version="1.1" y="0px" x="0px" xmlns:xlink="http://www.w3.org/1999/xlink" enable-background="new 0 0 178.9 54">
<g class="svg-rd-logo">
	<path d="m41.4 16.6l-1 0.9c-2.8-3-6.7-4.9-11.1-4.9-1.9 0-3.7 0.4-5.4 1l1.4 3.6c1.2-0.5 2.6-0.7 4-0.7 4.3 0 8 2.4 9.9 6 0.1 0.3 0.2 0.5 0.3 0.8 1.2 3.2 0.8 6.6-0.8 9.3l4.6 2.7c2.3-4 2.9-9 1.1-13.7-0.7-1.9-1.8-3.6-3-5z"/>
	<path d="m36.9 42.1c-1.6 0.9-3.4 1.4-5.1 1.7-0.8 0.1-1.7 0.2-2.5 0.2-4.9 0-9.3-2.2-12.3-5.6l-2.6 2.3c2.1 2.4 4.8 4.3 7.8 5.5 5.2 2 11.1 1.8 16.4-1 0.9-0.5 1.8-1.1 2.6-1.7l-2.1-2.8c-0.7 0.5-1.4 1-2.2 1.4z"/>
	<path d="m36.6 40.8c0.7-0.4 1.4-0.8 2-1.3l-2.4-3c-0.5 0.4-0.9 0.7-1.5 1-0.9 0.5-1.9 0.9-2.9 1.1l0.9 3.8c1.3-0.4 2.6-0.9 3.9-1.6z"/>
	<path d="m20.8 8.6l-2.7-6.1c-4.4 2-8.2 5.1-11.1 9l5.4 3.9c2.2-2.9 5.1-5.3 8.4-6.8z"/>
	<path d="m29.3 4.4c-2.9 0-5.7 0.5-8.3 1.5l2.5 6.5c1.8-0.7 3.8-1.1 5.9-1.1 4.2 0 8 1.6 10.9 4.2l1.1-1.2c1.8 1.6 3.2 3.6 4.3 5.8l4.8-2.2c-3.9-8-11.9-13.5-21.2-13.5z"/>
	<path d="m3.1 27.5c0-5.1 1.5-9.9 4-14l-2.7-1.7c-2.8 4.6-4.4 10-4.4 15.7 0 1.9 0.2 3.8 0.5 5.6l3.1-0.6c-0.3-1.6-0.5-3.3-0.5-5z"/>
	<path d="m18.5 11c-2.3 1.5-4.3 3.5-5.8 5.8l-4.4-2.8c-2.5 3.9-4 8.6-4 13.6 0 1.6 0.2 3.2 0.5 4.8l8.5-1.6c-0.2-1-0.3-2.1-0.3-3.1 0-3.3 1-6.3 2.6-8.9 0.2-0.2 0.3-0.5 0.5-0.7 1.7-2.3 3.9-4.2 6.6-5.3l-1.4-3.2c-1 0.4-1.9 0.9-2.8 1.4z"/>
	<path d="m13.4 31.3l-10.2 2.4c0.9 3.9 2.6 7.4 5 10.4l8.2-6.4c-1.4-1.8-2.5-4-3-6.4z"/>
	<path d="m17.9 37.5c2.8 3.2 6.8 5.2 11.4 5.2 0.8 0 1.6-0.1 2.4-0.2l-0.7-3.8c-0.6 0.1-1.2 0.1-1.8 0.1-3.4 0-6.4-1.5-8.4-3.8l-2.9 2.5z"/>
	<path d="m29.3 48.4c-6.2 0-11.9-2.8-15.7-7.1l-4.2 3.7c4.8 5.6 11.9 9.1 19.9 9.1 1.4 0 2.8-0.1 4.1-0.3l-0.9-5.5c-1 0-2.1 0.1-3.2 0.1z"/>
	<path d="m28.8 2.8v-2.8c-3.3 0.1-6.5 0.7-9.4 1.8l1 2.7c2.6-1 5.5-1.6 8.4-1.7z"/>
	<path d="m17.1 18.8c-0.1 0.1-0.2 0.3-0.3 0.4-1.6 2.4-2.6 5.3-2.6 8.4 0 0.9 0.1 1.8 0.2 2.6l2.5-0.4c-0.1-0.6-0.2-1.3-0.2-2s0-1.4 0.2-2.2c0.3-2 1.1-3.8 2.2-5.4l1 0.8c1.1-1.6 2.7-2.8 4.5-3.6l-1.6-3.5c-2.3 1.1-4.4 2.8-5.9 4.9z"/>
	<polygon points="74.9 29.9 67.4 29.9 67.4 24.1 65.5 24.1 65.5 37.4 67.4 37.4 67.4 31.6 74.9 31.6 74.9 37.4 76.8 37.4 76.8 24.1 74.9 24.1"/>
	<path d="m58.4 34.8c-0.7-1.2-1.3-2-1.7-2.5s-0.8-0.9-1.2-1.1c0.7-0.3 1.3-0.7 1.7-1.3s0.6-1.2 0.6-2c0-1.1-0.4-2-1.2-2.7s-1.9-1-3.2-1h-3.3v13.3h1.9v-5.8h0.5c0.6 0 1.1 0.1 1.3 0.2 0.3 0.1 0.6 0.4 0.9 0.7s0.7 0.8 1.1 1.3l0.6 1 0.6 1 0.4 0.5c0.1 0.1 0.1 0.1 0.1 0.2l0.6 0.9h2.3l-0.7-1c-0.5-0.4-0.9-1-1.3-1.7zm-3.9-5.1c-0.4 0.2-1 0.2-2 0.2h-0.7v-4.2h0.6c0.9 0 1.6 0.1 2 0.2s0.7 0.4 0.9 0.7 0.3 0.7 0.3 1.1-0.1 0.8-0.3 1.1c-0.1 0.5-0.4 0.7-0.8 0.9z"/>
	<path d="m159.8 24.9c-1.1-0.5-2.5-0.8-4.3-0.8h-4.5v13.3h4.2c1.2 0 2 0 2.4-0.1s0.9-0.2 1.4-0.4c0.9-0.3 1.6-0.8 2.3-1.4 0.6-0.6 1.1-1.3 1.5-2.1 0.3-0.8 0.5-1.7 0.5-2.6 0-1.2-0.3-2.4-0.9-3.4-0.7-1.1-1.5-1.9-2.6-2.5zm0.1 9.4c-0.3 0.3-0.6 0.5-1 0.7-0.3 0.2-0.8 0.4-1.3 0.5s-1.3 0.2-2.2 0.2h-2.4v-9.9h2.4c0.9 0 1.6 0 2 0.1s0.8 0.2 1.3 0.4 0.9 0.5 1.2 0.8c1 0.9 1.4 2.1 1.4 3.5 0 1.5-0.5 2.7-1.4 3.7z"/>
	<path d="m136.6 23.9c-2.1 0-3.8 0.7-5.1 2s-2 2.9-2 4.9c0 1.9 0.7 3.5 2 4.8s3 1.9 5 1.9c2.1 0 3.8-0.6 5.2-1.9s2.1-2.9 2.1-4.9-0.7-3.6-2.1-4.9c-1.3-1.2-3-1.9-5.1-1.9zm3.8 10.5c-1 1-2.2 1.5-3.7 1.5s-2.7-0.5-3.7-1.4c-1-1-1.5-2.1-1.5-3.6s0.5-2.7 1.5-3.6c1-1 2.2-1.4 3.8-1.4 1.4 0 2.7 0.5 3.7 1.4 1 1 1.5 2.1 1.5 3.5-0.1 1.4-0.6 2.6-1.6 3.6z"/>
	<polygon points="176.6 24.1 173 28.7 169.4 24.1 167.1 24.1 172 30.4 172 37.4 174 37.4 174 30.4 178.9 24.1"/>
	<path d="m123.1 34c0-1.5-0.8-2.7-2.4-3.7l-1.5-0.9c-0.7-0.4-1.1-0.7-1.4-1.1-0.3-0.3-0.4-0.7-0.4-1.1 0-0.5 0.2-0.8 0.6-1.1s0.9-0.4 1.5-0.4c1.1 0 2.1 0.5 3.1 1.4v-2.2c-0.9-0.6-1.9-0.9-3.1-0.9s-2.1 0.3-2.8 1-1.1 1.5-1.1 2.5c0 0.7 0.2 1.3 0.6 1.9 0.4 0.5 1 1.1 1.9 1.6l1.4 0.9c1.2 0.7 1.8 1.5 1.8 2.3 0 0.5-0.2 0.9-0.6 1.3-0.4 0.3-0.9 0.5-1.5 0.5-1.4 0-2.5-0.6-3.6-2v2.4c1.1 0.8 2.3 1.2 3.6 1.2 1.1 0 2.1-0.3 2.8-1 0.8-0.7 1.1-1.6 1.1-2.6z"/>
	<path d="m109.2 30c0.4-0.6 0.6-1.3 0.6-2.1 0-1.2-0.4-2.1-1.1-2.8-0.8-0.7-1.8-1-3-1h-4.2v13.3h1.9v-5.8h1.4c1.3 0 2.2-0.1 2.9-0.4 0.6-0.2 1.1-0.7 1.5-1.2zm-3.8 0h-2.1v-4.2h2c1.7 0 2.5 0.7 2.5 2 0 0.7-0.2 1.2-0.6 1.6s-1 0.6-1.8 0.6z"/>
	<path d="m87.9 24.1l-5.7 13.4h1.9l1.7-3.9h5.7l1.8 3.9h2l-5.9-13.4h-1.5zm-1.4 7.7l2-4.8 2.1 4.8h-4.1z"/>
	<path d="m138.2 44.6c-0.4-0.2-0.9-0.3-1.4-0.3h-2.1v4.9h2c0.5 0 1-0.1 1.4-0.3s0.7-0.5 0.9-0.9 0.3-0.8 0.3-1.3-0.1-0.9-0.3-1.3c-0.1-0.3-0.4-0.6-0.8-0.8zm-0.2 3.4c-0.3 0.3-0.7 0.5-1.3 0.5h-1v-3.4h1c0.5 0 1 0.2 1.3 0.5s0.5 0.7 0.5 1.3c-0.1 0.4-0.2 0.8-0.5 1.1z"/>
	<rect y="44.3" x="141.8" height="4.9" width="1"/>
	<path d="m146.8 44.3l-2 4.9h1l0.5-1.2h2.2l0.5 1.2h1l-2.2-4.9h-1zm-0.3 3l0.8-2 0.8 2h-1.6z"/>
	<path d="m92.6 47.5h0.8v0.8c-0.2 0.1-0.4 0.1-0.5 0.1h-0.4c-0.5 0-1-0.2-1.3-0.5s-0.5-0.7-0.5-1.2c0-0.3 0.1-0.6 0.2-0.9 0.2-0.3 0.4-0.5 0.7-0.6s0.6-0.2 1-0.2c0.6 0 1.2 0.2 1.8 0.5v-0.9c-0.6-0.3-1.2-0.4-1.8-0.4-0.5 0-1 0.1-1.4 0.3s-0.8 0.5-1 0.9-0.4 0.8-0.4 1.3 0.1 0.9 0.4 1.3c0.2 0.4 0.6 0.7 1 0.9s0.9 0.3 1.4 0.3c0.4 0 0.7 0 1.1-0.1 0.3-0.1 0.6-0.2 0.9-0.4v-2h-1.8v0.8z"/>
	<path d="m82.8 44.6c-0.4-0.2-0.9-0.3-1.4-0.3h-2.1v4.9h2c0.5 0 1-0.1 1.4-0.3s0.7-0.5 0.9-0.9 0.3-0.8 0.3-1.3-0.1-0.9-0.3-1.3c-0.1-0.3-0.4-0.6-0.8-0.8zm-0.2 3.4c-0.3 0.3-0.7 0.5-1.3 0.5h-1v-3.4h1c0.5 0 1 0.2 1.3 0.5s0.5 0.7 0.5 1.3c0 0.4-0.2 0.8-0.5 1.1z"/>
	<polygon points="130.1 47.1 132.2 47.1 132.2 46.3 130.1 46.3 130.1 45.1 132.3 45.1 132.3 44.3 129.1 44.3 129.1 49.2 132.4 49.2 132.4 48.5 130.1 48.5"/>
	<path d="m107.6 44.3l-2 4.9h1l0.4-1.2h2.2l0.5 1.2h1l-2.2-4.9h-0.9zm-0.3 3l0.8-2 0.8 2h-1.6z"/>
	<polygon points="113.7 44.3 112.8 44.3 112.8 49.2 116.1 49.2 116.1 48.5 113.7 48.5"/>
	<rect y="44.3" x="86.4" height="4.9" width="1"/>
	<polygon points="100 45.1 101.8 45.1 101.8 49.2 102.7 49.2 102.7 45.1 104.5 45.1 104.5 44.3 100 44.3"/>
	<rect y="44.3" x="96.9" height="4.9" width="1"/>
	<polygon points="124.1 46.2 122.5 44.3 121.7 44.3 121.7 49.2 122.6 49.2 122.6 45.8 122.6 45.8 124.1 47.5 124.2 47.5 125.6 45.8 125.7 45.8 125.7 49.2 126.6 49.2 126.6 44.3 125.8 44.3"/>
</g>
</svg>
