<?xml version="1.0" standalone="no"?>
<!DOCTYPE svg PUBLIC "-//W3C//DTD SVG 1.1//EN" "http://www.w3.org/Graphics/SVG/1.1/DTD/svg11.dtd" >
<svg xmlns="http://www.w3.org/2000/svg">
<metadata></metadata>
<defs>
<font id="suprabold" horiz-adv-x="580" >
<font-face units-per-em="1000" ascent="778" descent="-222" />
<missing-glyph horiz-adv-x="255" />
<glyph unicode="&#xfb01;" horiz-adv-x="700" d="M85 0v365h-80v136h80v38q0 85 28 128q46 70 168 70q86 0 144 -22v-135q-49 21 -95 21q-54 0 -67 -24q-10 -17 -10 -55v-21h388v-501h-167v365h-221v-365h-168zM561 568q-37 0 -62 26t-25 63q0 38 25 64.5t62 26.5t62.5 -26.5t25.5 -64.5q0 -37 -25.5 -63t-62.5 -26z" />
<glyph unicode="&#xfb02;" horiz-adv-x="740" d="M85 0v365h-80v136h80v45q0 87 28 128q47 70 168 70q219 0 358 -31v-505q0 -46 4 -58q8 -23 47 -23q20 0 44 9v-133q-42 -14 -91 -14q-124 0 -157 86q-15 41 -15 133v388q-87 12 -141 12t-67 -24q-10 -18 -10 -55v-28h124v-136h-124v-365h-168z" />
<glyph unicode="&#xfb03;" horiz-adv-x="1068" d="M85 0v367h-80v135h80v28q1 74 28 114q47 70 168 70q86 0 144 -22v-133q-49 21 -95 21q-52 0 -67 -26q-7 -15 -10 -37v-15h209v44q0 87 28 128q47 70 167 70q88 0 144 -22v-133q-49 21 -94 21q-52 0 -67 -26q-10 -20 -10 -55v-27h376v-502h-168v367h-208v-367h-168v367 h-209v-367h-168zM921 544q-37 0 -62.5 26t-25.5 63q0 38 25.5 64t62.5 26q36 0 62 -26.5t26 -63.5t-26 -63t-62 -26z" />
<glyph unicode="&#xfb04;" horiz-adv-x="1107" d="M85 0v367h-80v135h80v27q2 75 28 115q47 70 168 70q86 0 144 -22v-133q-49 21 -95 21q-52 0 -67 -26q-7 -13 -10 -39v-13h209v44q0 87 28 128q47 70 190 70q81 0 175 -13t151 -29v-494q0 -46 4 -58q7 -23 47 -23q20 0 44 9v-133q-44 -14 -91 -14q-65 0 -102.5 20.5 t-54.5 65.5q-15 41 -15 133v389q-72 13 -108 13q-75 0 -90 -26q-10 -20 -10 -55v-27h130v-135h-130v-367h-168v367h-209v-367h-168z" />
<glyph horiz-adv-x="0" />
<glyph horiz-adv-x="0" />
<glyph horiz-adv-x="333" />
<glyph unicode="&#xd;" horiz-adv-x="255" />
<glyph unicode=" "  horiz-adv-x="255" />
<glyph unicode="&#x09;" horiz-adv-x="255" />
<glyph unicode="&#xa0;" horiz-adv-x="255" />
<glyph unicode="!" horiz-adv-x="307" d="M153 -10q-36 0 -61.5 26.5t-25.5 63.5t25.5 63t61.5 26t62 -26t26 -63t-26 -63.5t-62 -26.5zM246 665l-41 -441h-104l-41 441h186z" />
<glyph unicode="&#x22;" horiz-adv-x="402" d="M49 302l-14 178v187h138v-186l-15 -179h-109zM240 302l-15 178v187h139v-186l-15 -179h-109z" />
<glyph unicode="#" horiz-adv-x="832" d="M108 0l43 130h-108l43 135h108l41 129h-109l44 134h107l46 139h132l-45 -139h127l46 139h132l-45 -139h111l-43 -134h-111l-41 -129h112l-43 -135h-111l-42 -130h-134l43 130h-127l-42 -130h-134zM327 265h127l41 129h-128z" />
<glyph unicode="$" horiz-adv-x="622" d="M361 -112h-93v101q-118 5 -212 50v159q115 -65 217 -65q101 0 101 55q0 21 -17 36t-61 32l-66 26q-77 31 -119 76t-42 117q0 85 52 135t147 61v106h93v-104q87 -5 170 -35v-154q-94 47 -187 47q-86 0 -86 -47q0 -25 17 -39t61 -32l60 -26q90 -39 130 -79.5t40 -108.5 q0 -85 -52.5 -139t-152.5 -67v-105z" />
<glyph unicode="%" horiz-adv-x="991" d="M182 -31l487 658h143l-487 -658h-143zM259 405q0 102 -56 102q-57 0 -57 -102t57 -102q56 0 56 102zM381 406q0 -86 -47 -139.5t-133 -53.5q-85 0 -130.5 53.5t-45.5 139.5q0 84 49 138t128 54q86 0 132.5 -53t46.5 -139zM845 185q0 102 -56 102q-57 0 -57 -102t57 -102 q56 0 56 102zM967 186q0 -86 -47 -139.5t-133 -53.5q-85 0 -130.5 53.5t-45.5 139.5q0 84 49 138t128 54q86 0 132.5 -53t46.5 -139z" />
<glyph unicode="&#x26;" horiz-adv-x="791" d="M293 -11q-98 0 -174 53.5t-76 146.5q0 133 173 198q-20 23 -31.5 38.5t-22 42t-10.5 54.5q0 73 63.5 113.5t147.5 40.5t144 -45.5t60 -107.5q0 -57 -36 -99t-101 -79l67 -68q62 59 116 89t130 30v-155q-65 0 -144 -81l149 -160h-187l-60 63q-88 -74 -208 -74zM288 144 q56 0 99 42l-96 104q-37 -12 -62.5 -34.5t-25.5 -50.5q0 -25 24 -43t61 -18zM351 437q82 23 82 68q0 21 -17.5 32.5t-46.5 11.5q-27 0 -43.5 -11.5t-16.5 -32.5q0 -26 42 -68z" />
<glyph unicode="'" horiz-adv-x="212" d="M35 665h138v-186l-15 -179h-109l-14 178v187z" />
<glyph unicode="(" horiz-adv-x="337" d="M167 737h125q-117 -208 -117 -460q0 -238 115 -449h-124q-140 209 -140 452q0 123 36.5 242.5t104.5 214.5z" />
<glyph unicode=")" horiz-adv-x="337" d="M44 737h126q68 -95 104 -214.5t36 -242.5q0 -244 -139 -452h-124q115 214 115 449q0 250 -118 460z" />
<glyph unicode="*" horiz-adv-x="379" d="M261 372q-13 0 -23 6.5t-17.5 19.5t-12.5 23t-11 27.5t-8 22.5q-1 -2 -9.5 -26.5t-14.5 -35.5t-19 -24t-29 -13q-15 0 -28 12.5t-13 28.5q0 10 4.5 20t15 20t17.5 16t21 16.5t17 12.5h-23.5t-25 1.5t-27.5 4.5t-21.5 8t-17 14t-5.5 21q0 16 13.5 29t30.5 13q14 0 27.5 -6 t36.5 -21t27 -18q-19 65 -19 85q0 19 11.5 31.5t30.5 12.5t30.5 -11.5t11.5 -29.5q0 -16 -18 -88q6 3 26.5 17t36.5 21t31 7q17 0 28.5 -12.5t11.5 -31.5q0 -28 -36 -39q-22 -6 -83 -6q3 -3 20 -16.5t26.5 -22t18.5 -22.5t9 -27q0 -16 -12 -28t-29 -12z" />
<glyph unicode="+" horiz-adv-x="466" d="M168 52v133h-135v135h135v132h131v-132h134v-135h-134v-133h-131z" />
<glyph unicode="," horiz-adv-x="269" d="M111 -212l-126 34q88 145 88 325l160 -10q-1 -101 -37.5 -197.5t-84.5 -151.5z" />
<glyph unicode="-" horiz-adv-x="372" d="M41 195v136h290v-136h-290z" />
<glyph unicode="." horiz-adv-x="269" d="M134 -14q-39 0 -65.5 28t-26.5 67t26.5 66.5t65.5 27.5q38 0 65.5 -27.5t27.5 -66.5t-27.5 -67t-65.5 -28z" />
<glyph unicode="/" horiz-adv-x="417" d="M133 -98h-144l279 799h144z" />
<glyph unicode="0" d="M376 294q0 79 -19.5 120.5t-66.5 41.5q-87 0 -87 -162t86 -162q87 0 87 162zM543 296q0 -133 -69 -219.5t-187 -86.5q-116 0 -183.5 86.5t-67.5 219.5q0 130 73 217.5t181 87.5q118 0 185.5 -85.5t67.5 -219.5z" />
<glyph unicode="1" d="M494 0h-374v138h107v251q-8 -14 -36 -33.5t-53 -31.5l-24 -12v158q98 56 150 123h131v-455h99v-138z" />
<glyph unicode="2" d="M540 0h-506v69q73 59 270 267q31 33 31 66q0 27 -25 41.5t-60 14.5q-67 0 -184 -73v149q107 66 228 66q103 0 166.5 -47t63.5 -144q0 -84 -85 -165q-18 -18 -129 -110q33 4 230 4v-138z" />
<glyph unicode="3" d="M283 -9q-126 0 -232 51v149q32 -18 88 -38t100 -20q17 0 33 4t32.5 19.5t16.5 41.5q0 33 -31.5 46t-93.5 13v85q121 0 121 56q0 24 -16.5 38.5t-32 18t-31.5 3.5q-73 0 -168 -58v149l15 7q14 7 23 11t30 11t40 11t47 7.5t57 3.5q36 0 72.5 -7.5t72.5 -24t58 -47.5t22 -73 q0 -51 -31 -86.5t-78 -44.5l4 -2q54 -11 87 -50t33 -90q0 -42 -18.5 -76t-46 -53.5t-62 -32.5t-62 -17.5t-49.5 -4.5z" />
<glyph unicode="4" d="M496 0h-168v92h-306v119l270 382h199q-52 -70 -105 -141.5t-77.5 -105t-50.5 -67.5t-48 -61q25 3 125 3v58l161 207v-265h62v-129h-62v-92z" />
<glyph unicode="5" d="M292 -9q-128 0 -230 51v150q32 -18 87 -38.5t101 -20.5q17 0 36 3.5t42.5 23.5t23.5 54q0 68 -78 68q-39 0 -82 -13t-67 -27l-55 45l25 306h419l-67 -138h-212q-5 -81 -8 -96q38 23 104 23q103 0 155.5 -53t52.5 -130q0 -99 -71.5 -153.5t-175.5 -54.5z" />
<glyph unicode="6" d="M310 -10q-162 0 -237 120q-41 65 -41 183q0 49 15.5 99.5t47 98.5t88.5 78.5t131 30.5q99 0 183 -28v-145q-76 34 -152 34q-103 0 -133 -87q-6 -18 -6 -45q21 24 60 37.5t80 13.5q87 0 147.5 -44.5t60.5 -136.5q0 -100 -72.5 -154.5t-171.5 -54.5zM292 135 q40 0 63.5 20.5t23.5 52.5q0 30 -22 50.5t-62 20.5t-63.5 -22.5t-23.5 -48.5q0 -32 24.5 -52.5t59.5 -20.5z" />
<glyph unicode="7" d="M327 0h-170q0 106 52 240t142 223q-55 -7 -300 -7v137h475v-66q-198 -236 -199 -527z" />
<glyph unicode="8" d="M292 -8q-115 0 -185.5 50t-70.5 122q0 49 36 90t100 57q-56 16 -88 52.5t-32 78.5q0 68 64.5 114t173.5 46q108 0 174 -45t66 -111q0 -44 -31 -81t-86 -54q64 -15 99 -54.5t35 -89.5q0 -75 -69.5 -125t-185.5 -50zM292 133q42 0 67 19t25 50q0 28 -27 45.5t-66 17.5 t-66 -18.5t-27 -46.5q0 -29 26 -48t68 -19zM292 355q38 0 60 18t22 46q0 26 -23.5 42.5t-59.5 16.5t-59.5 -17.5t-23.5 -43.5q0 -27 23 -44.5t61 -17.5z" />
<glyph unicode="9" d="M276 -10q-125 0 -216 39v148q82 -48 179 -48q93 0 127 63q16 29 12 69q-44 -51 -139 -51q-55 0 -100 16.5t-77 58.5t-32 105q0 100 72.5 155t170.5 55q162 0 238 -120q41 -63 41 -183q0 -39 -8.5 -79t-29.5 -81.5t-51.5 -73.5t-79 -52.5t-107.5 -20.5zM290 310 q40 0 63 23t23 49q0 31 -22.5 52.5t-61.5 21.5t-62.5 -21.5t-23.5 -52.5q0 -30 21.5 -51t62.5 -21z" />
<glyph unicode=":" horiz-adv-x="290" d="M154 -19q-39 0 -65.5 28t-26.5 67q0 40 26.5 67t65.5 27q38 0 65.5 -27t27.5 -67q0 -39 -27.5 -67t-65.5 -28zM154 319q-39 0 -65.5 28t-26.5 67q0 40 26.5 67t65.5 27q38 0 65.5 -27t27.5 -67q0 -39 -27.5 -67t-65.5 -28z" />
<glyph unicode=";" horiz-adv-x="290" d="M131 -212l-126 34q88 145 88 325l160 -10q-1 -101 -37.5 -197.5t-84.5 -151.5zM169 319q-38 0 -65 28t-27 67q0 40 27 67t65 27q39 0 66 -27t27 -67q0 -39 -27.5 -67t-65.5 -28z" />
<glyph unicode="&#x3c;" horiz-adv-x="484" d="M440 183v-185l-395 207v114l395 206v-185l-169 -79z" />
<glyph unicode="=" horiz-adv-x="504" d="M42 334v135h420v-135h-420zM42 93v135h420v-135h-420z" />
<glyph unicode="&#x3e;" horiz-adv-x="484" d="M45 -2v185l168 78l-168 79v185l395 -206v-114z" />
<glyph unicode="?" horiz-adv-x="440" d="M191 -10q-36 0 -61.5 26.5t-25.5 63.5q0 38 25 63.5t62 25.5q36 0 62 -26t26 -63t-26 -63.5t-62 -26.5zM134 225q-27 48 -27 87q0 44 39 85l14 14l17 17t14.5 16t14.5 19.5t8 17.5t4 19q0 39 -50 39q-21 0 -50.5 -9.5t-48.5 -19.5l-19 -10v143q70 34 152 34 q86 0 147.5 -34t61.5 -108q0 -29 -15.5 -58t-31 -45.5t-40.5 -38.5q-11 -10 -33 -28.5t-31 -27t-17.5 -25t-8.5 -36.5q0 -18 7 -51h-107z" />
<glyph unicode="@" horiz-adv-x="1073" d="M453 -10q-79 0 -122.5 44t-43.5 106q0 79 75 120q68 37 229 43q0 41 -9 57q-14 23 -70 23q-32 0 -83 -12.5t-96 -33.5v127q44 21 106 34t107 13q155 0 195 -84q20 -42 20 -136v-132q0 -40 29 -40q44 0 71 54.5t27 110.5q0 126 -92.5 214.5t-243.5 88.5q-157 0 -262 -96 t-105 -244q0 -149 101 -247h-156q-82 109 -82 246q0 129 68.5 232.5t183.5 160t252 56.5q206 0 335.5 -121t129.5 -290q0 -127 -80 -210.5t-203 -83.5q-41 0 -78 18t-45 51q-56 -69 -158 -69zM503 100q53 0 78 37q11 18 11 47v28q-85 -3 -120 -22q-30 -15 -30 -39 q0 -51 61 -51z" />
<glyph unicode="A" horiz-adv-x="714" d="M712 0h-194l-45 125h-233l-47 -125h-191l261 665h193zM428 273q-54 145 -73 209q-11 -37 -71 -209h144z" />
<glyph unicode="B" horiz-adv-x="664" d="M329 0h-259v665q165 3 258 3q166 0 223 -47q52 -43 52 -118q0 -55 -38 -98t-103 -58q74 -6 121.5 -45t47.5 -113q0 -55 -30 -96t-80 -63q-64 -30 -192 -30zM246 140h86q49 0 79 12q39 16 39 55q0 52 -53 65q-30 7 -68 7h-83v-139zM246 393h87q44 0 67 13q32 20 32 58 q0 66 -102 66q-10 0 -46 -0.5t-38 -0.5v-136z" />
<glyph unicode="C" horiz-adv-x="654" d="M627 35q-102 -48 -244 -48q-161 0 -255.5 93t-94.5 253t103 252.5t260 92.5q120 0 224 -39v-158q-92 42 -205 42q-86 0 -143 -45t-57 -148q0 -96 55 -142t143 -46q57 0 118 15t96 31v-153z" />
<glyph unicode="D" horiz-adv-x="739" d="M70 0v665q137 3 249 3q117 0 186 -23q93 -31 147 -107t54 -197q0 -111 -49.5 -190.5t-131.5 -116.5q-77 -34 -233 -34h-222zM247 156h77q91 0 125 24q77 45 77 162q0 171 -186 171q-13 0 -50 -1.5t-43 -1.5v-354z" />
<glyph unicode="E" horiz-adv-x="593" d="M544 151v-151h-474v665h452v-150h-278v-105h251v-147h-251v-112h300z" />
<glyph unicode="F" horiz-adv-x="548" d="M244 0h-175v665h456v-150h-281v-131h236v-143h-236v-241z" />
<glyph unicode="G" horiz-adv-x="714" d="M660 44q-41 -20 -116.5 -38.5t-151.5 -18.5q-171 0 -265 93t-94 253q0 158 102.5 251.5t264.5 93.5q131 0 236 -39v-153q-122 37 -225 37q-88 0 -142 -47t-54 -146q0 -100 53 -145t136 -45q42 0 90 12v81h-116v146h282v-335z" />
<glyph unicode="H" horiz-adv-x="742" d="M672 0h-177v260h-248v-260h-177v665h177v-249h248v249h177v-665z" />
<glyph unicode="I" horiz-adv-x="315" d="M246 0h-178v665h178v-665z" />
<glyph unicode="J" horiz-adv-x="464" d="M27 4v155q59 -13 99 -13q61 0 79 31q13 22 13 79v246h-168v163h345v-435q0 -83 -20 -133q-43 -107 -197 -107q-84 0 -151 14z" />
<glyph unicode="K" horiz-adv-x="685" d="M684 0h-220l-218 295v-295h-177v665h177v-278l219 278h199l-254 -308z" />
<glyph unicode="L" horiz-adv-x="519" d="M503 0h-434v665h177v-509h257v-156z" />
<glyph unicode="M" horiz-adv-x="828" d="M759 0h-177v384q-23 -46 -141 -223h-51q-24 35 -44.5 66t-35 53t-25.5 40t-18 29.5t-11.5 19t-7.5 11.5l-2 4v-384h-177v665h163l182 -275l183 275h162v-665z" />
<glyph unicode="N" horiz-adv-x="741" d="M675 0h-149q-102 129 -173.5 220.5t-92.5 118.5l-20 27v-366h-175v665h153q104 -130 174.5 -221t89.5 -118l19 -26v365h174v-665z" />
<glyph unicode="O" horiz-adv-x="770" d="M379 -13q-156 0 -251 97t-95 248q0 155 100.5 250.5t257.5 95.5q153 0 249.5 -93t96.5 -243q0 -159 -99 -257t-259 -98zM387 142q77 0 123 50t46 140q0 92 -45.5 141.5t-120.5 49.5q-80 0 -127.5 -49.5t-47.5 -141.5q0 -89 47 -139.5t125 -50.5z" />
<glyph unicode="P" horiz-adv-x="636" d="M246 0h-178v665q249 4 286 4q117 0 176 -40q81 -54 81 -173t-79 -177q-65 -48 -170 -48h-116v-231zM246 364h81q51 0 75 18q28 21 28 68q0 40 -27.5 59t-71.5 19l-85 -2v-162z" />
<glyph unicode="Q" horiz-adv-x="771" d="M379 -13q-156 0 -251 97t-95 248q0 155 100.5 250.5t257.5 95.5q153 0 249.5 -93t96.5 -243q0 -159 -99 -257t-259 -98zM387 142q77 0 123 50t46 140q0 92 -45.5 141.5t-120.5 49.5q-80 0 -127.5 -49.5t-47.5 -141.5q0 -89 47 -139.5t125 -50.5zM351 -144l28 130l255 -55 l-27 -129z" />
<glyph unicode="R" horiz-adv-x="686" d="M684 0h-195l-85 157q-23 43 -43 59q-27 21 -74 21h-40v-237h-177v667q224 4 261 4q132 0 192 -36q90 -54 90 -166q0 -98 -83 -150q-24 -16 -53 -23q32 -9 57 -36q23 -26 47 -70zM247 374h86q45 0 68 17q30 21 30 61q0 41 -34 60q-25 14 -69 14l-81 -3v-149z" />
<glyph unicode="S" horiz-adv-x="578" d="M40 39v161q117 -66 217 -66q52 0 76.5 12t24.5 42q0 21 -17 35t-61 32l-66 26q-78 31 -120 76t-42 117q0 97 66.5 149t184.5 52q120 0 216 -38v-154q-97 47 -191 47q-86 0 -86 -46q0 -25 16.5 -39t60.5 -33l61 -26q91 -39 130.5 -79t39.5 -108q0 -100 -70 -155.5 t-203 -55.5q-130 0 -237 51z" />
<glyph unicode="T" horiz-adv-x="601" d="M389 0h-177v509h-191v156h558v-156h-190v-509z" />
<glyph unicode="U" horiz-adv-x="746" d="M685 665v-347q0 -62 -6 -97q-21 -115 -101.5 -174.5t-206.5 -59.5q-128 0 -207.5 59t-90.5 167q-5 45 -5 94v358h178v-356q0 -42 4 -69q16 -98 128 -98q110 0 126 97q4 21 4 70v356h177z" />
<glyph unicode="V" horiz-adv-x="715" d="M451 0h-192l-251 665h194q49 -142 87 -253.5t51.5 -150t21.5 -63.5q10 35 156 467h190z" />
<glyph unicode="W" horiz-adv-x="987" d="M389 0h-186l-193 665h194q53 -199 111 -437q23 103 108 437h146q81 -298 111 -437q56 240 108 437h189l-200 -665h-181q-35 121 -105 385q-55 -221 -102 -385z" />
<glyph unicode="X" horiz-adv-x="750" d="M218 0h-202l238 348l-222 317h210q39 -56 72.5 -106.5t48.5 -72.5t19 -27q3 4 17 25t48 73t72 108h197l-227 -317l246 -348h-210q-39 55 -78.5 113t-57.5 84t-24 33q-5 -7 -21 -32t-52 -82t-74 -116z" />
<glyph unicode="Y" horiz-adv-x="702" d="M436 0h-177v243l-259 422h203q138 -239 149 -259q37 68 150 259h200l-266 -422v-243z" />
<glyph unicode="Z" horiz-adv-x="636" d="M612 0h-583v115q258 303 342 402q-116 -2 -324 -2v150h555v-127q-280 -330 -332 -387q108 2 342 2v-153z" />
<glyph unicode="[" horiz-adv-x="279" d="M252 -111v-61h-226v909h226v-61h-95v-787h95z" />
<glyph unicode="\" horiz-adv-x="417" d="M381 0h-144l-232 666h144z" />
<glyph unicode="]" horiz-adv-x="279" d="M26 -172v61h96v787h-96v61h226v-909h-226z" />
<glyph unicode="^" horiz-adv-x="599" d="M173 237l-112 72l239 368l238 -368l-111 -72l-127 194z" />
<glyph unicode="_" horiz-adv-x="380" d="M-10 -191v135h398v-135h-398z" />
<glyph unicode="`" horiz-adv-x="357" d="M315 608l-86 -54q-45 24 -101.5 79t-88.5 116l118 61q30 -61 75.5 -118t82.5 -84z" />
<glyph unicode="a" d="M570 11q-47 -20 -111 -20q-36 0 -65 17t-37 51q-56 -69 -158 -69q-79 0 -122 41.5t-43 102.5q0 85 71 124q70 37 234 42v12q0 29 -10 45q-13 22 -72 22q-32 0 -83 -12t-94 -34v133q43 21 105 33.5t107 12.5q157 0 195 -83q20 -41 20 -137v-134q0 -18 5 -28q6 -9 21 -9 q19 0 37 6v-116zM250 105q52 0 79 36q10 15 10 50v18q-89 -2 -121 -17q-28 -14 -28 -44q0 -43 60 -43z" />
<glyph unicode="b" horiz-adv-x="624" d="M64 24v713h168v-306q24 35 67.5 57t90.5 22q101 0 151.5 -62t50.5 -178q0 -81 -26.5 -138.5t-72.5 -86.5t-96 -41.5t-109 -12.5q-113 0 -224 33zM236 137q32 -13 68 -13q114 0 114 128q0 122 -92 122q-41 0 -70 -34q-20 -23 -20 -73v-130z" />
<glyph unicode="c" horiz-adv-x="501" d="M462 26q-69 -36 -160 -36q-133 0 -200.5 70t-67.5 190q0 127 78.5 195t200.5 68q75 0 142 -27v-138q-64 31 -121 31q-62 0 -93.5 -35.5t-31.5 -92.5q0 -61 31.5 -94.5t91.5 -33.5q68 0 130 37v-134z" />
<glyph unicode="d" horiz-adv-x="627" d="M563 0h-166v69q-23 -37 -66 -58t-95 -21q-102 0 -152 68.5t-50 177.5q0 58 14.5 105.5t45 86.5t84 60.5t126.5 21.5q32 0 87 -11v238h172v-737zM391 362q-25 14 -68 14q-114 0 -114 -124q0 -129 93 -129q41 0 68 32q21 27 21 64v143z" />
<glyph unicode="e" horiz-adv-x="584" d="M530 38q-105 -48 -219 -48q-131 0 -204 68t-73 191q0 111 71 186.5t205 75.5q120 0 182 -64t62 -192q0 -20 -2 -44h-344q1 -40 35.5 -64.5t90.5 -24.5q63 0 104 11t92 36v-131zM211 304h184q0 37 -23.5 60t-63.5 23q-41 0 -67 -21.5t-30 -61.5z" />
<glyph unicode="f" horiz-adv-x="375" d="M253 0h-168v365h-80v136h80v45q0 87 28 128q46 70 167 70q86 0 145 -22v-135q-53 22 -96 22q-52 0 -66 -25q-10 -18 -10 -55v-28h124v-136h-124v-365z" />
<glyph unicode="g" horiz-adv-x="585" d="M269 -256q-114 0 -182 39t-68 103q0 43 33 76t93 48q-39 5 -57.5 25.5t-18.5 47.5q0 54 78 77q-103 41 -103 155q0 84 70.5 135t177.5 51h289v-122h-78q21 -17 21 -66q0 -80 -68.5 -127.5t-153.5 -47.5q-4 0 -15 0.5t-14 0.5q-32 -10 -32 -30q0 -22 52 -25 q132 -8 197 -30q84 -28 84 -121q0 -88 -83 -138.5t-222 -50.5zM283 236q35 0 54.5 21.5t19.5 60.5q0 36 -20 55.5t-54 19.5t-54.5 -22.5t-20.5 -55.5q0 -37 20 -58t55 -21zM288 -146q46 0 73.5 16.5t27.5 43.5q0 19 -15 31q-19 19 -92 19q-28 0 -44 -6q-49 -15 -49 -49 q0 -55 99 -55z" />
<glyph unicode="h" horiz-adv-x="637" d="M574 0h-170v279q0 51 -15 73q-16 24 -60 24q-42 0 -72 -35q-21 -25 -21 -68v-273h-172v737h170v-309q25 37 71 60t93 23q110 0 151 -67q25 -40 25 -120v-324z" />
<glyph unicode="i" horiz-adv-x="294" d="M64 0v501h168v-501h-168zM148 568q-37 0 -62.5 26t-25.5 63q0 38 25.5 64.5t62.5 26.5t62 -26.5t25 -64.5q0 -37 -25.5 -63t-61.5 -26z" />
<glyph unicode="j" horiz-adv-x="296" d="M-74 -243v132q35 -11 66 -11q49 0 63 33q9 21 9 56v534h168v-553q0 -82 -28 -127q-49 -77 -161 -77q-84 0 -117 13zM148 568q-38 0 -63 25.5t-25 63.5q0 39 25.5 65t63.5 26t62 -26t24 -65q0 -38 -25 -63.5t-62 -25.5z" />
<glyph unicode="k" horiz-adv-x="625" d="M617 0h-217l-163 200v-200h-173v737h170v-414l163 178h200l-215 -220z" />
<glyph unicode="l" horiz-adv-x="331" d="M325 3q-42 -14 -91 -14q-124 0 -157 86q-15 41 -15 133v529h168v-528q0 -46 4 -59q7 -22 47 -22q20 0 44 9v-134z" />
<glyph unicode="m" horiz-adv-x="964" d="M236 0h-172v501h170v-73q24 37 70 60t92 23q128 0 161 -95q32 47 79 71t94 24q107 0 148 -67q26 -43 26 -120v-324h-171v277q0 54 -14 74q-16 24 -59 24q-39 0 -69 -33q-21 -22 -21 -69v-273h-170v277q0 52 -15 74q-17 24 -58 24q-43 0 -70 -33q-21 -24 -21 -68v-274z " />
<glyph unicode="n" horiz-adv-x="634" d="M236 0h-172v501h170v-73q24 37 72 60t98 23q104 0 145 -67q25 -43 25 -120v-324h-170v281q0 48 -15 70q-17 24 -59 24q-47 0 -74 -33q-20 -23 -20 -68v-274z" />
<glyph unicode="o" horiz-adv-x="620" d="M587 251q0 -115 -75.5 -188t-201.5 -73q-129 0 -203 69.5t-74 188.5q0 116 74.5 190.5t202.5 74.5q131 0 204 -71.5t73 -190.5zM414 250q0 58 -25 93.5t-78 35.5q-52 0 -78 -35.5t-26 -93.5q0 -60 26.5 -93.5t78.5 -33.5q50 0 76 35t26 92z" />
<glyph unicode="p" horiz-adv-x="626" d="M236 -227h-172v729h166v-70q26 37 70 57.5t91 20.5q96 0 148.5 -60.5t52.5 -174.5q0 -75 -23 -131.5t-62 -88.5t-85.5 -47.5t-98.5 -15.5q-30 0 -87 9v-228zM236 137q30 -14 67 -14q115 0 115 130q0 122 -93 122q-42 0 -69 -32q-20 -24 -20 -65v-141z" />
<glyph unicode="q" horiz-adv-x="627" d="M391 69q-46 -78 -150 -78q-101 0 -154 64.5t-53 173.5q0 127 66.5 204t206.5 77q134 0 256 -29v-708h-172v296zM391 362q-30 14 -70 14q-112 0 -112 -132q0 -58 24.5 -89.5t71.5 -31.5q41 0 67 35q19 25 19 64v140z" />
<glyph unicode="r" horiz-adv-x="485" d="M236 0h-172v502h170v-82q19 40 58.5 65t89.5 25q68 0 110 -34l-80 -139q-40 30 -84 30q-35 0 -58.5 -22.5t-28.5 -54.5q-5 -35 -5 -83v-207z" />
<glyph unicode="s" horiz-adv-x="488" d="M38 28v138q96 -49 183 -49q58 0 58 33q0 13 -9.5 20t-34.5 16l-60 21q-127 47 -127 150q0 155 220 155q88 0 162 -27v-134q-79 35 -153 35q-51 0 -51 -32q0 -11 8.5 -18.5t35.5 -17.5l57 -22q74 -29 102.5 -60t28.5 -86q0 -160 -239 -160q-111 0 -181 38z" />
<glyph unicode="t" horiz-adv-x="405" d="M398 12q-55 -23 -128 -23q-120 0 -165 72q-30 49 -30 176v128h-71v136h71l2 128l166 46v-174h132v-136h-132v-132q0 -56 8 -75q12 -31 62 -31q45 0 85 17v-132z" />
<glyph unicode="u" horiz-adv-x="642" d="M584 501v-272q0 -89 -29 -137q-60 -102 -234 -102q-180 0 -237 102q-26 47 -26 137v272h172v-281q0 -38 14 -63q21 -34 77 -34q54 0 77 35q14 21 14 62v281h172z" />
<glyph unicode="v" horiz-adv-x="594" d="M380 0h-166l-211 501h185q83 -214 116 -314q20 72 112 314h174z" />
<glyph unicode="w" horiz-adv-x="854" d="M341 0h-161l-165 501h186q57 -191 84 -308q21 97 85 308h126q65 -216 85 -307q19 95 83 307h175l-170 -501h-156q-65 199 -86 286q-44 -158 -86 -286z" />
<glyph unicode="x" horiz-adv-x="615" d="M198 0h-186l191 257l-179 245h195q75 -105 93 -134q27 43 95 134h187l-186 -233l197 -269h-193q-78 106 -106 149q-19 -28 -108 -149z" />
<glyph unicode="y" horiz-adv-x="597" d="M28 -240v135q51 -16 95 -16t64 29q15 18 29 58l13 34h-17l-208 501h186q101 -250 122 -322q15 57 105 322h175l-223 -569q-31 -81 -58 -115q-54 -72 -160 -72q-70 0 -123 15z" />
<glyph unicode="z" horiz-adv-x="554" d="M520 0h-490v99l236 269q-176 -4 -221 -4v137h463v-99l-242 -267q90 2 254 2v-137z" />
<glyph unicode="{" horiz-adv-x="353" d="M327 -113v-62q-110 3 -171 73.5t-61 178.5q0 45 -1.5 66t-8.5 49.5t-24 47t-46 35.5q53 37 65.5 77t12.5 119q0 116 63.5 189.5t170.5 76.5v-63q-103 0 -103 -203q0 -80 -10.5 -121.5t-48.5 -71.5q40 -31 50.5 -73.5t10.5 -127.5q0 -94 26.5 -142t74.5 -48z" />
<glyph unicode="|" horiz-adv-x="224" d="M179 -138h-133v909h133v-909z" />
<glyph unicode="}" horiz-adv-x="353" d="M26 -175v62q48 0 74.5 48t26.5 142q0 85 10.5 127.5t50.5 73.5q-38 30 -48.5 71.5t-10.5 121.5q0 203 -103 203v63q107 -3 170.5 -76.5t63.5 -189.5q0 -41 1.5 -61t8 -47.5t23.5 -47.5t45 -40q-29 -17 -46.5 -35.5t-24.5 -47t-8.5 -49.5t-1.5 -66q0 -109 -60.5 -179 t-170.5 -73z" />
<glyph unicode="~" horiz-adv-x="584" d="M113 191h-69q4 81 39.5 143.5t106.5 62.5q10 0 19.5 -1t16.5 -2.5t17.5 -5t16 -5.5t20 -8t21.5 -9q8 -4 21 -9.5t20 -8.5t16.5 -6t17.5 -4.5t18 -1.5q51 0 67 68h79q-3 -32 -11 -63.5t-24.5 -66t-47.5 -55.5t-72 -21q-25 0 -46 6.5t-68 25.5q-10 4 -26.5 11t-24.5 10 t-19 6t-21 3q-52 0 -67 -69z" />
<glyph unicode="&#xa1;" horiz-adv-x="307" d="M153 511q36 0 62 -26.5t26 -63.5t-26 -63t-62 -26t-61.5 26t-25.5 63t25.5 63.5t61.5 26.5zM205 277l41 -441h-186l41 441h104z" />
<glyph unicode="&#xa2;" horiz-adv-x="501" d="M259 -119v111q-109 12 -167 80.5t-58 175.5q0 110 63 177t162 81v107h93v-104q47 -4 103 -25v-137q-82 30 -144 30q-54 0 -77.5 -38.5t-23.5 -88.5q0 -55 23 -91t76 -36q71 0 152 36v-135q-54 -27 -109 -33v-110h-93z" />
<glyph unicode="&#xa3;" horiz-adv-x="620" d="M125 0v285h-66v99h66v78q0 100 69.5 156t172.5 56q99 0 190 -27v-147q-88 31 -150 31q-107 0 -107 -80v-67h127v-99h-127v-128h269v-157h-444z" />
<glyph unicode="&#xa4;" horiz-adv-x="524" d="M101 4l-56 57l70 71q-35 49 -35 109q0 59 33 107l-70 69l57 57l68 -68q48 34 111 34q61 0 111 -33l69 69l56 -58l-71 -70q33 -48 33 -107q0 -62 -35 -111l69 -70l-56 -54l-68 68q-50 -32 -108 -32q-59 0 -109 32zM279 126q49 0 82.5 33.5t33.5 81.5q0 49 -33.5 83 t-82.5 34t-83 -34t-34 -82q0 -49 34 -82.5t83 -33.5z" />
<glyph unicode="&#xa5;" horiz-adv-x="747" d="M286 0v147h-187v64h186l-20 61h-166v64h123l-214 329h212l155 -249q76 123 154 249h211l-213 -329h122v-64h-165l-20 -61h185v-64h-186v-147h-177z" />
<glyph unicode="&#xa6;" horiz-adv-x="224" d="M178 391h-132v374h132v-374zM178 -138h-132v374h132v-374z" />
<glyph unicode="&#xa7;" horiz-adv-x="578" d="M32 -228v159q116 -68 217 -68t101 56q0 21 -17 35t-61 32l-66 27q-78 31 -120.5 76t-42.5 116q0 87 60 141q-52 50 -52 126q0 96 67.5 148t183.5 52q115 0 211 -40v-151q-99 48 -186 48q-86 0 -86 -47q0 -24 17.5 -38.5t61.5 -32.5l60 -26q89 -38 129 -79t40 -109 q0 -93 -59 -147q52 -47 52 -121q0 -98 -70.5 -154.5t-201.5 -56.5q-128 0 -238 54zM329 130q58 9 58 48q0 24 -17.5 40.5t-63.5 33.5q-9 3 -56 19q-54 -10 -54 -45q0 -26 18.5 -41.5t64.5 -34.5q9 -4 21 -8.5t19.5 -7.5t9.5 -4z" />
<glyph unicode="&#xa8;" horiz-adv-x="469" d="M119 561q-32 0 -54.5 23t-22.5 55t22.5 55.5t54.5 23.5t54.5 -23.5t22.5 -55.5t-22.5 -55t-54.5 -23zM351 561q-32 0 -54.5 23t-22.5 55t22.5 55.5t54.5 23.5q31 0 54 -23.5t23 -55.5t-22.5 -55t-54.5 -23z" />
<glyph unicode="&#xa9;" horiz-adv-x="803" d="M743 332q0 -142 -99.5 -242t-241.5 -100t-242.5 100t-100.5 242t100 242t243 100q142 0 241.5 -100t99.5 -242zM665 332q0 110 -76.5 186t-186.5 76t-186.5 -76t-76.5 -186q0 -109 76 -184.5t187 -75.5q112 0 187.5 75.5t75.5 184.5zM536 161q-59 -30 -126 -30 q-103 0 -154.5 54t-51.5 146q0 98 60 150t155 52q53 0 112 -21v-101q-52 25 -97 25q-50 0 -75.5 -29.5t-25.5 -75.5q0 -48 25.5 -75t73.5 -27q56 0 104 29v-97z" />
<glyph unicode="&#xaa;" horiz-adv-x="457" d="M426 318q-35 -16 -79 -16q-25 0 -45.5 12.5t-26.5 35.5q-38 -48 -110 -48q-56 0 -86.5 31.5t-30.5 74.5q0 55 53 84q49 27 161 33v11q0 17 -7 31q-10 17 -49 17q-52 0 -126 -34v87q67 32 151 32q110 0 138 -58q14 -28 14 -97v-92q0 -14 4 -19q3 -7 14 -7q12 0 25 5v-83z M262 460q-55 -1 -82 -15q-21 -11 -21 -30q0 -33 42 -33q37 0 54 25q7 13 7 35v18z" />
<glyph unicode="&#xab;" horiz-adv-x="547" d="M206 22l-184 222l185 236h112l-144 -236l143 -222h-112zM414 22l-184 222l185 236h112l-144 -236l143 -222h-112z" />
<glyph unicode="&#xac;" horiz-adv-x="408" d="M262 113v106h-225v112h334v-218h-109z" />
<glyph unicode="&#xad;" horiz-adv-x="384" d="M33 172v129h318v-129h-318z" />
<glyph unicode="&#xae;" horiz-adv-x="803" d="M402 -10q-142 0 -242.5 100t-100.5 242t100 242t243 100q142 0 241.5 -100t99.5 -242t-99.5 -242t-241.5 -100zM402 72q108 0 185.5 74.5t77.5 185.5q0 110 -76.5 186t-186.5 76t-186.5 -76t-76.5 -186q0 -109 76 -184.5t187 -75.5zM255 155v377q144 2 166 2q51 0 86 -19 q25 -13 40 -39.5t15 -57.5q0 -63 -38 -93q-10 -7 -30 -13q9 -2 26 -17q7 -6 20 -32l49 -108h-104l-42 96q-9 21 -26 35q-16 13 -41 13h-25v-144h-96zM351 367h53q25 0 40 9q20 15 20 39q0 27 -23 38q-13 8 -37 8l-53 -2v-92z" />
<glyph unicode="&#xaf;" horiz-adv-x="428" d="M43 564v109h342v-109h-342z" />
<glyph unicode="&#xb0;" horiz-adv-x="344" d="M21 530q0 62 44.5 107t106.5 45q61 0 105.5 -45t44.5 -107t-44.5 -106.5t-105.5 -44.5q-62 0 -106.5 44.5t-44.5 106.5zM112 531q0 -25 18 -43t43 -18t43 18t18 43t-18 42.5t-43 17.5t-43 -17.5t-18 -42.5z" />
<glyph unicode="&#xb1;" horiz-adv-x="496" d="M49 -27v135h399v-135h-399zM182 139v134h-133v135h133v131h132v-131h134v-135h-134v-134h-132z" />
<glyph unicode="&#xb2;" horiz-adv-x="418" d="M178 671q-43 0 -117 -47v103q70 42 144 42q67 0 113.5 -30t46.5 -90t-52 -103l-27 -22l-55 -41q63 2 144 2v-95h-334v51q101 87 136 121l32 31q21 21 21 43q0 17 -15.5 26t-36.5 9z" />
<glyph unicode="&#xb3;" horiz-adv-x="379" d="M181 385q-83 0 -147 32v96q68 -38 118 -38q18 0 35.5 9t17.5 32q0 37 -79 37v54q77 0 77 35q0 37 -52 37q-49 0 -106 -38v96q58 33 134 33q64 0 111.5 -23t47.5 -73q0 -32 -20.5 -54.5t-50.5 -28.5l3 -1q35 -8 56 -32t21 -56q0 -33 -17.5 -57.5t-45 -36.5t-53.5 -17.5 t-50 -5.5z" />
<glyph unicode="&#xb4;" horiz-adv-x="358" d="M146 554l-86 54q37 27 82.5 84t75.5 118l118 -61q-32 -61 -88.5 -116t-101.5 -79z" />
<glyph unicode="&#xb5;" horiz-adv-x="646" d="M59 -203l1 704h172v-284q0 -31 10 -51q21 -44 80 -44t81 44q11 19 11 51v284h172v-273q0 -80 -25 -124q-63 -114 -238 -114q-63 0 -101 32l5 -225h-168z" />
<glyph unicode="&#xb6;" horiz-adv-x="652" d="M252 -245v443q-98 0 -162 68t-64 168q0 73 36.5 131t96.5 82q42 18 98 18h357v-100h-74v-810h-100v810h-87v-810h-101z" />
<glyph unicode="&#xb7;" horiz-adv-x="237" d="M117 237q-36 0 -61.5 26.5t-25.5 63.5t25.5 63t61.5 26q37 0 62.5 -26t25.5 -63q0 -38 -25.5 -64t-62.5 -26z" />
<glyph unicode="&#xb8;" horiz-adv-x="341" d="M54 -226v76q40 -25 80 -25q45 0 45 32q0 33 -59 33q-18 0 -45 -4l27 123h71l-14 -59q11 3 37 3q44 0 69 -23.5t25 -62.5q0 -55 -38 -84t-104 -29q-57 0 -94 20z" />
<glyph unicode="&#xb9;" horiz-adv-x="348" d="M53 390v95h68v142q-5 -9 -23 -21t-34 -20l-15 -7v108q62 36 95 78h99v-280h63v-95h-253z" />
<glyph unicode="&#xba;" horiz-adv-x="504" d="M245 302q-90 0 -142.5 49t-52.5 134q0 81 53.5 133t143.5 52q91 0 142.5 -50t51.5 -133q0 -81 -53 -133t-143 -52zM246 398q33 0 51.5 24.5t18.5 62.5q0 40 -17.5 65t-52.5 25q-34 0 -51.5 -24.5t-17.5 -64.5q0 -41 17.5 -64.5t51.5 -23.5z" />
<glyph unicode="&#xbb;" horiz-adv-x="547" d="M22 22l142 222l-143 236h112l185 -236l-184 -222h-112zM230 22l143 222l-144 236h112l185 -236l-184 -222h-112z" />
<glyph unicode="&#xbc;" horiz-adv-x="984" d="M171 -31l487 658h143l-487 -658h-143zM53 220v95h68v142q-5 -9 -23 -21t-34 -20l-15 -7v108q62 36 95 78h99v-280h63v-95h-253zM772 1v59h-209v75l175 242h138q-165 -224 -177 -237q46 1 78 1v37l117 155v-192h39v-81h-39v-59h-122z" />
<glyph unicode="&#xbd;" horiz-adv-x="988" d="M170 -31l487 658h143l-487 -658h-143zM53 220v95h68v142q-5 -9 -23 -21t-34 -20l-15 -7v108q62 36 95 78h99v-280h63v-95h-253zM756 281q-43 0 -117 -47v103q70 42 144 42q67 0 113.5 -30t46.5 -90t-52 -103l-26 -21l-56 -42q63 2 144 2v-95h-334v51q101 87 136 121 l32 31q21 21 21 43q0 17 -15.5 26t-36.5 9z" />
<glyph unicode="&#xbe;" horiz-adv-x="991" d="M192 -31l487 658h143l-487 -658h-143zM201 215q-83 0 -147 32v96q68 -38 118 -38q18 0 35.5 9t17.5 32q0 37 -79 37v54q77 0 77 35q0 37 -52 37q-49 0 -106 -38v96q58 33 134 33q64 0 111.5 -23t47.5 -73q0 -32 -20.5 -54.5t-50.5 -28.5l3 -1q35 -8 56 -32t21 -56 q0 -33 -17.5 -57.5t-45 -36.5t-53.5 -17.5t-50 -5.5zM772 1v59h-209v75l175 242h138q-165 -224 -177 -237q46 1 78 1v37l117 155v-192h39v-81h-39v-59h-122z" />
<glyph unicode="&#xbf;" horiz-adv-x="378" d="M255 497q37 0 62 -26t25 -64q0 -37 -25 -63t-62 -26q-36 0 -62 26t-26 63t26 63.5t62 26.5zM205 262h107q27 -46 27 -86q0 -44 -39 -86q-3 -3 -21 -21.5t-26 -27.5t-16.5 -24.5t-8.5 -28.5q0 -21 11.5 -29.5t38.5 -8.5q21 0 50.5 10t48.5 20l19 9v-145q-70 -34 -152 -34 q-86 0 -147.5 34t-61.5 109q0 29 15.5 58t31 44.5t40.5 38.5q10 9 33.5 28t31.5 27.5t16.5 25.5t8.5 37q0 17 -7 50z" />
<glyph unicode="&#xc0;" horiz-adv-x="714" d="M712 0h-194l-45 125h-233l-47 -125h-191l261 665h193zM428 273q-54 145 -73 209q-11 -37 -71 -209h144zM423 721q-48 13 -112 51t-106 88l97 80q41 -49 95.5 -92t94.5 -59z" />
<glyph unicode="&#xc1;" horiz-adv-x="714" d="M712 0h-194l-45 125h-233l-47 -125h-191l261 665h193zM428 273q-54 145 -73 209q-11 -37 -71 -209h144zM320 723l-68 68q39 17 94 59.5t96 91.5l97 -81q-43 -49 -107.5 -87.5t-111.5 -50.5z" />
<glyph unicode="&#xc2;" horiz-adv-x="714" d="M712 0h-194l-45 125h-233l-47 -125h-191l261 665h193zM428 273q-54 145 -73 209q-11 -37 -71 -209h144zM215 718l-72 64q40 20 91.5 63.5t87.5 93.5h66q37 -50 88 -93.5t91 -63.5l-71 -64q-84 24 -143 97q-29 -36 -69 -62.5t-69 -34.5z" />
<glyph unicode="&#xc3;" horiz-adv-x="714" d="M712 0h-194l-45 125h-233l-47 -125h-191l261 665h193zM428 273q-54 145 -73 209q-11 -37 -71 -209h144zM241 699l-87 19q13 72 44.5 117.5t83.5 45.5q27 0 83 -29q41 -24 60 -24q16 0 26 14.5t20 49.5l86 -16q-30 -163 -124 -163q-30 0 -84 29q-48 24 -60 24 q-17 0 -28 -16t-20 -51z" />
<glyph unicode="&#xc4;" horiz-adv-x="714" d="M712 0h-194l-45 125h-233l-47 -125h-191l261 665h193zM428 273q-54 145 -73 209q-11 -37 -71 -209h144zM254 714q-32 0 -54 23t-22 55q0 33 22 56t54 23t54.5 -23.5t22.5 -55.5t-22.5 -55t-54.5 -23zM462 714q-32 0 -54.5 23t-22.5 55t22.5 55.5t54.5 23.5t54.5 -23.5 t22.5 -55.5t-22.5 -55t-54.5 -23z" />
<glyph unicode="&#xc5;" horiz-adv-x="714" d="M712 0h-194l-45 125h-233l-47 -125h-191l261 665h193zM428 273q-54 145 -73 209q-11 -37 -71 -209h144zM357 715q-49 0 -82 33t-33 81t33 81t82 33t82 -33t33 -81t-33 -81t-82 -33zM357 769q25 0 43.5 17.5t18.5 42.5q0 26 -18.5 44t-43.5 18t-42.5 -18t-17.5 -44 q0 -25 17.5 -42.5t42.5 -17.5z" />
<glyph unicode="&#xc6;" horiz-adv-x="1066" d="M1017 0h-477v119h-252l-73 -119h-210l422 665h572v-150h-287v-106h256v-145h-256v-113h305v-151zM540 265v243h-18l-147 -243h165z" />
<glyph unicode="&#xc7;" horiz-adv-x="654" d="M307 -226v76q40 -25 80 -25q45 0 45 32q0 33 -59 33q-18 0 -45 -4l22 102q-147 10 -232 102t-85 243q0 160 103 252.5t260 92.5q120 0 224 -39v-158q-92 42 -205 42q-86 0 -143 -45t-57 -148q0 -96 55 -142t143 -46q57 0 118 15t96 31v-153q-85 -40 -206 -47l-9 -38 q11 3 37 3q44 0 69 -23.5t25 -62.5q0 -55 -38 -84t-104 -29q-57 0 -94 20z" />
<glyph unicode="&#xc8;" horiz-adv-x="593" d="M544 151v-151h-474v665h452v-150h-278v-105h251v-147h-251v-112h300zM380 721q-48 13 -112 51t-106 88l97 80q41 -49 95.5 -92t94.5 -59z" />
<glyph unicode="&#xc9;" horiz-adv-x="593" d="M544 151v-151h-474v665h452v-150h-278v-105h251v-147h-251v-112h300zM236 723l-68 68q39 17 94 59.5t96 91.5l97 -81q-43 -49 -107.5 -87.5t-111.5 -50.5z" />
<glyph unicode="&#xca;" horiz-adv-x="593" d="M544 151v-151h-474v665h452v-150h-278v-105h251v-147h-251v-112h300zM158 718l-72 64q40 20 91.5 63.5t87.5 93.5h66q37 -50 88 -93.5t91 -63.5l-71 -64q-84 24 -143 97q-29 -36 -69 -62.5t-69 -34.5z" />
<glyph unicode="&#xcb;" horiz-adv-x="593" d="M544 151v-151h-474v665h452v-150h-278v-105h251v-147h-251v-112h300zM197 714q-32 0 -54 23t-22 55q0 33 22 56t54 23t54.5 -23.5t22.5 -55.5t-22.5 -55t-54.5 -23zM405 714q-32 0 -54.5 23t-22.5 55t22.5 55.5t54.5 23.5t54.5 -23.5t22.5 -55.5t-22.5 -55t-54.5 -23z " />
<glyph unicode="&#xcc;" horiz-adv-x="315" d="M246 0h-178v665h178v-665zM210 721q-48 13 -112 51t-106 88l97 80q41 -49 95.5 -92t94.5 -59z" />
<glyph unicode="&#xcd;" horiz-adv-x="315" d="M246 0h-178v665h178v-665zM124 723l-68 68q39 17 94 59.5t96 91.5l97 -81q-43 -49 -107.5 -87.5t-111.5 -50.5z" />
<glyph unicode="&#xce;" horiz-adv-x="315" d="M246 0h-178v665h178v-665zM20 718l-72 64q40 20 91.5 63.5t87.5 93.5h66q37 -50 88 -93.5t91 -63.5l-71 -64q-84 24 -143 97q-29 -36 -69 -62.5t-69 -34.5z" />
<glyph unicode="&#xcf;" horiz-adv-x="315" d="M246 0h-178v665h178v-665zM56 714q-32 0 -54 23t-22 55q0 33 22 56t54 23t54.5 -23.5t22.5 -55.5t-22.5 -55t-54.5 -23zM264 714q-32 0 -54.5 23t-22.5 55t22.5 55.5t54.5 23.5t54.5 -23.5t22.5 -55.5t-22.5 -55t-54.5 -23z" />
<glyph unicode="&#xd0;" horiz-adv-x="739" d="M70 0v263h-70v138h70v264q138 3 250 3q386 0 386 -327q0 -109 -50.5 -189.5t-132.5 -117.5q-73 -34 -225 -34h-228zM247 156h83q80 0 116 24q80 52 80 162q0 171 -185 171q-13 0 -50.5 -1.5t-43.5 -1.5v-109h100v-138h-100v-107z" />
<glyph unicode="&#xd1;" horiz-adv-x="741" d="M675 0h-149q-102 129 -173.5 220.5t-92.5 118.5l-20 27v-366h-175v665h153q104 -130 174.5 -221t89.5 -118l19 -26v365h174v-665zM255 699l-87 19q13 72 44.5 117.5t83.5 45.5q27 0 83 -29q41 -24 60 -24q16 0 26 14.5t20 49.5l86 -16q-30 -163 -124 -163q-30 0 -84 29 q-48 24 -60 24q-17 0 -28 -16t-20 -51z" />
<glyph unicode="&#xd2;" horiz-adv-x="770" d="M379 -13q-156 0 -251 97t-95 248q0 155 100.5 250.5t257.5 95.5q153 0 249.5 -93t96.5 -243q0 -159 -99 -257t-259 -98zM387 142q77 0 123 50t46 140q0 92 -45.5 141.5t-120.5 49.5q-80 0 -127.5 -49.5t-47.5 -141.5q0 -89 47 -139.5t125 -50.5zM461 721q-48 13 -112 51 t-106 88l97 80q41 -49 95.5 -92t94.5 -59z" />
<glyph unicode="&#xd3;" horiz-adv-x="770" d="M379 -13q-156 0 -251 97t-95 248q0 155 100.5 250.5t257.5 95.5q153 0 249.5 -93t96.5 -243q0 -159 -99 -257t-259 -98zM387 142q77 0 123 50t46 140q0 92 -45.5 141.5t-120.5 49.5q-80 0 -127.5 -49.5t-47.5 -141.5q0 -89 47 -139.5t125 -50.5zM323 723l-68 68 q39 17 94 59.5t96 91.5l97 -81q-43 -49 -107.5 -87.5t-111.5 -50.5z" />
<glyph unicode="&#xd4;" horiz-adv-x="770" d="M379 -13q-156 0 -251 97t-95 248q0 155 100.5 250.5t257.5 95.5q153 0 249.5 -93t96.5 -243q0 -159 -99 -257t-259 -98zM387 142q77 0 123 50t46 140q0 92 -45.5 141.5t-120.5 49.5q-80 0 -127.5 -49.5t-47.5 -141.5q0 -89 47 -139.5t125 -50.5zM249 718l-72 64 q40 20 91.5 63.5t87.5 93.5h66q37 -50 88 -93.5t91 -63.5l-71 -64q-84 24 -143 97q-29 -36 -69 -62.5t-69 -34.5z" />
<glyph unicode="&#xd5;" horiz-adv-x="770" d="M379 -13q-156 0 -251 97t-95 248q0 155 100.5 250.5t257.5 95.5q153 0 249.5 -93t96.5 -243q0 -159 -99 -257t-259 -98zM387 142q77 0 123 50t46 140q0 92 -45.5 141.5t-120.5 49.5q-80 0 -127.5 -49.5t-47.5 -141.5q0 -89 47 -139.5t125 -50.5zM275 699l-87 19 q13 72 44.5 117.5t83.5 45.5q27 0 83 -29q41 -24 60 -24q16 0 26 14.5t20 49.5l86 -16q-30 -163 -124 -163q-30 0 -84 29q-48 24 -60 24q-17 0 -28 -16t-20 -51z" />
<glyph unicode="&#xd6;" horiz-adv-x="770" d="M379 -13q-156 0 -251 97t-95 248q0 155 100.5 250.5t257.5 95.5q153 0 249.5 -93t96.5 -243q0 -159 -99 -257t-259 -98zM387 142q77 0 123 50t46 140q0 92 -45.5 141.5t-120.5 49.5q-80 0 -127.5 -49.5t-47.5 -141.5q0 -89 47 -139.5t125 -50.5zM286 714q-32 0 -54 23 t-22 55q0 33 22 56t54 23t54.5 -23.5t22.5 -55.5t-22.5 -55t-54.5 -23zM494 714q-32 0 -54.5 23t-22.5 55t22.5 55.5t54.5 23.5t54.5 -23.5t22.5 -55.5t-22.5 -55t-54.5 -23z" />
<glyph unicode="&#xd7;" horiz-adv-x="487" d="M132 44l-92 95l111 110l-111 110l93 96l111 -110l110 109l93 -95l-110 -110l110 -109l-92 -95l-111 109z" />
<glyph unicode="&#xd8;" horiz-adv-x="762" d="M92 -32l-67 66l80 79q-68 90 -68 219q0 154 98.5 249t251.5 95q122 0 208 -63l71 72l68 -64l-74 -74q65 -84 65 -205q0 -158 -97.5 -255.5t-253.5 -97.5q-118 0 -202 60zM289 171q37 -28 94 -28q72 0 115 49.5t43 139.5q0 42 -17 71zM238 254l242 238q-40 31 -95 31 q-75 0 -119.5 -49.5t-44.5 -141.5q0 -44 17 -78z" />
<glyph unicode="&#xd9;" horiz-adv-x="746" d="M685 665v-347q0 -62 -6 -97q-21 -115 -101.5 -174.5t-206.5 -59.5q-128 0 -207.5 59t-90.5 167q-5 45 -5 94v358h178v-356q0 -42 4 -69q16 -98 128 -98q110 0 126 97q4 21 4 70v356h177zM465 721q-48 13 -112 51t-106 88l97 80q41 -49 95.5 -92t94.5 -59z" />
<glyph unicode="&#xda;" horiz-adv-x="746" d="M685 665v-347q0 -62 -6 -97q-21 -115 -101.5 -174.5t-206.5 -59.5q-128 0 -207.5 59t-90.5 167q-5 45 -5 94v358h178v-356q0 -42 4 -69q16 -98 128 -98q110 0 126 97q4 21 4 70v356h177zM303 723l-68 68q39 17 94 59.5t96 91.5l97 -81q-43 -49 -107.5 -87.5t-111.5 -50.5 z" />
<glyph unicode="&#xdb;" horiz-adv-x="746" d="M685 665v-347q0 -62 -6 -97q-21 -115 -101.5 -174.5t-206.5 -59.5q-128 0 -207.5 59t-90.5 167q-5 45 -5 94v358h178v-356q0 -42 4 -69q16 -98 128 -98q110 0 126 97q4 21 4 70v356h177zM238 718l-72 64q40 20 91.5 63.5t87.5 93.5h66q37 -50 88 -93.5t91 -63.5l-71 -64 q-84 24 -143 97q-29 -36 -69 -62.5t-69 -34.5z" />
<glyph unicode="&#xdc;" horiz-adv-x="746" d="M685 665v-347q0 -62 -6 -97q-21 -115 -101.5 -174.5t-206.5 -59.5q-128 0 -207.5 59t-90.5 167q-5 45 -5 94v358h178v-356q0 -42 4 -69q16 -98 128 -98q110 0 126 97q4 21 4 70v356h177zM275 714q-32 0 -54 23t-22 55q0 33 22 56t54 23t54.5 -23.5t22.5 -55.5t-22.5 -55 t-54.5 -23zM483 714q-32 0 -54.5 23t-22.5 55t22.5 55.5t54.5 23.5t54.5 -23.5t22.5 -55.5t-22.5 -55t-54.5 -23z" />
<glyph unicode="&#xdd;" horiz-adv-x="710" d="M436 0h-177v243l-259 422h203q138 -239 149 -259q37 68 150 259h200l-266 -422v-243zM290 723l-68 68q39 17 94 59.5t96 91.5l97 -81q-43 -49 -107.5 -87.5t-111.5 -50.5z" />
<glyph unicode="&#xde;" horiz-adv-x="636" d="M68 0v665h178v-106q27 0 65.5 0.5t42.5 0.5q115 0 186 -50.5t71 -162.5q0 -115 -79 -173q-65 -48 -165 -48h-121v-126h-178zM246 257h86q45 0 70 19q28 22 28 65q0 40 -27.5 60t-71.5 20l-85 -2v-162z" />
<glyph unicode="&#xdf;" horiz-adv-x="719" d="M85 0v366h-60v135h60q0 19 1 26q5 77 30 118q28 49 87 78.5t127 29.5q113 0 183 -65.5t67 -171.5q-2 -51 -6 -88q-27 3 -35 3q-35 0 -55.5 -10.5t-20.5 -29.5q0 -28 46 -50l42 -20q75 -36 108 -77t33 -96q0 -66 -54 -112.5t-141 -46.5q-103 0 -188 39v138q89 -48 147 -48 q61 0 61 40q0 29 -51 56l-59 32q-49 26 -71.5 57.5t-22.5 80.5q0 39 23 70t67 44q4 1 11 2.5t15.5 3t11.5 2.5q0 24 -4 37q-14 63 -89 63q-60 0 -81 -37q-14 -25 -14 -72v-497h-168z" />
<glyph unicode="&#xe0;" d="M570 11q-47 -20 -111 -20q-36 0 -65 17t-37 51q-56 -69 -158 -69q-79 0 -122 41.5t-43 102.5q0 85 71 124q70 37 234 42v12q0 29 -10 45q-13 22 -72 22q-32 0 -83 -12t-94 -34v133q43 21 105 33.5t107 12.5q157 0 195 -83q20 -41 20 -137v-134q0 -18 5 -28q6 -9 21 -9 q19 0 37 6v-116zM250 105q52 0 79 36q10 15 10 50v18q-89 -2 -121 -17q-28 -14 -28 -44q0 -43 60 -43zM422 608l-86 -54q-45 24 -101.5 79t-88.5 116l118 61q30 -61 75.5 -118t82.5 -84z" />
<glyph unicode="&#xe1;" d="M570 11q-47 -20 -111 -20q-36 0 -65 17t-37 51q-56 -69 -158 -69q-79 0 -122 41.5t-43 102.5q0 85 71 124q70 37 234 42v12q0 29 -10 45q-13 22 -72 22q-32 0 -83 -12t-94 -34v133q43 21 105 33.5t107 12.5q157 0 195 -83q20 -41 20 -137v-134q0 -18 5 -28q6 -9 21 -9 q19 0 37 6v-116zM250 105q52 0 79 36q10 15 10 50v18q-89 -2 -121 -17q-28 -14 -28 -44q0 -43 60 -43zM254 554l-86 54q37 27 82.5 84t75.5 118l118 -61q-32 -61 -88.5 -116t-101.5 -79z" />
<glyph unicode="&#xe2;" d="M570 11q-47 -20 -111 -20q-36 0 -65 17t-37 51q-56 -69 -158 -69q-79 0 -122 41.5t-43 102.5q0 85 71 124q70 37 234 42v12q0 29 -10 45q-13 22 -72 22q-32 0 -83 -12t-94 -34v133q43 21 105 33.5t107 12.5q157 0 195 -83q20 -41 20 -137v-134q0 -18 5 -28q6 -9 21 -9 q19 0 37 6v-116zM250 105q52 0 79 36q10 15 10 50v18q-89 -2 -121 -17q-28 -14 -28 -44q0 -43 60 -43zM163 556l-79 52q101 84 167 191h85q54 -103 159 -191l-79 -52q-25 14 -62 47t-64 66q-83 -89 -127 -113z" />
<glyph unicode="&#xe3;" d="M570 11q-47 -20 -111 -20q-36 0 -65 17t-37 51q-56 -69 -158 -69q-79 0 -122 41.5t-43 102.5q0 85 71 124q70 37 234 42v12q0 29 -10 45q-13 22 -72 22q-32 0 -83 -12t-94 -34v133q43 21 105 33.5t107 12.5q157 0 195 -83q20 -41 20 -137v-134q0 -18 5 -28q6 -9 21 -9 q19 0 37 6v-116zM250 105q52 0 79 36q10 15 10 50v18q-89 -2 -121 -17q-28 -14 -28 -44q0 -43 60 -43zM173 560l-87 18q13 72 44.5 117.5t83.5 45.5q31 0 83 -29q41 -24 60 -24q16 0 26 14.5t20 49.5l86 -16q-30 -163 -124 -163q-30 0 -84 29q-44 24 -60 24 q-17 0 -27.5 -15.5t-20.5 -50.5z" />
<glyph unicode="&#xe4;" d="M570 11q-47 -20 -111 -20q-36 0 -65 17t-37 51q-56 -69 -158 -69q-79 0 -122 41.5t-43 102.5q0 85 71 124q70 37 234 42v12q0 29 -10 45q-13 22 -72 22q-32 0 -83 -12t-94 -34v133q43 21 105 33.5t107 12.5q157 0 195 -83q20 -41 20 -137v-134q0 -18 5 -28q6 -9 21 -9 q19 0 37 6v-116zM250 105q52 0 79 36q10 15 10 50v18q-89 -2 -121 -17q-28 -14 -28 -44q0 -43 60 -43zM176 561q-32 0 -54.5 23t-22.5 55t22.5 55.5t54.5 23.5t54.5 -23.5t22.5 -55.5t-22.5 -55t-54.5 -23zM408 561q-32 0 -54.5 23t-22.5 55t22.5 55.5t54.5 23.5 q31 0 54 -23.5t23 -55.5t-22.5 -55t-54.5 -23z" />
<glyph unicode="&#xe5;" d="M570 11q-47 -20 -111 -20q-36 0 -65 17t-37 51q-56 -69 -158 -69q-79 0 -122 41.5t-43 102.5q0 85 71 124q70 37 234 42v12q0 29 -10 45q-13 22 -72 22q-32 0 -83 -12t-94 -34v133q43 21 105 33.5t107 12.5q157 0 195 -83q20 -41 20 -137v-134q0 -18 5 -28q6 -9 21 -9 q19 0 37 6v-116zM250 105q52 0 79 36q10 15 10 50v18q-89 -2 -121 -17q-28 -14 -28 -44q0 -43 60 -43zM290 554q-49 0 -82 32.5t-33 81.5q0 48 33 80.5t82 32.5t82 -32.5t33 -80.5q0 -49 -33 -81.5t-82 -32.5zM290 607q26 0 44 17.5t18 43.5t-18 43.5t-44 17.5t-43 -17.5 t-17 -43.5t17 -43.5t43 -17.5z" />
<glyph unicode="&#xe6;" horiz-adv-x="883" d="M201 -11q-80 0 -123.5 42t-43.5 103q0 84 71 124q66 36 234 41v15q0 25 -10 42q-14 23 -72 23q-32 0 -83 -12t-94 -34v133q43 21 105 34t107 13q108 0 155 -59q68 57 161 57q119 0 180 -64q64 -68 64 -196q0 -18 -2 -38h-344q1 -44 35 -67.5t91 -23.5q62 0 103 11t92 36 v-131q-104 -48 -219 -48q-147 0 -215 91q-31 -42 -82 -67t-110 -25zM253 105q27 0 54.5 13.5t40.5 33.5q-7 26 -10 58q-93 -4 -120 -17q-28 -14 -28 -45q0 -43 63 -43zM508 304h185q-1 37 -24 59.5t-64 22.5q-40 0 -66.5 -21.5t-30.5 -60.5z" />
<glyph unicode="&#xe7;" horiz-adv-x="501" d="M206 -226v76q40 -25 80 -25q45 0 45 32q0 33 -59 33q-18 0 -45 -4l23 107q-108 13 -162 81.5t-54 175.5q0 127 78.5 195t200.5 68q75 0 142 -27v-138q-64 31 -121 31q-62 0 -93.5 -35.5t-31.5 -92.5q0 -61 31.5 -94.5t91.5 -33.5q68 0 130 37v-134q-65 -33 -142 -36 l-9 -40q11 3 37 3q44 0 69 -23.5t25 -62.5q0 -55 -38 -84t-104 -29q-57 0 -94 20z" />
<glyph unicode="&#xe8;" horiz-adv-x="584" d="M530 38q-105 -48 -219 -48q-131 0 -204 68t-73 191q0 111 71 186.5t205 75.5q120 0 182 -64t62 -192q0 -20 -2 -44h-344q1 -40 35.5 -64.5t90.5 -24.5q63 0 104 11t92 36v-131zM211 304h184q0 37 -23.5 60t-63.5 23q-41 0 -67 -21.5t-30 -61.5zM423 608l-86 -54 q-45 24 -101.5 79t-88.5 116l118 61q30 -61 75.5 -118t82.5 -84z" />
<glyph unicode="&#xe9;" horiz-adv-x="584" d="M530 38q-105 -48 -219 -48q-131 0 -204 68t-73 191q0 111 71 186.5t205 75.5q120 0 182 -64t62 -192q0 -20 -2 -44h-344q1 -40 35.5 -64.5t90.5 -24.5q63 0 104 11t92 36v-131zM211 304h184q0 37 -23.5 60t-63.5 23q-41 0 -67 -21.5t-30 -61.5zM282 554l-86 54 q37 27 82.5 84t75.5 118l118 -61q-32 -61 -88.5 -116t-101.5 -79z" />
<glyph unicode="&#xea;" horiz-adv-x="584" d="M530 38q-105 -48 -219 -48q-131 0 -204 68t-73 191q0 111 71 186.5t205 75.5q120 0 182 -64t62 -192q0 -20 -2 -44h-344q1 -40 35.5 -64.5t90.5 -24.5q63 0 104 11t92 36v-131zM211 304h184q0 37 -23.5 60t-63.5 23q-41 0 -67 -21.5t-30 -61.5zM183 556l-79 52 q101 84 167 191h85q54 -103 159 -191l-79 -52q-25 14 -62 47t-64 66q-83 -89 -127 -113z" />
<glyph unicode="&#xeb;" horiz-adv-x="584" d="M530 38q-105 -48 -219 -48q-131 0 -204 68t-73 191q0 111 71 186.5t205 75.5q120 0 182 -64t62 -192q0 -20 -2 -44h-344q1 -40 35.5 -64.5t90.5 -24.5q63 0 104 11t92 36v-131zM211 304h184q0 37 -23.5 60t-63.5 23q-41 0 -67 -21.5t-30 -61.5zM191 561q-32 0 -54.5 23 t-22.5 55t22.5 55.5t54.5 23.5t54.5 -23.5t22.5 -55.5t-22.5 -55t-54.5 -23zM423 561q-32 0 -54.5 23t-22.5 55t22.5 55.5t54.5 23.5q31 0 54 -23.5t23 -55.5t-22.5 -55t-54.5 -23z" />
<glyph unicode="&#xec;" horiz-adv-x="294" d="M270 608l-86 -54q-45 24 -101.5 79t-88.5 116l118 61q30 -61 75.5 -118t82.5 -84zM64 0v501h168v-501h-168z" />
<glyph unicode="&#xed;" horiz-adv-x="294" d="M111 554l-86 54q37 27 82.5 84t75.5 118l118 -61q-32 -61 -88.5 -116t-101.5 -79zM64 0v501h168v-501h-168z" />
<glyph unicode="&#xee;" horiz-adv-x="294" d="M64 0v501h168v-501h-168zM22 556l-79 52q101 84 167 191h85q54 -103 159 -191l-79 -52q-25 14 -62 47t-64 66q-83 -89 -127 -113z" />
<glyph unicode="&#xef;" horiz-adv-x="294" d="M32 561q-32 0 -54.5 23t-22.5 55t22.5 55.5t54.5 23.5t54.5 -23.5t22.5 -55.5t-22.5 -55t-54.5 -23zM264 561q-32 0 -54.5 23t-22.5 55t22.5 55.5t54.5 23.5q31 0 54 -23.5t23 -55.5t-22.5 -55t-54.5 -23zM64 0v501h168v-501h-168z" />
<glyph unicode="&#xf0;" horiz-adv-x="614" d="M587 277q0 -118 -73.5 -202.5t-203.5 -84.5q-129 0 -203 69.5t-74 188.5q0 116 74.5 190.5t202.5 74.5q54 0 87 -27q-6 32 -24 66q-3 5 -23 38l-51 -50l-54 55l54 52q-12 9 -60 34l43 86q44 -18 87 -48l60 60l52 -55l-51 -51q31 -26 52 -52q76 -93 97 -222q8 -51 8 -122z M414 253q0 57 -25 91.5t-78 34.5q-52 0 -78 -35.5t-26 -93.5q0 -60 26.5 -93.5t78.5 -33.5q51 0 76.5 35t25.5 95z" />
<glyph unicode="&#xf1;" horiz-adv-x="634" d="M236 0h-172v501h170v-73q24 37 72 60t98 23q104 0 145 -67q25 -43 25 -120v-324h-170v281q0 48 -15 70q-17 24 -59 24q-47 0 -74 -33q-20 -23 -20 -68v-274zM201 560l-87 18q13 72 44.5 117.5t83.5 45.5q31 0 83 -29q41 -24 60 -24q16 0 26 14.5t20 49.5l86 -16 q-30 -163 -124 -163q-30 0 -84 29q-44 24 -60 24q-17 0 -28 -15.5t-20 -50.5z" />
<glyph unicode="&#xf2;" horiz-adv-x="620" d="M587 251q0 -115 -75.5 -188t-201.5 -73q-129 0 -203 69.5t-74 188.5q0 116 74.5 190.5t202.5 74.5q131 0 204 -71.5t73 -190.5zM414 250q0 58 -25 93.5t-78 35.5q-52 0 -78 -35.5t-26 -93.5q0 -60 26.5 -93.5t78.5 -33.5q50 0 76 35t26 92zM432 608l-86 -54 q-45 24 -101.5 79t-88.5 116l118 61q30 -61 75.5 -118t82.5 -84z" />
<glyph unicode="&#xf3;" horiz-adv-x="620" d="M587 251q0 -115 -75.5 -188t-201.5 -73q-129 0 -203 69.5t-74 188.5q0 116 74.5 190.5t202.5 74.5q131 0 204 -71.5t73 -190.5zM414 250q0 58 -25 93.5t-78 35.5q-52 0 -78 -35.5t-26 -93.5q0 -60 26.5 -93.5t78.5 -33.5q50 0 76 35t26 92zM299 554l-86 54q37 27 82.5 84 t75.5 118l118 -61q-32 -61 -88.5 -116t-101.5 -79z" />
<glyph unicode="&#xf4;" horiz-adv-x="620" d="M587 251q0 -115 -75.5 -188t-201.5 -73q-129 0 -203 69.5t-74 188.5q0 116 74.5 190.5t202.5 74.5q131 0 204 -71.5t73 -190.5zM414 250q0 58 -25 93.5t-78 35.5q-52 0 -78 -35.5t-26 -93.5q0 -60 26.5 -93.5t78.5 -33.5q50 0 76 35t26 92zM183 556l-79 52 q101 84 167 191h85q54 -103 159 -191l-79 -52q-25 14 -62 47t-64 66q-83 -89 -127 -113z" />
<glyph unicode="&#xf5;" horiz-adv-x="620" d="M587 251q0 -115 -75.5 -188t-201.5 -73q-129 0 -203 69.5t-74 188.5q0 116 74.5 190.5t202.5 74.5q131 0 204 -71.5t73 -190.5zM414 250q0 58 -25 93.5t-78 35.5q-52 0 -78 -35.5t-26 -93.5q0 -60 26.5 -93.5t78.5 -33.5q50 0 76 35t26 92zM194 560l-87 18 q13 72 44.5 117.5t83.5 45.5q31 0 83 -29q41 -24 60 -24q16 0 26 14.5t20 49.5l86 -16q-30 -163 -124 -163q-30 0 -84 29q-44 24 -60 24q-17 0 -27.5 -15.5t-20.5 -50.5z" />
<glyph unicode="&#xf6;" horiz-adv-x="620" d="M587 251q0 -115 -75.5 -188t-201.5 -73q-129 0 -203 69.5t-74 188.5q0 116 74.5 190.5t202.5 74.5q131 0 204 -71.5t73 -190.5zM414 250q0 58 -25 93.5t-78 35.5q-52 0 -78 -35.5t-26 -93.5q0 -60 26.5 -93.5t78.5 -33.5q50 0 76 35t26 92zM194 561q-32 0 -54.5 23 t-22.5 55t22.5 55.5t54.5 23.5t54.5 -23.5t22.5 -55.5t-22.5 -55t-54.5 -23zM426 561q-32 0 -54.5 23t-22.5 55t22.5 55.5t54.5 23.5q31 0 54 -23.5t23 -55.5t-22.5 -55t-54.5 -23z" />
<glyph unicode="&#xf7;" horiz-adv-x="451" d="M222 10q-36 0 -60 25t-24 61t24 60.5t60 24.5q35 0 59.5 -24.5t24.5 -60.5q0 -35 -25 -60.5t-59 -25.5zM41 235v121h369v-121h-369zM223 413q-35 0 -59 25t-24 61t24 61t59 25t59.5 -25t24.5 -61q0 -35 -25 -60.5t-59 -25.5z" />
<glyph unicode="&#xf8;" horiz-adv-x="620" d="M82 -29l-53 55l57 56q-53 64 -53 166q0 116 74.5 190t202.5 74q99 0 167 -42l50 48l54 -52l-48 -47q54 -68 54 -168q0 -114 -75 -187.5t-202 -73.5q-98 0 -166 42zM250 144q28 -21 62 -21q48 0 74 35.5t26 91.5q0 32 -6 43zM217 210l154 149q-24 19 -60 19 q-50 0 -76.5 -35.5t-26.5 -92.5q0 -28 9 -40z" />
<glyph unicode="&#xf9;" horiz-adv-x="642" d="M584 501v-272q0 -89 -29 -137q-60 -102 -234 -102q-180 0 -237 102q-26 47 -26 137v272h172v-281q0 -38 14 -63q21 -34 77 -34q54 0 77 35q14 21 14 62v281h172zM459 608l-86 -54q-45 24 -101.5 79t-88.5 116l118 61q30 -61 75.5 -118t82.5 -84z" />
<glyph unicode="&#xfa;" horiz-adv-x="642" d="M584 501v-272q0 -89 -29 -137q-60 -102 -234 -102q-180 0 -237 102q-26 47 -26 137v272h172v-281q0 -38 14 -63q21 -34 77 -34q54 0 77 35q14 21 14 62v281h172zM275 554l-86 54q37 27 82.5 84t75.5 118l118 -61q-32 -61 -88.5 -116t-101.5 -79z" />
<glyph unicode="&#xfb;" horiz-adv-x="642" d="M584 501v-272q0 -89 -29 -137q-60 -102 -234 -102q-180 0 -237 102q-26 47 -26 137v272h172v-281q0 -38 14 -63q21 -34 77 -34q54 0 77 35q14 21 14 62v281h172zM195 556l-79 52q101 84 167 191h85q54 -103 159 -191l-79 -52q-25 14 -62 47t-64 66q-83 -89 -127 -113z " />
<glyph unicode="&#xfc;" horiz-adv-x="642" d="M584 501v-272q0 -89 -29 -137q-60 -102 -234 -102q-180 0 -237 102q-26 47 -26 137v272h172v-281q0 -38 14 -63q21 -34 77 -34q54 0 77 35q14 21 14 62v281h172zM207 561q-32 0 -54.5 23t-22.5 55t22.5 55.5t54.5 23.5t54.5 -23.5t22.5 -55.5t-22.5 -55t-54.5 -23z M439 561q-32 0 -54.5 23t-22.5 55t22.5 55.5t54.5 23.5q31 0 54 -23.5t23 -55.5t-22.5 -55t-54.5 -23z" />
<glyph unicode="&#xfd;" horiz-adv-x="597" d="M28 -240v135q51 -16 95 -16t64 29q15 18 29 58l13 34h-17l-208 501h186q101 -250 122 -322q15 57 105 322h175l-223 -569q-31 -81 -58 -115q-54 -72 -160 -72q-70 0 -123 15zM278 554l-86 54q37 27 82.5 84t75.5 118l118 -61q-32 -61 -88.5 -116t-101.5 -79z" />
<glyph unicode="&#xfe;" horiz-adv-x="626" d="M64 -243v908h166v-233q26 37 70 57.5t91 20.5q96 0 147.5 -61.5t51.5 -173.5q0 -75 -22.5 -131t-61.5 -88.5t-85 -48t-98 -15.5q-33 0 -87 10v-245h-172zM236 137q30 -14 67 -14q112 0 112 130q0 121 -90 121q-42 0 -69 -32q-20 -24 -20 -65v-140z" />
<glyph unicode="&#xff;" horiz-adv-x="597" d="M28 -240v135q51 -16 95 -16t64 29q15 18 29 58l13 34h-17l-208 501h186q101 -250 122 -322q15 57 105 322h175l-223 -569q-31 -81 -58 -115q-54 -72 -160 -72q-70 0 -123 15zM190 561q-32 0 -54.5 23t-22.5 55t22.5 55.5t54.5 23.5t54.5 -23.5t22.5 -55.5t-22.5 -55 t-54.5 -23zM422 561q-32 0 -54.5 23t-22.5 55t22.5 55.5t54.5 23.5q31 0 54 -23.5t23 -55.5t-22.5 -55t-54.5 -23z" />
<glyph unicode="&#x152;" horiz-adv-x="1065" d="M575 0v58q-81 -71 -196 -71q-156 0 -251 97t-95 248q0 155 100.5 250.5t257.5 95.5q109 0 184 -62v49h439v-150h-294v-106h266v-145h-266v-113h312v-151h-457zM387 144q76 0 119 48t43 140q0 94 -42 142.5t-117 48.5q-80 0 -127.5 -49.5t-47.5 -141.5q0 -89 47 -138.5 t125 -49.5z" />
<glyph unicode="&#x153;" horiz-adv-x="962" d="M309 -10q-128 0 -202 69.5t-74 188.5q0 116 74.5 190.5t202.5 74.5q123 0 191 -70q66 68 184 68q128 0 190 -73q55 -65 55 -190q0 -27 -1 -37h-345q1 -45 35 -68t91 -23q63 0 104 11t92 36v-129q-105 -48 -219 -48q-123 0 -193 68q-68 -68 -185 -68zM312 123 q49 0 75.5 35.5t26.5 97.5q0 55 -25.5 89t-77.5 34t-78 -35.5t-26 -93.5q0 -60 26.5 -93.5t78.5 -33.5zM586 304h185q-1 37 -23.5 59.5t-63.5 22.5q-40 0 -67 -21.5t-31 -60.5z" />
<glyph unicode="&#x178;" horiz-adv-x="710" d="M436 0h-177v243l-259 422h203q138 -239 149 -259q37 68 150 259h200l-266 -422v-243zM245 714q-32 0 -54 23t-22 55q0 33 22 56t54 23t54.5 -23.5t22.5 -55.5t-22.5 -55t-54.5 -23zM453 714q-32 0 -54.5 23t-22.5 55t22.5 55.5t54.5 23.5t54.5 -23.5t22.5 -55.5 t-22.5 -55t-54.5 -23z" />
<glyph unicode="&#x2c6;" horiz-adv-x="549" d="M147 556l-79 52q101 84 167 191h85q54 -103 159 -191l-79 -52q-25 14 -62 47t-64 66q-83 -89 -127 -113z" />
<glyph unicode="&#x2dc;" horiz-adv-x="498" d="M135 560l-87 18q13 72 44.5 117.5t83.5 45.5q31 0 83 -29q41 -24 60 -24q16 0 26 14.5t20 49.5l86 -16q-30 -163 -124 -163q-30 0 -84 29q-44 24 -60 24q-17 0 -28 -15.5t-20 -50.5z" />
<glyph unicode="&#x2000;" horiz-adv-x="471" />
<glyph unicode="&#x2001;" horiz-adv-x="943" />
<glyph unicode="&#x2002;" horiz-adv-x="471" />
<glyph unicode="&#x2003;" horiz-adv-x="943" />
<glyph unicode="&#x2004;" horiz-adv-x="314" />
<glyph unicode="&#x2005;" horiz-adv-x="235" />
<glyph unicode="&#x2006;" horiz-adv-x="157" />
<glyph unicode="&#x2007;" horiz-adv-x="157" />
<glyph unicode="&#x2008;" horiz-adv-x="117" />
<glyph unicode="&#x2009;" horiz-adv-x="188" />
<glyph unicode="&#x200a;" horiz-adv-x="52" />
<glyph unicode="&#x2010;" horiz-adv-x="372" d="M41 195v136h290v-136h-290z" />
<glyph unicode="&#x2011;" horiz-adv-x="372" d="M41 195v136h290v-136h-290z" />
<glyph unicode="&#x2012;" horiz-adv-x="372" d="M41 195v136h290v-136h-290z" />
<glyph unicode="&#x2013;" horiz-adv-x="409" d="M29 196v136h350v-136h-350z" />
<glyph unicode="&#x2014;" horiz-adv-x="546" d="M29 196v136h488v-136h-488z" />
<glyph unicode="&#x2018;" horiz-adv-x="234" d="M123 711l117 -33q-81 -131 -81 -302l-149 8q1 95 35 185t78 142z" />
<glyph unicode="&#x2019;" horiz-adv-x="234" d="M110 375l-117 32q82 135 82 303l149 -9q-1 -94 -35.5 -184t-78.5 -142z" />
<glyph unicode="&#x201a;" horiz-adv-x="234" d="M-7 -170q82 135 82 303l149 -9q-1 -95 -35.5 -184.5t-78.5 -142.5z" />
<glyph unicode="&#x201c;" horiz-adv-x="447" d="M337 711l117 -33q-82 -133 -82 -302l-148 8q1 95 35 185t78 142zM123 711l117 -33q-81 -131 -81 -302l-149 8q1 95 35 185t78 142z" />
<glyph unicode="&#x201d;" horiz-adv-x="447" d="M110 375l-117 32q82 135 82 303l149 -9q-1 -94 -35.5 -184t-78.5 -142zM324 375l-117 32q82 135 82 303l148 -9q-1 -94 -35 -184t-78 -142z" />
<glyph unicode="&#x201e;" horiz-adv-x="447" d="M110 -203l-117 33q82 135 82 303l149 -9q-1 -95 -35.5 -184.5t-78.5 -142.5zM324 -203l-117 33q82 135 82 303l148 -9q-1 -95 -34.5 -184.5t-78.5 -142.5z" />
<glyph unicode="&#x2022;" horiz-adv-x="407" d="M57 310q0 62 42.5 105.5t103.5 43.5t104 -43.5t43 -105.5t-43 -105.5t-104 -43.5t-103.5 43.5t-42.5 105.5z" />
<glyph unicode="&#x2026;" horiz-adv-x="810" d="M136 -10q-36 0 -61.5 26.5t-25.5 63.5q0 38 25 63.5t62 25.5q36 0 62 -26t26 -63t-26 -63.5t-62 -26.5zM404 -10q-36 0 -61.5 26.5t-25.5 63.5t25.5 63t61.5 26q37 0 62.5 -26t25.5 -63t-25.5 -63.5t-62.5 -26.5zM673 -10q-36 0 -61.5 26.5t-25.5 63.5t25.5 63t61.5 26 q37 0 62.5 -26t25.5 -63t-25.5 -63.5t-62.5 -26.5z" />
<glyph unicode="&#x202f;" horiz-adv-x="188" />
<glyph unicode="&#x2039;" horiz-adv-x="339" d="M205 22l-183 222l185 236h112l-144 -236l143 -222h-113z" />
<glyph unicode="&#x203a;" horiz-adv-x="339" d="M21 22l143 222l-144 236h112l185 -236l-183 -222h-113z" />
<glyph unicode="&#x205f;" horiz-adv-x="235" />
<glyph unicode="&#x20ac;" horiz-adv-x="855" d="M39 248l62 63h490l-63 -63h-87q16 -52 56 -79t94 -27q92 0 217 68v-159q-94 -64 -226 -64t-219 70.5t-111 190.5h-213zM145 356l63 63h45q26 119 120 187.5t222 68.5q114 0 201 -51v-163q-115 59 -203 59q-51 0 -91.5 -25t-58.5 -76h255l-62 -63h-491z" />
<glyph unicode="&#x2122;" horiz-adv-x="926" d="M145 234v327h-102v104h416l159 -188l160 188h98v-431h-117v233l-11 -13q-10 -13 -40.5 -49.5t-71.5 -85.5h-34q-27 31 -49.5 57.5t-35.5 42.5t-21.5 27t-12.5 16l-4 5v-233h-118v327h-98v-327h-118z" />
<glyph unicode="&#x25fc;" horiz-adv-x="500" d="M0 500h500v-500h-500v500z" />
</font>
</defs>
</svg>
