<?xml version="1.0" standalone="no"?>
<!DOCTYPE svg PUBLIC "-//W3C//DTD SVG 1.1//EN" "http://www.w3.org/Graphics/SVG/1.1/DTD/svg11.dtd" >
<svg xmlns="http://www.w3.org/2000/svg">
<metadata></metadata>
<defs>
<font id="supranormal" horiz-adv-x="542" >
<font-face units-per-em="1000" ascent="750" descent="-250" />
<missing-glyph horiz-adv-x="255" />
<glyph unicode="&#xfb01;" horiz-adv-x="571" d="M99 0v415h-84v80h84v37q0 71 15 107q35 82 154 82q66 0 115 -21v-86q-46 23 -102 23q-74 0 -87 -39q-8 -23 -8 -84v-19h324v-495h-87v415h-237v-415h-87zM466 588q-24 0 -39.5 16.5t-15.5 40.5q0 25 15.5 42t39.5 17q23 0 38.5 -17.5t15.5 -41.5t-15.5 -40.5t-38.5 -16.5 z" />
<glyph unicode="&#xfb02;" horiz-adv-x="599" d="M99 0v414h-84v81h84v58q0 74 15 107q34 82 154 82q134 0 241 -37v-575q0 -31 4 -43q8 -17 35 -17q20 0 45 11v-78q-31 -13 -66 -13q-71 0 -94 51q-11 27 -11 88v509q-78 22 -141 22q-74 0 -87 -41q-8 -23 -8 -84v-40h132v-81h-132v-414h-87z" />
<glyph unicode="&#xfb03;" horiz-adv-x="898" d="M99 0v420h-84v77h84v32q0 66 15 101q34 82 154 82q66 0 115 -21v-79q-46 23 -102 23q-71 0 -87 -46q-8 -25 -8 -77v-15h233v56q0 74 15 107q34 82 154 82q66 0 115 -21v-79q-46 23 -102 23q-71 0 -86 -46q-8 -26 -8 -84v-38h319v-497h-87v420h-232v-420h-88v420h-233 v-420h-87zM780 579q-23 0 -39 16t-16 41q0 24 15.5 41t39.5 17q23 0 39 -17t16 -41t-16 -40.5t-39 -16.5z" />
<glyph unicode="&#xfb04;" horiz-adv-x="916" d="M99 0v420h-84v77h84v31q0 67 15 102q34 82 154 82q66 0 115 -21v-79q-46 23 -102 23q-71 0 -87 -46q-8 -25 -8 -78v-14h233v56q0 74 15 107q34 82 162 82q57 0 125 -13.5t105 -26.5v-572q0 -31 4 -43q8 -17 36 -17q19 0 44 11v-78q-31 -13 -66 -13q-71 0 -94 51 q-11 24 -11 88v516q-82 20 -130 20q-79 0 -94 -46q-8 -26 -8 -84v-38h149v-77h-149v-420h-88v420h-233v-420h-87z" />
<glyph horiz-adv-x="0" />
<glyph horiz-adv-x="0" />
<glyph horiz-adv-x="333" />
<glyph unicode="&#xd;" horiz-adv-x="255" />
<glyph unicode=" "  horiz-adv-x="255" />
<glyph unicode="&#x09;" horiz-adv-x="255" />
<glyph unicode="&#xa0;" horiz-adv-x="255" />
<glyph unicode="!" horiz-adv-x="253" d="M126 -9q-23 0 -39 17t-16 41q0 23 16.5 40t38.5 17t38 -17t16 -40q0 -24 -16 -41t-38 -17zM176 665l-22 -483h-58l-22 483h102z" />
<glyph unicode="&#x22;" horiz-adv-x="286" d="M46 360l-12 149v157h75v-156l-12 -150h-51zM178 360l-12 149v157h75v-156l-12 -150h-51z" />
<glyph unicode="#" horiz-adv-x="750" d="M109 0l57 174h-108l23 77h108l52 159h-108l24 77h107l58 178h74l-59 -178h148l58 178h74l-59 -178h113l-23 -77h-113l-51 -159h112l-23 -77h-113l-55 -174h-75l57 174h-147l-56 -174h-75zM264 251h146l52 159h-148z" />
<glyph unicode="$" horiz-adv-x="546" d="M310 -113h-61v102q-116 4 -207 54v101q105 -71 216 -71q147 0 147 108q0 37 -26 60t-92 50l-56 23q-86 35 -126.5 73.5t-40.5 111.5q0 75 49 121t136 54v99h61v-98q91 -5 164 -36v-97q-84 50 -180 50q-133 0 -133 -89q0 -23 8 -40.5t27.5 -30.5t36 -21t48.5 -20l60 -24 q84 -35 124 -75t40 -107q0 -85 -54 -134t-141 -59v-105z" />
<glyph unicode="%" horiz-adv-x="831" d="M135 -30l485 657h76l-485 -657h-76zM279 406q0 59 -22.5 98.5t-71.5 39.5q-48 0 -72 -40.5t-24 -97.5q0 -58 23.5 -98.5t72.5 -40.5t71.5 40t22.5 99zM343 406q0 -85 -42 -138.5t-118 -53.5t-117 53.5t-41 138.5q0 84 44 138.5t115 54.5q76 0 117.5 -53.5t41.5 -139.5z M742 186q0 59 -22.5 98.5t-71.5 39.5q-48 0 -72 -40.5t-24 -97.5q0 -58 23.5 -98.5t72.5 -40.5t71.5 40t22.5 99zM806 186q0 -85 -42 -138.5t-118 -53.5t-117 53.5t-41 138.5q0 84 44 138.5t115 54.5q76 0 117.5 -53.5t41.5 -139.5z" />
<glyph unicode="&#x26;" horiz-adv-x="755" d="M265 -11q-91 0 -157.5 49t-66.5 129q0 71 52 118.5t144 87.5q-5 5 -22.5 24t-23.5 26t-18.5 23.5t-17.5 27.5t-9.5 27t-4.5 33q0 63 55 102.5t138 39.5q79 0 133 -42t54 -100q0 -101 -162 -185l132 -137q3 3 28 33t32 37t29.5 30.5t35 31.5t33.5 21t41 17.5t42 4.5v-85 q-25 0 -55 -19.5t-46.5 -37t-47.5 -56t-35 -43.5l137 -146h-106l-83 87q-96 -98 -231 -98zM270 77q94 0 165 78l-153 161q-73 -31 -114.5 -65t-41.5 -78q0 -42 43.5 -69t100.5 -27zM313 404q130 54 130 123q0 31 -29 51.5t-78 20.5q-51 0 -78.5 -19.5t-27.5 -53.5 q0 -45 83 -122z" />
<glyph unicode="'" horiz-adv-x="155" d="M34 666h75v-156l-12 -150h-51l-12 149v157z" />
<glyph unicode="(" horiz-adv-x="321" d="M172 737h65q-124 -222 -124 -461q0 -223 122 -447h-64q-140 209 -140 450q0 124 36.5 243t104.5 215z" />
<glyph unicode=")" horiz-adv-x="321" d="M83 737h67q68 -96 104 -214.5t36 -241.5q0 -244 -139 -452h-66q123 226 123 449q0 235 -125 459z" />
<glyph unicode="*" horiz-adv-x="373" d="M250 399q-7 0 -14 3.5t-13 10.5t-10 14t-9 18t-7.5 17.5t-6 17.5t-4.5 14q0 -1 -3 -9l-4.5 -12t-5 -13.5t-6 -14.5t-7 -13t-8.5 -13t-9 -9.5t-10 -7t-11 -2.5q-13 0 -23.5 9.5t-10.5 23.5q0 10 9 23t18.5 21.5t24.5 21t19 15.5q-79 0 -101 16q-12 9 -12 24 q0 13 10.5 23.5t24.5 10.5q13 0 27.5 -6.5t35.5 -19.5t27 -16q-18 50 -18 88q0 14 9.5 24.5t23.5 10.5q15 0 24.5 -10t9.5 -24q0 -39 -18 -89q3 2 20 12t26 14.5t22.5 9.5t23.5 5q13 0 23 -10t10 -25q0 -25 -27 -32q-21 -6 -86 -6q2 -2 11.5 -9.5t15 -12.5t14.5 -13.5 t14.5 -15.5t9.5 -15.5t4 -15.5q0 -13 -10 -23t-23 -10z" />
<glyph unicode="+" horiz-adv-x="455" d="M192 59v152h-152v78h152v146h72v-146h151v-78h-151v-152h-72z" />
<glyph unicode="," horiz-adv-x="231" d="M67 -176l-66 22q33 51 56 123.5t23 149.5l91 -6q-3 -84 -33.5 -162t-70.5 -127z" />
<glyph unicode="-" horiz-adv-x="332" d="M44 210v81h245v-81h-245z" />
<glyph unicode="." horiz-adv-x="231" d="M115 -10q-24 0 -40.5 17.5t-16.5 42.5t16.5 42.5t40.5 17.5t41 -17.5t17 -42.5t-17 -42.5t-41 -17.5z" />
<glyph unicode="/" horiz-adv-x="354" d="M74 -98h-80l281 799h80z" />
<glyph unicode="0" d="M413 295q0 62 -12 110t-45 81t-84 33q-73 0 -108.5 -65t-35.5 -159q0 -95 34.5 -159.5t108.5 -64.5t108 64.5t34 159.5zM503 296q0 -135 -62.5 -221t-172.5 -86q-108 0 -168.5 86t-60.5 221q0 132 66 219t167 87q110 0 170.5 -85t60.5 -221z" />
<glyph unicode="1" d="M461 0h-333v82h125v374q-8 -14 -38.5 -35t-57.5 -35l-27 -13v91q100 58 158 132h53v-514h120v-82z" />
<glyph unicode="2" d="M481 0h-443v43q201 175 295 281q46 52 46 96q0 52 -40 75.5t-88 23.5q-80 0 -172 -59v85q87 56 187 56q88 0 148.5 -44t60.5 -134q0 -79 -72 -155q-66 -66 -210 -189q42 3 288 3v-82z" />
<glyph unicode="3" d="M265 -10q-106 0 -201 43v85q106 -46 182 -46q49 0 84.5 26.5t35.5 81.5q0 51 -43 74t-110 23v61q67 0 104.5 25t37.5 64q0 48 -35 70t-81 22q-69 0 -163 -45v84q86 43 181 43q46 0 87 -12.5t74 -49t33 -91.5q0 -51 -31 -86.5t-78 -44.5l4 -2q54 -11 87 -51t33 -97 q0 -40 -15 -72t-37 -51t-50.5 -32t-52.5 -17.5t-46 -4.5z" />
<glyph unicode="4" d="M436 0h-89v121h-307v62l290 412h105q-23 -32 -126 -176t-161 -221q34 3 201 3v132l87 124v-256h72v-80h-72v-121z" />
<glyph unicode="5" d="M262 -10q-104 0 -191 42v89q101 -49 178 -49q19 0 40.5 5t48 18t43.5 41t17 68q0 46 -29.5 78.5t-95.5 32.5q-78 0 -167 -53l-27 27l15 306h358l-38 -82h-243q-6 -155 -7 -161q55 30 129 30q97 0 148.5 -52.5t51.5 -130.5q0 -99 -66 -154t-165 -55z" />
<glyph unicode="6" d="M288 -10q-138 0 -202 108q-43 73 -43 186q0 78 26.5 148t88.5 119.5t148 49.5q84 0 163 -31v-85q-78 35 -149 35q-160 0 -185 -187q-2 -18 -2 -52q19 42 69.5 67.5t105.5 25.5q86 0 147.5 -48t61.5 -137q0 -93 -66.5 -146t-162.5 -53zM283 73q68 0 106 33.5t38 85.5 q0 51 -35.5 82.5t-101.5 31.5q-64 0 -104 -35t-40 -79q0 -53 42.5 -86t94.5 -33z" />
<glyph unicode="7" d="M278 0h-90q0 120 52.5 268t137.5 251q-57 -4 -330 -4v80h438v-34q-91 -105 -149 -259t-59 -302z" />
<glyph unicode="8" d="M272 -9q-99 0 -160 50t-61 122q0 49 31.5 89t86.5 59q-49 19 -76.5 54t-27.5 77q0 68 56 114t149 46t150.5 -45t57.5 -111q0 -43 -26.5 -78.5t-75.5 -56.5q56 -18 86 -57t30 -88q0 -75 -60 -125t-160 -50zM272 70q61 0 97.5 31t36.5 80q0 43 -39.5 70t-95.5 27t-95 -28.5 t-39 -71.5q0 -46 37.5 -77t97.5 -31zM272 341q56 0 89 26t33 69q0 41 -34 67t-89 26t-88.5 -27t-33.5 -69q0 -41 33.5 -66.5t89.5 -25.5z" />
<glyph unicode="9" d="M245 -10q-50 0 -89.5 8t-57 15t-43.5 21v86q80 -51 175 -51q131 0 175 130q17 52 11 110q-19 -43 -68.5 -68.5t-105.5 -25.5q-86 0 -147.5 48t-61.5 136q0 93 67 147.5t159 54.5q136 0 204 -109q44 -71 44 -187q0 -80 -27.5 -150t-89 -117.5t-145.5 -47.5zM260 279 q65 0 104.5 36.5t39.5 81.5q0 50 -37 86.5t-102 36.5q-66 0 -103.5 -36t-37.5 -87q0 -49 34 -83.5t102 -34.5z" />
<glyph unicode=":" horiz-adv-x="251" d="M135 -12q-24 0 -40.5 17.5t-16.5 42.5q0 26 16.5 43.5t40.5 17.5t41 -18t17 -43t-17 -42.5t-41 -17.5zM135 372q-24 0 -40.5 18t-16.5 43t16.5 42.5t40.5 17.5t41 -17.5t17 -42.5t-17 -43t-41 -18z" />
<glyph unicode=";" horiz-adv-x="251" d="M87 -176l-66 22q33 51 56 123.5t23 149.5l91 -6q-3 -84 -33.5 -162t-70.5 -127zM140 372q-23 0 -40 18t-17 43t17 42.5t40 17.5q24 0 41 -17.5t17 -42.5t-17 -43t-41 -18z" />
<glyph unicode="&#x3c;" horiz-adv-x="471" d="M427 133v-100l-383 201v50l383 200v-100l-252 -126z" />
<glyph unicode="=" horiz-adv-x="489" d="M36 171v78h417v-78h-417zM36 325v77h417v-77h-417z" />
<glyph unicode="&#x3e;" horiz-adv-x="471" d="M44 33v100l252 125l-252 126v100l383 -200v-50z" />
<glyph unicode="?" horiz-adv-x="364" d="M147 -9q-22 0 -38 17t-16 41q0 23 16 40t38 17t38.5 -17t16.5 -40q0 -24 -16 -41t-39 -17zM112 183q-17 64 -17 90q0 32 14.5 57t45.5 59q82 89 82 135q0 71 -78 71q-22 0 -49 -8t-44 -16l-16 -8v85q64 28 122 28q73 0 119 -35t46 -103q0 -28 -19 -62.5t-35 -52.5 t-44 -47l-20.5 -20.5t-19 -19.5t-14 -16.5t-11.5 -18.5t-6 -19t-3 -24q0 -31 8 -75h-61z" />
<glyph unicode="@" horiz-adv-x="1004" d="M437 -10q-77 0 -119 41.5t-42 101.5q0 83 86 124q81 39 238 39q0 69 -8 92q-17 42 -91 42q-89 0 -183 -51v78q95 50 194 50q140 0 166 -95q10 -36 10 -111v-186q0 -21 10 -35t31 -14q64 0 97.5 67.5t33.5 143.5q0 141 -99.5 238.5t-253.5 97.5q-152 0 -258 -102 t-106 -251q0 -152 108 -260h-88q-94 112 -94 258q0 178 128 300t311 122q184 0 304.5 -118t120.5 -287q0 -117 -60.5 -200.5t-162.5 -83.5q-34 0 -67 18t-36 58q-22 -29 -68.5 -53t-101.5 -24zM454 60q83 0 132 60q15 20 15 57v60q-130 0 -192 -32q-49 -25 -49 -68 q0 -41 27 -59t67 -18z" />
<glyph unicode="A" horiz-adv-x="648" d="M642 0h-102l-75 183h-284l-75 -183h-100l271 665h95zM435 271q-66 162 -113 288q-6 -23 -112 -288h225z" />
<glyph unicode="B" horiz-adv-x="616" d="M305 0h-225v665q2 0 83.5 1.5t128.5 1.5q142 0 197 -48q52 -46 52 -121q0 -46 -30 -91.5t-90 -61.5q69 -8 112 -49t43 -116q0 -50 -24.5 -88.5t-64.5 -58.5q-64 -34 -182 -34zM172 89h128q87 0 129 23q27 15 39 30.5t12 46.5q0 71 -81 95q-38 11 -101 11h-126v-206z M172 381h130q65 0 94 17q53 32 53 86q0 96 -156 96q-10 0 -26 -0.5t-31.5 -1t-30 -0.5h-23.5l-10 -1v-196z" />
<glyph unicode="C" horiz-adv-x="655" d="M623 42q-104 -54 -245 -54q-162 0 -250 98.5t-88 246.5q0 157 100.5 250.5t246.5 93.5q124 0 226 -45v-95q-99 51 -220 51q-111 0 -185 -67t-74 -190q0 -116 70.5 -185t188.5 -69q68 0 130.5 19t99.5 39v-93z" />
<glyph unicode="D" horiz-adv-x="715" d="M80 0v665q145 3 228 3q123 0 198 -34q170 -75 170 -296q0 -105 -53 -190.5t-146 -120.5q-74 -27 -196 -27h-201zM172 89h120q105 0 154 24q63 26 99 85.5t36 139.5q0 122 -69.5 182.5t-194.5 60.5q-13 0 -145 -3v-489z" />
<glyph unicode="E" horiz-adv-x="537" d="M491 89v-89h-411v665h391v-87h-300v-195h279v-88h-279v-206h320z" />
<glyph unicode="F" horiz-adv-x="491" d="M171 0h-91v665h390v-87h-299v-197h259v-88h-259v-293z" />
<glyph unicode="G" horiz-adv-x="692" d="M634 47q-121 -59 -245 -59q-171 0 -260.5 98t-89.5 247q0 156 100 250t248 94q130 0 231 -45v-92q-113 48 -229 48q-111 0 -183.5 -67.5t-72.5 -189.5q0 -118 70 -186t186 -68q78 0 156 32v141h-159v89h248v-292z" />
<glyph unicode="H" horiz-adv-x="717" d="M637 0h-93v295h-372v-295h-92v665h92v-282h372v282h93v-665z" />
<glyph unicode="I" horiz-adv-x="252" d="M172 0h-93v665h93v-665z" />
<glyph unicode="J" horiz-adv-x="411" d="M30 3v89q45 -15 97 -15q75 0 98 52q15 31 15 92v356h-196v88h288v-453q0 -77 -18 -122q-40 -101 -167 -101q-73 0 -117 14z" />
<glyph unicode="K" horiz-adv-x="585" d="M585 0h-123l-290 322v-322h-92v665h92v-299l277 299h111l-293 -312z" />
<glyph unicode="L" horiz-adv-x="493" d="M481 0h-401v665h92v-576h309v-89z" />
<glyph unicode="M" horiz-adv-x="793" d="M713 0h-93v513q-33 -54 -213 -299h-20q-51 69 -91.5 125t-62.5 87t-36.5 52t-19.5 28l-5 7v-513h-92v665h89l229 -319l227 319h88v-665z" />
<glyph unicode="N" horiz-adv-x="712" d="M645 0h-70q-167 197 -271.5 322t-125.5 152l-20 26v-500h-92v665h77q164 -194 267 -317.5t124 -149.5l20 -27v494h91v-665z" />
<glyph unicode="O" horiz-adv-x="757" d="M374 -12q-155 0 -245 100t-90 245q0 154 99 249t245 95q145 0 240.5 -92.5t95.5 -247.5q0 -146 -94 -247.5t-251 -101.5zM379 77q107 0 175.5 70t68.5 186q0 119 -69 187t-174 68q-109 0 -177.5 -69t-68.5 -186q0 -115 68 -185.5t177 -70.5z" />
<glyph unicode="P" horiz-adv-x="565" d="M172 0h-93v665q185 4 222 4q113 0 172 -41q71 -47 71 -154q0 -56 -26 -105t-70 -74q-59 -33 -151 -33h-125v-262zM172 350h113q80 0 116 25q47 33 47 96q0 61 -40.5 85t-114.5 24l-121 -3v-227z" />
<glyph unicode="Q" horiz-adv-x="758" d="M374 -12q-155 0 -245 100t-90 245q0 154 99 249t245 95q145 0 240.5 -92.5t95.5 -247.5q0 -146 -94 -247.5t-251 -101.5zM379 77q107 0 175.5 70t68.5 186q0 119 -69 187t-174 68q-109 0 -177.5 -69t-68.5 -186q0 -115 68 -185.5t177 -70.5zM355 -99l19 86l239 -51 l-19 -86z" />
<glyph unicode="R" horiz-adv-x="633" d="M629 0h-111l-106 171q-37 59 -63 78q-35 27 -91 27h-86v-276h-92v666q165 4 202 4q105 0 157 -21q49 -20 77 -64.5t28 -103.5q0 -86 -67 -137q-32 -25 -81 -34q27 -6 52 -30q24 -26 49 -66zM172 364h123q64 0 96 18q58 31 58 92q0 68 -67 96q-29 12 -102 12l-108 -4v-214 z" />
<glyph unicode="S" horiz-adv-x="530" d="M37 44v101q103 -68 215 -68q148 0 148 102q0 37 -26.5 59.5t-92.5 49.5l-56 23q-85 34 -126 73.5t-41 113.5q0 83 59 130.5t159 47.5q109 0 198 -39v-97q-85 47 -186 47q-132 0 -132 -85q0 -23 8 -40.5t27 -31t35.5 -21.5t48.5 -21l61 -24q85 -34 124 -73.5t39 -107.5 q0 -97 -67 -145.5t-175 -48.5q-120 0 -220 55z" />
<glyph unicode="T" horiz-adv-x="569" d="M330 0h-92v578h-214v87h520v-87h-214v-578z" />
<glyph unicode="U" horiz-adv-x="710" d="M652 665v-371q0 -68 -9 -104q-24 -95 -96.5 -148.5t-182.5 -53.5q-117 0 -190.5 56t-88.5 151q-6 42 -6 94v376h93v-372q0 -48 4 -77q10 -66 60.5 -102.5t129.5 -36.5q74 0 123 34t63 95q7 27 7 87v372h93z" />
<glyph unicode="V" horiz-adv-x="633" d="M361 0h-91l-267 665h103q210 -533 213 -541q35 94 211 541h100z" />
<glyph unicode="W" horiz-adv-x="952" d="M312 0h-88l-213 665h102q98 -300 164 -523q43 151 163 523h74q97 -292 166 -523q77 255 163 523h99l-216 -665h-86q-121 359 -165 507q-86 -275 -163 -507z" />
<glyph unicode="X" horiz-adv-x="669" d="M120 0h-109l259 349l-236 316h113q50 -66 94 -125t63 -84.5t34 -43.5q8 10 28.5 38t62.5 84.5t98 130.5h107l-238 -316l262 -349h-113q-50 66 -100.5 133t-73.5 97.5t-41 52.5q-17 -21 -79 -106t-131 -177z" />
<glyph unicode="Y" horiz-adv-x="618" d="M354 0h-92v257l-262 408h107q201 -314 203 -317q17 26 36 56t64.5 100.5t102.5 160.5h105l-264 -408v-257z" />
<glyph unicode="Z" horiz-adv-x="600" d="M580 0h-557v63q383 464 425 517q-125 -2 -402 -2v87h528v-68q-373 -454 -421 -510q134 2 427 2v-89z" />
<glyph unicode="[" horiz-adv-x="253" d="M222 -121v-50h-191v908h191v-50h-118v-808h118z" />
<glyph unicode="\" horiz-adv-x="354" d="M328 0h-80l-233 665h79z" />
<glyph unicode="]" horiz-adv-x="253" d="M31 -171v50h118v808h-118v50h191v-908h-191z" />
<glyph unicode="^" horiz-adv-x="517" d="M134 323l-66 36l191 303l190 -301l-66 -37l-124 195z" />
<glyph unicode="_" horiz-adv-x="389" d="M-11 -156v77h410v-77h-410z" />
<glyph unicode="`" horiz-adv-x="360" d="M281 596l-47 -35q-102 69 -162 176l74 38q57 -114 135 -179z" />
<glyph unicode="a" horiz-adv-x="531" d="M522 6q-37 -16 -78 -16q-29 0 -51 17.5t-25 59.5q-59 -77 -170 -77q-76 0 -118.5 42t-42.5 101q0 92 83 130q84 39 241 39v17q0 42 -8 66q-15 40 -93 40q-91 0 -181 -51v85q91 48 192 48q142 0 168 -94q10 -37 10 -112v-191q0 -22 4 -30q5 -12 25 -12q22 0 44 9v-71z M215 71q80 0 132 63q14 17 14 58v37q-142 0 -192 -24q-48 -23 -48 -67q0 -67 94 -67z" />
<glyph unicode="b" horiz-adv-x="589" d="M76 25v712h87v-330q25 45 74 71.5t104 26.5q101 0 156 -63.5t55 -178.5q0 -74 -24 -129t-65 -85.5t-88.5 -44.5t-101.5 -14q-92 0 -197 35zM165 93q52 -21 116 -21q80 0 130.5 45t50.5 140q0 81 -38 123t-109 42q-75 0 -127 -70q-23 -32 -23 -91v-168z" />
<glyph unicode="c" horiz-adv-x="488" d="M449 33q-73 -44 -165 -44q-119 0 -182.5 70.5t-63.5 188.5q0 119 71.5 190t187.5 71q80 0 142 -28v-88q-70 34 -136 34q-88 0 -131.5 -51.5t-43.5 -125.5q0 -84 43 -131.5t126 -47.5q81 0 152 48v-86z" />
<glyph unicode="d" horiz-adv-x="590" d="M514 0h-84v84q-24 -42 -71 -68.5t-107 -26.5q-111 0 -162.5 68.5t-51.5 178.5q0 116 67 192t196 76q68 0 125 -19v252h88v-737zM426 401q-43 22 -117 22q-88 0 -134.5 -48.5t-46.5 -132.5q0 -79 37 -125t111 -46q38 0 72.5 19.5t51.5 45.5q26 42 26 89v176z" />
<glyph unicode="e" horiz-adv-x="558" d="M501 48q-94 -59 -208 -59q-121 0 -188 72t-67 189q0 110 69 184t187 74q109 0 169.5 -63t60.5 -174q0 -37 -1 -47h-396q1 -65 48 -109t126 -44q48 0 89 11t59 21t52 32v-87zM132 299h307q0 57 -39.5 94.5t-106.5 37.5q-68 0 -111.5 -36t-49.5 -96z" />
<glyph unicode="f" horiz-adv-x="323" d="M186 0h-87v415h-84v80h84v58q0 75 15 108q34 81 151 81q64 0 118 -21v-86q-59 26 -105 26q-70 0 -84 -42q-8 -23 -8 -84v-40h132v-80h-132v-415z" />
<glyph unicode="g" horiz-adv-x="541" d="M266 -255q-109 0 -173.5 38t-64.5 104q0 88 125 124q-34 6 -51 27.5t-17 49.5q0 45 71 71q-49 21 -72.5 63.5t-23.5 95.5q0 77 59 127t157 50h252v-72q-84 0 -104 2q52 -30 52 -105t-58 -128t-143 -53q-7 0 -23 0.5t-21 0.5q-30 -6 -44 -14t-14 -25q0 -22 24 -31t80 -13 q131 -8 187 -33q64 -29 64 -109q0 -74 -71.5 -122t-190.5 -48zM275 -179q74 0 116.5 22.5t42.5 65.5q0 31 -30 49q-35 23 -142 23q-37 0 -56 -5q-90 -25 -90 -79q0 -76 159 -76zM269 214q57 0 88.5 29.5t31.5 77.5q0 104 -121 104q-59 0 -90 -31t-31 -76q0 -50 31.5 -77 t90.5 -27z" />
<glyph unicode="h" horiz-adv-x="597" d="M526 0h-88v282q0 67 -18 97q-26 47 -99 47q-35 0 -73 -22t-61 -56q-22 -34 -22 -85v-263h-89v737h88v-331q24 43 74 71.5t109 28.5q116 0 158 -80q21 -38 21 -120v-306z" />
<glyph unicode="i" horiz-adv-x="235" d="M76 0v495h88v-495h-88zM120 588q-24 0 -39.5 16.5t-15.5 40.5q0 25 15.5 42t39.5 17q23 0 38.5 -17.5t15.5 -41.5t-15.5 -40.5t-38.5 -16.5z" />
<glyph unicode="j" horiz-adv-x="240" d="M-49 -250v78q30 -6 46 -6q62 0 74 65q5 29 5 75v533h88v-549q0 -63 -13 -101q-35 -102 -136 -102q-40 0 -64 7zM120 588q-24 0 -39.5 16t-15.5 41t15.5 42t39.5 17t39 -17t15 -42t-15.5 -41t-38.5 -16z" />
<glyph unicode="k" horiz-adv-x="522" d="M519 0h-118l-235 237v-237h-90v737h89v-448l212 206h114l-238 -224z" />
<glyph unicode="l" horiz-adv-x="253" d="M247 3q-31 -13 -66 -13q-71 0 -94 51q-11 24 -11 88v608h87v-605q0 -31 4 -43q8 -17 36 -17q19 0 44 11v-80z" />
<glyph unicode="m" horiz-adv-x="933" d="M165 0h-89v495h87v-89q24 43 72.5 71.5t105.5 28.5q134 0 163 -109q27 48 77 78.5t109 30.5q111 0 152 -80q21 -41 21 -120v-306h-88v279q0 73 -15 102q-23 44 -97 44q-36 0 -70 -18.5t-57 -52.5q-22 -33 -22 -82v-272h-88v280q0 68 -17 98q-28 47 -95 47 q-36 0 -70 -18.5t-57 -52.5q-22 -32 -22 -81v-273z" />
<glyph unicode="n" horiz-adv-x="596" d="M165 0h-89v495h87v-89q22 43 73.5 71.5t112.5 28.5q114 0 156 -80q21 -38 21 -120v-306h-88v282q0 66 -18 96q-27 47 -99 47q-37 0 -75 -18.5t-59 -52.5q-22 -32 -22 -81v-273z" />
<glyph unicode="o" horiz-adv-x="596" d="M559 250q0 -114 -73 -187.5t-189 -73.5q-117 0 -188 71t-71 187q0 113 72 187.5t189 74.5q119 0 189.5 -72.5t70.5 -186.5zM469 249q0 75 -43 126.5t-127 51.5t-128 -52.5t-44 -127.5q0 -76 45 -126t127 -50q80 0 125 52.5t45 125.5z" />
<glyph unicode="p" horiz-adv-x="590" d="M165 -237h-89v734h85v-85q28 44 77.5 68.5t100.5 24.5q100 0 156.5 -62t56.5 -179q0 -72 -23 -126.5t-62.5 -85.5t-86 -46.5t-98.5 -15.5q-51 0 -117 16v-243zM165 92q52 -21 113 -21q80 0 132 45.5t52 139.5q0 167 -149 167q-36 0 -69.5 -17.5t-54.5 -45.5 q-24 -32 -24 -83v-185z" />
<glyph unicode="q" horiz-adv-x="590" d="M426 84q-26 -46 -72 -70t-98 -24q-104 0 -161 63t-57 178q0 128 73.5 200.5t192.5 72.5q104 0 210 -33v-708h-88v321zM426 401q-51 22 -114 22q-81 0 -132.5 -44t-51.5 -140q0 -85 40.5 -126.5t111.5 -41.5q36 0 69 20.5t53 50.5q24 37 24 83v176z" />
<glyph unicode="r" horiz-adv-x="426" d="M165 0h-89v497h87v-100q18 46 60 77t99 31q62 0 104 -30l-45 -80q-36 28 -83 28q-45 0 -81 -37t-44 -74q-8 -40 -8 -109v-203z" />
<glyph unicode="s" horiz-adv-x="459" d="M45 29v92q86 -50 174 -50q104 0 104 71q0 23 -18 35t-67 30l-62 22q-58 22 -87.5 54t-29.5 84q0 66 47 103t137 37q79 0 151 -28v-90q-77 36 -149 36q-95 0 -95 -64q0 -21 14.5 -33t56.5 -27l57 -22q75 -28 106 -57.5t31 -83.5q0 -73 -52.5 -110.5t-144.5 -37.5 q-98 0 -173 39z" />
<glyph unicode="t" horiz-adv-x="359" d="M353 11q-50 -23 -112 -23q-108 0 -139 88q-14 39 -14 124v213h-81v82h81l2 129l85 27v-156h153v-82h-153v-206q0 -60 7 -86q13 -50 76 -50q48 0 95 22v-82z" />
<glyph unicode="u" horiz-adv-x="594" d="M525 495v-276q0 -84 -27 -134q-53 -96 -202 -96q-156 0 -203 94q-23 46 -23 136v276h88v-274q0 -67 20 -100q32 -51 119 -51q84 0 119 53q20 31 20 98v274h89z" />
<glyph unicode="v" horiz-adv-x="516" d="M298 0h-81l-216 495h98q135 -313 162 -385q32 85 160 385h93z" />
<glyph unicode="w" horiz-adv-x="793" d="M264 0h-79l-176 495h99q102 -286 127 -377q21 74 132 377h65q108 -295 133 -376q23 84 125 376h94l-178 -495h-77q-102 268 -132 367q-43 -131 -133 -367z" />
<glyph unicode="x" horiz-adv-x="515" d="M107 0h-101l197 256l-184 239h106q40 -52 73 -94.5t44.5 -57.5t18.5 -26q29 39 137 178h101l-185 -235l198 -260h-103q-124 158 -151 197q-3 -3 -151 -197z" />
<glyph unicode="y" horiz-adv-x="524" d="M11 -239v82q40 -18 84 -18q50 0 74 35q23 33 42 82l23 58h-17l-212 495h99q131 -301 168 -410q16 49 152 410h95l-229 -576q-30 -74 -55 -109q-45 -62 -130 -62q-56 0 -94 13z" />
<glyph unicode="z" horiz-adv-x="512" d="M471 0h-438v55l301 359q-177 -3 -284 -3v84h414v-58l-300 -358q78 2 307 2v-81z" />
<glyph unicode="{" horiz-adv-x="337" d="M307 -123v-51q-209 16 -209 252q0 45 -1.5 66t-8 49.5t-23.5 47t-45 35.5q53 37 65.5 77t12.5 119q0 118 51.5 187.5t157.5 76.5v-51q-136 0 -136 -213q0 -80 -10.5 -121.5t-48.5 -71.5q40 -31 50.5 -73.5t10.5 -127.5q0 -99 34.5 -150t99.5 -51z" />
<glyph unicode="|" horiz-adv-x="227" d="M151 -138h-74v909h74v-909z" />
<glyph unicode="}" horiz-adv-x="337" d="M31 -174v51q64 0 99 51t35 150q0 86 10 128t50 73q-38 30 -48.5 71.5t-10.5 121.5q0 213 -135 213v51q106 -7 157.5 -76.5t51.5 -187.5q0 -41 1.5 -61t8 -47.5t23.5 -47.5t45 -40q-29 -17 -45.5 -35.5t-23.5 -47t-8.5 -49.5t-1.5 -66q0 -235 -208 -252z" />
<glyph unicode="~" horiz-adv-x="482" d="M82 258h-49q10 57 42 98.5t81 41.5q31 0 107 -27q8 -3 19.5 -7.5t18 -6.5t15 -4t15.5 -2q24 0 36.5 11.5t28.5 42.5h55q-14 -59 -45.5 -99.5t-77.5 -40.5q-33 0 -111 28q-53 20 -67 20q-44 0 -68 -55z" />
<glyph unicode="&#xa1;" horiz-adv-x="253" d="M126 507q22 0 38 -17t16 -41q0 -23 -16 -40t-38 -17t-38.5 17t-16.5 40q0 24 16 41t39 17zM154 316l22 -483h-102l22 483h58z" />
<glyph unicode="&#xa2;" horiz-adv-x="488" d="M262 -116v107q-108 7 -166 75t-58 179q0 107 62 177t162 81v105h60v-103q56 -2 117 -26v-89q-76 33 -144 33q-83 0 -125 -53.5t-42 -122.5q0 -77 41 -126.5t120 -49.5t158 43v-83q-62 -33 -125 -39v-108h-60z" />
<glyph unicode="&#xa3;" horiz-adv-x="629" d="M130 0v307h-66v77h66v79q0 99 65.5 155t163.5 56q77 0 185 -32v-89q-4 1 -21.5 7.5t-29.5 10t-32 8t-42 7t-46 2.5q-155 0 -155 -136v-68h165v-77h-165v-218h350v-89h-438z" />
<glyph unicode="&#xa4;" horiz-adv-x="513" d="M80 3l-38 39l62 63q-42 54 -42 122q0 66 41 122l-62 62l39 39l60 -62q51 42 123 42t122 -41l60 62l38 -40l-61 -62q41 -52 41 -122t-42 -122l61 -63l-37 -38l-60 61q-53 -41 -122 -41t-123 41zM263 80q63 0 104.5 42t41.5 105q0 64 -41.5 106.5t-104.5 42.5 q-62 0 -105 -43t-43 -105q0 -63 42 -105.5t106 -42.5z" />
<glyph unicode="&#xa5;" horiz-adv-x="652" d="M282 0v123h-186v49h186v95h-186v50h146l-228 348h110q12 -22 63 -100t97 -145l45 -67q177 263 205 312h108l-229 -348h145v-50h-183v-95h183v-49h-184v-123h-92z" />
<glyph unicode="&#xa6;" horiz-adv-x="227" d="M150 377h-73v374h73v-374zM150 -138h-73v375h73v-375z" />
<glyph unicode="&#xa7;" horiz-adv-x="530" d="M33 -201v97q107 -79 216 -79q67 0 107 27t40 82q0 40 -25.5 62.5t-91.5 49.5l-56 23q-87 36 -129 74.5t-42 109.5q0 79 62 128q-59 46 -59 126q0 81 62 128.5t156 47.5q99 0 191 -47v-91q-98 55 -179 55q-56 0 -94 -21.5t-38 -67.5q0 -43 30.5 -66.5t92.5 -47.5l60 -23 q80 -31 121 -72t41 -110q0 -83 -54 -135q52 -47 52 -119q0 -95 -68.5 -145.5t-173.5 -50.5q-64 0 -124 19.5t-97 45.5zM364 97q45 26 45 80q0 41 -26.5 65t-91.5 49q-78 29 -98 38q-56 -24 -56 -75q0 -23 8.5 -40.5t29.5 -31.5t37.5 -22t49.5 -22q25 -11 49 -20t35 -13 t18 -8z" />
<glyph unicode="&#xa8;" horiz-adv-x="427" d="M126 581q-21 0 -36 15t-15 37t14.5 37.5t36.5 15.5q21 0 35.5 -16t14.5 -37q0 -22 -14.5 -37t-35.5 -15zM304 581q-22 0 -36.5 15t-14.5 37t14.5 37.5t36.5 15.5q21 0 35.5 -16t14.5 -37q0 -22 -14.5 -37t-35.5 -15z" />
<glyph unicode="&#xa9;" horiz-adv-x="812" d="M748 332q0 -141 -100.5 -241.5t-240.5 -100.5q-142 0 -242.5 100.5t-100.5 241.5q0 142 100.5 242t242.5 100q141 0 241 -100t100 -242zM695 331q0 120 -84.5 204t-204.5 84t-204.5 -84t-84.5 -204q0 -119 84.5 -202.5t204.5 -83.5q121 0 205 83.5t84 202.5zM556 147 q-74 -40 -153 -40q-106 0 -160 60t-54 163q0 106 62 167.5t165 61.5q57 0 132 -28v-68q-66 34 -128 34q-79 0 -118 -48.5t-39 -116.5q0 -75 38 -118.5t113 -43.5t142 41v-64z" />
<glyph unicode="&#xaa;" horiz-adv-x="483" d="M412 342q-22 -12 -49 -12q-47 0 -51 50q-14 -19 -44 -34.5t-67 -15.5q-50 0 -77.5 27.5t-27.5 66.5q0 54 56 80q51 25 156 28v18q0 24 -6 40q-11 29 -58 29q-54 0 -121 -35v54q64 32 128 32q93 0 110 -62q7 -21 7 -74v-124q0 -12 3 -18q4 -9 15 -9q6 0 26 6v-47zM308 490 q-82 0 -123 -21q-32 -17 -32 -42q0 -47 61 -47q53 0 85 38q9 12 9 35v37z" />
<glyph unicode="&#xab;" horiz-adv-x="461" d="M182 69l-160 172l163 189h74l-137 -189l134 -172h-74zM347 69l-159 172l163 189h74l-138 -189l135 -172h-75z" />
<glyph unicode="&#xac;" horiz-adv-x="388" d="M275 123v125h-233v73h304v-198h-71z" />
<glyph unicode="&#xad;" horiz-adv-x="354" d="M49 203v79h255v-79h-255z" />
<glyph unicode="&#xae;" horiz-adv-x="812" d="M407 -10q-142 0 -242.5 100.5t-100.5 241.5q0 142 100.5 242t242.5 100q141 0 241 -100t100 -242q0 -141 -100.5 -241.5t-240.5 -100.5zM406 45q115 0 202 83t87 203t-84.5 204t-204.5 84t-204.5 -84t-84.5 -204q0 -119 84.5 -202.5t204.5 -83.5zM257 124v432 q128 4 152 4q50 0 81 -12q33 -13 54 -44t21 -70q0 -58 -42 -95q-21 -16 -56 -22q16 -4 33 -19q16 -16 27 -38l71 -136h-63l-56 109q-21 41 -40 55q-24 18 -62 18h-64v-182h-56zM313 353h88q44 0 65 11q41 27 41 69q0 53 -48 72q-19 7 -56 7l-90 -3v-156z" />
<glyph unicode="&#xaf;" horiz-adv-x="391" d="M55 590v69h282v-69h-282z" />
<glyph unicode="&#xb0;" horiz-adv-x="341" d="M43 537q0 53 37.5 91t89.5 38t89.5 -38t37.5 -91q0 -52 -37.5 -90t-89.5 -38t-89.5 38t-37.5 90zM106 539q0 -27 19.5 -46.5t46.5 -19.5t46.5 19.5t19.5 46.5t-19.5 46.5t-46.5 19.5t-46.5 -19.5t-19.5 -46.5z" />
<glyph unicode="&#xb1;" horiz-adv-x="465" d="M46 -11v79h374v-79h-374zM197 107v152h-151v78h151v146h73v-146h150v-78h-150v-152h-73z" />
<glyph unicode="&#xb2;" horiz-adv-x="372" d="M177 713q-48 0 -108 -39v60q55 35 118 35q56 0 96 -28t40 -84q0 -53 -41 -96q-23 -23 -33 -31l-101 -86q149 1 178 1v-55h-283v31q138 123 151 136l29 29q32 32 32 66q0 32 -24 46.5t-54 14.5z" />
<glyph unicode="&#xb3;" horiz-adv-x="359" d="M178 384q-68 0 -127 28v55q67 -29 114 -29q31 0 53.5 16t22.5 50q0 61 -96 61v39q44 0 67 15.5t23 40.5q0 30 -22.5 42.5t-50.5 12.5q-50 0 -103 -30v57q54 27 113 27q52 0 92 -23t40 -73q0 -32 -21.5 -54.5t-51.5 -28.5l3 -1q35 -7 57 -31.5t22 -59.5q0 -41 -25.5 -68.5 t-53.5 -36.5t-56 -9z" />
<glyph unicode="&#xb4;" horiz-adv-x="363" d="M181 561l-47 35q79 68 135 179l74 -38q-60 -107 -162 -176z" />
<glyph unicode="&#xb5;" horiz-adv-x="605" d="M74 -162l1 657h88v-283q0 -38 10 -64q14 -37 49.5 -59t79.5 -22q43 0 77.5 22t51.5 60q10 23 10 63v283h89v-279q0 -61 -15 -96q-26 -63 -83.5 -97t-129.5 -34q-101 0 -147 68l7 -219h-88z" />
<glyph unicode="&#xb6;" horiz-adv-x="599" d="M247 -244v471q-91 0 -153.5 64.5t-62.5 156.5q0 72 41 129t105 77q33 11 85 11h284v-65h-74v-844h-62v844h-100v-844h-63z" />
<glyph unicode="&#xb7;" horiz-adv-x="189" d="M94 268q-22 0 -38 17t-16 41q0 23 16 40t38 17t38.5 -17t16.5 -40q0 -24 -16 -41t-39 -17z" />
<glyph unicode="&#xb8;" horiz-adv-x="346" d="M78 -210v54q30 -22 72 -22q53 0 53 40q0 38 -59 38q-20 0 -46 -6l26 115h48l-16 -66q9 3 27 3q38 0 62.5 -21t24.5 -57q0 -45 -29 -70.5t-86 -25.5q-47 0 -77 18z" />
<glyph unicode="&#xb9;" horiz-adv-x="348" d="M66 390v55h79v227q-5 -9 -24.5 -21.5t-36.5 -20.5l-17 -9v62q64 37 101 83h42v-321h76v-55h-220z" />
<glyph unicode="&#xba;" horiz-adv-x="556" d="M262 330q-77 0 -124.5 47t-47.5 123q0 73 48 122t125 49q78 0 124 -47t46 -122q0 -73 -48 -122.5t-123 -49.5zM262 386q51 0 80 34t29 81t-28 81t-81 34t-81 -34t-28 -82t28.5 -81t80.5 -33z" />
<glyph unicode="&#xbb;" horiz-adv-x="461" d="M41 69l134 172l-137 189h73l164 -189l-160 -172h-74zM206 69l135 172l-137 189h73l163 -189l-159 -172h-75z" />
<glyph unicode="&#xbc;" horiz-adv-x="864" d="M152 -30l485 657h76l-485 -657h-76zM680 1v74h-199l-2 39l187 262h74q-15 -23 -58.5 -82.5t-82 -112.5t-39.5 -55h121v89l63 87v-176h43v-51h-43v-74h-64zM66 220v55h79v227q-5 -9 -24.5 -21.5t-36.5 -20.5l-17 -9v62q64 37 101 83h42v-321h76v-55h-220z" />
<glyph unicode="&#xbd;" horiz-adv-x="865" d="M152 -30l485 657h76l-485 -657h-76zM66 220v55h79v227q-5 -9 -24.5 -21.5t-36.5 -20.5l-17 -9v62q64 37 101 83h42v-321h76v-55h-220zM665 323q-48 0 -108 -39v60q55 35 118 35q56 0 96 -28t40 -84q0 -53 -41 -96q-23 -23 -33 -31l-101 -86q149 1 178 1v-55h-283v31 q138 123 151 136l29 29q32 32 32 66q0 32 -24 46.5t-54 14.5z" />
<glyph unicode="&#xbe;" horiz-adv-x="862" d="M179 -30l485 657h76l-485 -657h-76zM680 1v74h-199l-2 39l187 262h74q-15 -23 -58.5 -82.5t-82 -112.5t-39.5 -55h121v89l63 87v-176h43v-51h-43v-74h-64zM185 214q-68 0 -127 28v55q67 -29 114 -29q31 0 53.5 16t22.5 50q0 61 -96 61v39q44 0 67 15.5t23 40.5 q0 30 -22.5 42.5t-50.5 12.5q-50 0 -103 -30v57q54 27 113 27q52 0 92 -23t40 -73q0 -32 -21.5 -54.5t-51.5 -28.5l3 -1q35 -7 57 -31.5t22 -59.5q0 -41 -25.5 -68.5t-53.5 -36.5t-56 -9z" />
<glyph unicode="&#xbf;" horiz-adv-x="342" d="M235 463q22 0 38 -17t16 -41q0 -23 -16 -40t-38 -17t-38.5 17t-16.5 40q0 24 16 41t39 17zM209 271h61q17 -64 17 -90q0 -14 -2 -25t-10.5 -25t-11.5 -19t-18 -24.5t-18 -22.5q-2 -2 -21 -25t-29 -37t-21 -35.5t-11 -37.5q0 -68 78 -68q22 0 49 8t44 16l16 8v-88 q-64 -28 -122 -28q-73 0 -119 35t-46 103q0 63 98 161q4 4 18.5 18t17.5 17.5t12.5 14.5t11.5 16t7 14.5t6 18.5t1 20q0 31 -8 75z" />
<glyph unicode="&#xc0;" horiz-adv-x="648" d="M642 0h-102l-75 183h-284l-75 -183h-100l271 665h95zM435 271q-66 162 -113 288q-6 -23 -112 -288h225zM390 707q-117 38 -200 121l60 54q84 -91 176 -130z" />
<glyph unicode="&#xc1;" horiz-adv-x="648" d="M642 0h-102l-75 183h-284l-75 -183h-100l271 665h95zM435 271q-66 162 -113 288q-6 -23 -112 -288h225zM270 713l-35 45q90 38 176 130l60 -55q-87 -85 -201 -120z" />
<glyph unicode="&#xc2;" horiz-adv-x="648" d="M642 0h-102l-75 183h-284l-75 -183h-100l271 665h95zM435 271q-66 162 -113 288q-6 -23 -112 -288h225zM199 707l-45 32q93 63 144 150h49q50 -85 144 -150l-44 -32q-71 28 -124 100q-56 -74 -124 -100z" />
<glyph unicode="&#xc3;" horiz-adv-x="648" d="M642 0h-102l-75 183h-284l-75 -183h-100l271 665h95zM435 271q-66 162 -113 288q-6 -23 -112 -288h225zM210 692l-54 11q27 124 102 124q28 0 74 -26q41 -24 59 -24q14 0 23 14t20 47l53 -10q-15 -64 -36.5 -94.5t-55.5 -30.5q-26 0 -75 26q-46 25 -61 25q-30 0 -49 -62z " />
<glyph unicode="&#xc4;" horiz-adv-x="648" d="M642 0h-102l-75 183h-284l-75 -183h-100l271 665h95zM435 271q-66 162 -113 288q-6 -23 -112 -288h225zM241 705q-22 0 -36.5 15t-14.5 37t14.5 37.5t36.5 15.5q21 0 35.5 -16t14.5 -37q0 -22 -14.5 -37t-35.5 -15zM405 705q-21 0 -35.5 15t-14.5 37t14.5 37.5t35.5 15.5 t36 -16t15 -37q0 -22 -15 -37t-36 -15z" />
<glyph unicode="&#xc5;" horiz-adv-x="648" d="M642 0h-102l-75 183h-284l-75 -183h-100l271 665h95zM435 271q-66 162 -113 288q-6 -23 -112 -288h225zM322 706q-42 0 -71 28t-29 70t29 70.5t71 28.5t70.5 -28.5t28.5 -70.5t-28.5 -70t-70.5 -28zM322 746q24 0 41.5 17t17.5 41q0 25 -17.5 42.5t-41.5 17.5 q-25 0 -41.5 -17.5t-16.5 -42.5t16.5 -41.5t41.5 -16.5z" />
<glyph unicode="&#xc6;" horiz-adv-x="990" d="M944 0h-424v163h-297l-108 -163h-110l438 665h495v-87h-328v-197h295v-84h-295v-208h334v-89zM520 246v329h-32l-218 -329h250z" />
<glyph unicode="&#xc7;" horiz-adv-x="655" d="M318 -210v54q30 -22 72 -22q53 0 53 40q0 38 -59 38q-20 0 -46 -6l21 95q-153 6 -236 103t-83 241q0 157 100.5 250.5t246.5 93.5q124 0 226 -45v-95q-99 51 -220 51q-111 0 -185 -67t-74 -190q0 -116 70.5 -185t188.5 -69q68 0 130.5 19t99.5 39v-93q-90 -47 -216 -53 l-11 -46q9 3 27 3q38 0 62.5 -21t24.5 -57q0 -45 -29 -70.5t-86 -25.5q-47 0 -77 18z" />
<glyph unicode="&#xc8;" horiz-adv-x="537" d="M491 89v-89h-411v665h391v-87h-300v-195h279v-88h-279v-206h320zM361 707q-117 38 -200 121l60 54q84 -91 176 -130z" />
<glyph unicode="&#xc9;" horiz-adv-x="537" d="M491 89v-89h-411v665h391v-87h-300v-195h279v-88h-279v-206h320zM215 713l-35 45q90 38 176 130l60 -55q-87 -85 -201 -120z" />
<glyph unicode="&#xca;" horiz-adv-x="537" d="M491 89v-89h-411v665h391v-87h-300v-195h279v-88h-279v-206h320zM161 707l-45 32q93 63 144 150h49q50 -85 144 -150l-44 -32q-71 28 -124 100q-56 -74 -124 -100z" />
<glyph unicode="&#xcb;" horiz-adv-x="537" d="M491 89v-89h-411v665h391v-87h-300v-195h279v-88h-279v-206h320zM202 705q-22 0 -36.5 15t-14.5 37t14.5 37.5t36.5 15.5q21 0 35.5 -16t14.5 -37q0 -22 -14.5 -37t-35.5 -15zM366 705q-21 0 -35.5 15t-14.5 37t14.5 37.5t35.5 15.5t36 -16t15 -37q0 -22 -15 -37t-36 -15 z" />
<glyph unicode="&#xcc;" horiz-adv-x="252" d="M172 0h-93v665h93v-665zM188 707q-117 38 -200 121l60 54q84 -91 176 -130z" />
<glyph unicode="&#xcd;" horiz-adv-x="252" d="M172 0h-93v665h93v-665zM82 713l-35 45q90 38 176 130l60 -55q-87 -85 -201 -120z" />
<glyph unicode="&#xce;" horiz-adv-x="252" d="M172 0h-93v665h93v-665zM3 707l-45 32q93 63 144 150h49q50 -85 144 -150l-44 -32q-71 28 -124 100q-56 -74 -124 -100z" />
<glyph unicode="&#xcf;" horiz-adv-x="252" d="M172 0h-93v665h93v-665zM46 705q-22 0 -36.5 15t-14.5 37t14.5 37.5t36.5 15.5q21 0 35.5 -16t14.5 -37q0 -22 -14.5 -37t-35.5 -15zM210 705q-21 0 -35.5 15t-14.5 37t14.5 37.5t35.5 15.5t36 -16t15 -37q0 -22 -15 -37t-36 -15z" />
<glyph unicode="&#xd0;" horiz-adv-x="715" d="M80 0v295h-80v87h80v283q149 3 232 3q79 0 143 -17.5t114.5 -55t78.5 -103t28 -154.5q0 -102 -56.5 -190.5t-147.5 -122.5q-64 -25 -172 -25h-220zM172 89h138q85 0 129 22q63 27 102.5 88.5t39.5 138.5q0 122 -70 182t-191 60q-21 0 -73.5 -1.5t-74.5 -1.5v-195h162v-87 h-162v-206z" />
<glyph unicode="&#xd1;" horiz-adv-x="712" d="M645 0h-70q-167 197 -271.5 322t-125.5 152l-20 26v-500h-92v665h77q164 -194 267 -317.5t124 -149.5l20 -27v494h91v-665zM252 692l-54 11q27 124 102 124q28 0 74 -26q41 -24 59 -24q14 0 23 14t20 47l53 -10q-15 -64 -36.5 -94.5t-55.5 -30.5q-26 0 -75 26 q-46 25 -61 25q-30 0 -49 -62z" />
<glyph unicode="&#xd2;" horiz-adv-x="757" d="M374 -12q-155 0 -245 100t-90 245q0 154 99 249t245 95q145 0 240.5 -92.5t95.5 -247.5q0 -146 -94 -247.5t-251 -101.5zM379 77q107 0 175.5 70t68.5 186q0 119 -69 187t-174 68q-109 0 -177.5 -69t-68.5 -186q0 -115 68 -185.5t177 -70.5zM461 707q-117 38 -200 121 l60 54q84 -91 176 -130z" />
<glyph unicode="&#xd3;" horiz-adv-x="757" d="M374 -12q-155 0 -245 100t-90 245q0 154 99 249t245 95q145 0 240.5 -92.5t95.5 -247.5q0 -146 -94 -247.5t-251 -101.5zM379 77q107 0 175.5 70t68.5 186q0 119 -69 187t-174 68q-109 0 -177.5 -69t-68.5 -186q0 -115 68 -185.5t177 -70.5zM313 713l-35 45 q90 38 176 130l60 -55q-87 -85 -201 -120z" />
<glyph unicode="&#xd4;" horiz-adv-x="757" d="M374 -12q-155 0 -245 100t-90 245q0 154 99 249t245 95q145 0 240.5 -92.5t95.5 -247.5q0 -146 -94 -247.5t-251 -101.5zM379 77q107 0 175.5 70t68.5 186q0 119 -69 187t-174 68q-109 0 -177.5 -69t-68.5 -186q0 -115 68 -185.5t177 -70.5zM263 707l-45 32 q93 63 144 150h49q50 -85 144 -150l-44 -32q-71 28 -124 100q-56 -74 -124 -100z" />
<glyph unicode="&#xd5;" horiz-adv-x="757" d="M374 -12q-155 0 -245 100t-90 245q0 154 99 249t245 95q145 0 240.5 -92.5t95.5 -247.5q0 -146 -94 -247.5t-251 -101.5zM379 77q107 0 175.5 70t68.5 186q0 119 -69 187t-174 68q-109 0 -177.5 -69t-68.5 -186q0 -115 68 -185.5t177 -70.5zM274 692l-54 11 q27 124 102 124q28 0 74 -26q41 -24 59 -24q14 0 23 14t20 47l53 -10q-15 -64 -36.5 -94.5t-55.5 -30.5q-26 0 -75 26q-46 25 -61 25q-30 0 -49 -62z" />
<glyph unicode="&#xd6;" horiz-adv-x="757" d="M374 -12q-155 0 -245 100t-90 245q0 154 99 249t245 95q145 0 240.5 -92.5t95.5 -247.5q0 -146 -94 -247.5t-251 -101.5zM379 77q107 0 175.5 70t68.5 186q0 119 -69 187t-174 68q-109 0 -177.5 -69t-68.5 -186q0 -115 68 -185.5t177 -70.5zM301 705q-22 0 -36.5 15 t-14.5 37t14.5 37.5t36.5 15.5q21 0 35.5 -16t14.5 -37q0 -22 -14.5 -37t-35.5 -15zM465 705q-21 0 -35.5 15t-14.5 37t14.5 37.5t35.5 15.5t36 -16t15 -37q0 -22 -15 -37t-36 -15z" />
<glyph unicode="&#xd7;" horiz-adv-x="462" d="M104 67l-51 54l128 127l-127 125l52 55l126 -125l125 123l51 -55l-124 -123l125 -124l-51 -55l-126 124z" />
<glyph unicode="&#xd8;" horiz-adv-x="755" d="M50 -32l-41 43l101 100q-70 93 -70 222q0 154 98.5 249t243.5 95q127 0 216 -74l84 84l43 -42l-85 -84q74 -90 74 -224q0 -146 -93 -247.5t-249 -101.5q-135 0 -222 79zM213 135q65 -60 165 -60q106 0 173 71t67 187q0 89 -48 150zM179 187l356 348q-64 55 -157 55 q-107 0 -174.5 -70t-67.5 -187q0 -84 43 -146z" />
<glyph unicode="&#xd9;" horiz-adv-x="710" d="M652 665v-371q0 -68 -9 -104q-24 -95 -96.5 -148.5t-182.5 -53.5q-117 0 -190.5 56t-88.5 151q-6 42 -6 94v376h93v-372q0 -48 4 -77q10 -66 60.5 -102.5t129.5 -36.5q74 0 123 34t63 95q7 27 7 87v372h93zM449 707q-117 38 -200 121l60 54q84 -91 176 -130z" />
<glyph unicode="&#xda;" horiz-adv-x="710" d="M652 665v-371q0 -68 -9 -104q-24 -95 -96.5 -148.5t-182.5 -53.5q-117 0 -190.5 56t-88.5 151q-6 42 -6 94v376h93v-372q0 -48 4 -77q10 -66 60.5 -102.5t129.5 -36.5q74 0 123 34t63 95q7 27 7 87v372h93zM294 713l-35 45q90 38 176 130l60 -55q-87 -85 -201 -120z" />
<glyph unicode="&#xdb;" horiz-adv-x="710" d="M652 665v-371q0 -68 -9 -104q-24 -95 -96.5 -148.5t-182.5 -53.5q-117 0 -190.5 56t-88.5 151q-6 42 -6 94v376h93v-372q0 -48 4 -77q10 -66 60.5 -102.5t129.5 -36.5q74 0 123 34t63 95q7 27 7 87v372h93zM246 707l-45 32q93 63 144 150h49q50 -85 144 -150l-44 -32 q-71 28 -124 100q-56 -74 -124 -100z" />
<glyph unicode="&#xdc;" horiz-adv-x="710" d="M652 665v-371q0 -68 -9 -104q-24 -95 -96.5 -148.5t-182.5 -53.5q-117 0 -190.5 56t-88.5 151q-6 42 -6 94v376h93v-372q0 -48 4 -77q10 -66 60.5 -102.5t129.5 -36.5q74 0 123 34t63 95q7 27 7 87v372h93zM287 705q-22 0 -36.5 15t-14.5 37t14.5 37.5t36.5 15.5 q21 0 35.5 -16t14.5 -37q0 -22 -14.5 -37t-35.5 -15zM451 705q-21 0 -35.5 15t-14.5 37t14.5 37.5t35.5 15.5t36 -16t15 -37q0 -22 -15 -37t-36 -15z" />
<glyph unicode="&#xdd;" horiz-adv-x="639" d="M354 0h-92v257l-262 408h107q201 -314 203 -317q17 26 36 56t64.5 100.5t102.5 160.5h105l-264 -408v-257zM254 713l-35 45q90 38 176 130l60 -55q-87 -85 -201 -120z" />
<glyph unicode="&#xde;" horiz-adv-x="565" d="M79 0v665h93v-126q26 0 74 1t55 1q109 0 176 -45.5t67 -149.5q0 -54 -25.5 -98t-70.5 -69q-57 -33 -136 -33h-140v-146h-93zM172 230h128q64 0 101 25q47 33 47 88q0 115 -155 115l-121 -3v-225z" />
<glyph unicode="&#xdf;" horiz-adv-x="625" d="M99 0v416h-77v79h77v27q2 75 17 110q20 51 71.5 82.5t122.5 31.5q98 0 152 -54t53 -151q0 -58 -6 -103q-37 8 -70 8q-45 0 -74 -14.5t-29 -43.5q0 -49 68 -79l48 -22q74 -34 104 -68.5t30 -87.5q0 -68 -51 -106t-120 -38q-86 0 -163 40v91q75 -49 149 -49q48 0 71.5 14.5 t23.5 50.5q0 11 -2.5 20t-9.5 17t-11.5 13.5t-16.5 12.5t-17 9.5t-19.5 9.5t-18.5 9l-51 25q-50 25 -72.5 56.5t-22.5 78.5q0 46 35.5 79.5t99.5 38.5q6 1 22.5 1t23.5 -1q3 23 1 49q-2 51 -32 81.5t-89 30.5q-45 0 -76.5 -18t-41.5 -46q-12 -32 -12 -89v-511h-87z" />
<glyph unicode="&#xe0;" horiz-adv-x="531" d="M522 6q-37 -16 -78 -16q-29 0 -51 17.5t-25 59.5q-59 -77 -170 -77q-76 0 -118.5 42t-42.5 101q0 92 83 130q84 39 241 39v17q0 42 -8 66q-15 40 -93 40q-91 0 -181 -51v85q91 48 192 48q142 0 168 -94q10 -37 10 -112v-191q0 -22 4 -30q5 -12 25 -12q22 0 44 9v-71z M215 71q80 0 132 63q14 17 14 58v37q-142 0 -192 -24q-48 -23 -48 -67q0 -67 94 -67zM354 596l-47 -35q-102 69 -162 176l74 38q57 -114 135 -179z" />
<glyph unicode="&#xe1;" horiz-adv-x="531" d="M522 6q-37 -16 -78 -16q-29 0 -51 17.5t-25 59.5q-59 -77 -170 -77q-76 0 -118.5 42t-42.5 101q0 92 83 130q84 39 241 39v17q0 42 -8 66q-15 40 -93 40q-91 0 -181 -51v85q91 48 192 48q142 0 168 -94q10 -37 10 -112v-191q0 -22 4 -30q5 -12 25 -12q22 0 44 9v-71z M215 71q80 0 132 63q14 17 14 58v37q-142 0 -192 -24q-48 -23 -48 -67q0 -67 94 -67zM238 561l-47 35q79 68 135 179l74 -38q-60 -107 -162 -176z" />
<glyph unicode="&#xe2;" horiz-adv-x="531" d="M522 6q-37 -16 -78 -16q-29 0 -51 17.5t-25 59.5q-59 -77 -170 -77q-76 0 -118.5 42t-42.5 101q0 92 83 130q84 39 241 39v17q0 42 -8 66q-15 40 -93 40q-91 0 -181 -51v85q91 48 192 48q142 0 168 -94q10 -37 10 -112v-191q0 -22 4 -30q5 -12 25 -12q22 0 44 9v-71z M215 71q80 0 132 63q14 17 14 58v37q-142 0 -192 -24q-48 -23 -48 -67q0 -67 94 -67zM148 563l-48 29q84 78 139 174h56q47 -94 137 -174l-49 -29q-62 43 -119 118q-69 -86 -116 -118z" />
<glyph unicode="&#xe3;" horiz-adv-x="531" d="M522 6q-37 -16 -78 -16q-29 0 -51 17.5t-25 59.5q-59 -77 -170 -77q-76 0 -118.5 42t-42.5 101q0 92 83 130q84 39 241 39v17q0 42 -8 66q-15 40 -93 40q-91 0 -181 -51v85q91 48 192 48q142 0 168 -94q10 -37 10 -112v-191q0 -22 4 -30q5 -12 25 -12q22 0 44 9v-71z M215 71q80 0 132 63q14 17 14 58v37q-142 0 -192 -24q-48 -23 -48 -67q0 -67 94 -67zM149 584l-54 10q27 125 102 125q29 0 74 -27q41 -24 59 -24q14 0 23 14t20 47l53 -10q-15 -64 -36.5 -94.5t-55.5 -30.5q-28 0 -75 27q-46 25 -61 25q-30 0 -49 -62z" />
<glyph unicode="&#xe4;" horiz-adv-x="531" d="M522 6q-37 -16 -78 -16q-29 0 -51 17.5t-25 59.5q-59 -77 -170 -77q-76 0 -118.5 42t-42.5 101q0 92 83 130q84 39 241 39v17q0 42 -8 66q-15 40 -93 40q-91 0 -181 -51v85q91 48 192 48q142 0 168 -94q10 -37 10 -112v-191q0 -22 4 -30q5 -12 25 -12q22 0 44 9v-71z M215 71q80 0 132 63q14 17 14 58v37q-142 0 -192 -24q-48 -23 -48 -67q0 -67 94 -67zM184 581q-21 0 -36 15t-15 37t14.5 37.5t36.5 15.5q21 0 35.5 -16t14.5 -37q0 -22 -14.5 -37t-35.5 -15zM362 581q-22 0 -36.5 15t-14.5 37t14.5 37.5t36.5 15.5q21 0 35.5 -16t14.5 -37 q0 -22 -14.5 -37t-35.5 -15z" />
<glyph unicode="&#xe5;" horiz-adv-x="531" d="M522 6q-37 -16 -78 -16q-29 0 -51 17.5t-25 59.5q-59 -77 -170 -77q-76 0 -118.5 42t-42.5 101q0 92 83 130q84 39 241 39v17q0 42 -8 66q-15 40 -93 40q-91 0 -181 -51v85q91 48 192 48q142 0 168 -94q10 -37 10 -112v-191q0 -22 4 -30q5 -12 25 -12q22 0 44 9v-71z M215 71q80 0 132 63q14 17 14 58v37q-142 0 -192 -24q-48 -23 -48 -67q0 -67 94 -67zM270 559q-42 0 -71 28.5t-29 70.5t29 70.5t71 28.5t70.5 -28.5t28.5 -70.5t-28.5 -70.5t-70.5 -28.5zM270 600q24 0 41.5 17t17.5 41q0 25 -17.5 42t-41.5 17q-25 0 -41.5 -17t-16.5 -42 t16.5 -41.5t41.5 -16.5z" />
<glyph unicode="&#xe6;" horiz-adv-x="880" d="M204 -12q-80 0 -123.5 42.5t-43.5 102.5q0 88 83 131q70 36 241 36v26q0 31 -8 55q-17 44 -93 44q-91 0 -181 -51v85q93 49 192 49q126 0 154 -88q67 88 187 88q113 0 173 -68q58 -66 58 -179v-31h-396q1 -78 45.5 -118.5t126.5 -40.5q48 0 89 11t59 21.5t51 31.5v-87 q-94 -59 -208 -59q-143 0 -208 105q-25 -43 -77 -74.5t-121 -31.5zM223 71q103 0 151 80q-12 32 -13 79q-144 0 -192 -23t-48 -69q0 -67 102 -67zM449 298h307q-2 58 -40 94t-106 36q-67 0 -110.5 -35.5t-50.5 -94.5z" />
<glyph unicode="&#xe7;" horiz-adv-x="488" d="M216 -210v54q30 -22 72 -22q53 0 53 40q0 38 -59 38q-20 0 -46 -6l21 96q-106 8 -162.5 77t-56.5 181q0 119 71.5 190t187.5 71q80 0 142 -28v-88q-70 34 -136 34q-88 0 -131.5 -51.5t-43.5 -125.5q0 -84 43 -131.5t126 -47.5q81 0 152 48v-86q-64 -39 -144 -43l-11 -47 q9 3 27 3q38 0 62.5 -21t24.5 -57q0 -45 -29 -70.5t-86 -25.5q-47 0 -77 18z" />
<glyph unicode="&#xe8;" horiz-adv-x="558" d="M501 48q-94 -59 -208 -59q-121 0 -188 72t-67 189q0 110 69 184t187 74q109 0 169.5 -63t60.5 -174q0 -37 -1 -47h-396q1 -65 48 -109t126 -44q48 0 89 11t59 21t52 32v-87zM132 299h307q0 57 -39.5 94.5t-106.5 37.5q-68 0 -111.5 -36t-49.5 -96zM365 596l-47 -35 q-102 69 -162 176l74 38q57 -114 135 -179z" />
<glyph unicode="&#xe9;" horiz-adv-x="558" d="M501 48q-94 -59 -208 -59q-121 0 -188 72t-67 189q0 110 69 184t187 74q109 0 169.5 -63t60.5 -174q0 -37 -1 -47h-396q1 -65 48 -109t126 -44q48 0 89 11t59 21t52 32v-87zM132 299h307q0 57 -39.5 94.5t-106.5 37.5q-68 0 -111.5 -36t-49.5 -96zM246 561l-47 35 q79 68 135 179l74 -38q-60 -107 -162 -176z" />
<glyph unicode="&#xea;" horiz-adv-x="558" d="M501 48q-94 -59 -208 -59q-121 0 -188 72t-67 189q0 110 69 184t187 74q109 0 169.5 -63t60.5 -174q0 -37 -1 -47h-396q1 -65 48 -109t126 -44q48 0 89 11t59 21t52 32v-87zM132 299h307q0 57 -39.5 94.5t-106.5 37.5q-68 0 -111.5 -36t-49.5 -96zM181 563l-48 29 q84 78 139 174h56q47 -94 137 -174l-49 -29q-62 43 -119 118q-69 -86 -116 -118z" />
<glyph unicode="&#xeb;" horiz-adv-x="558" d="M501 48q-94 -59 -208 -59q-121 0 -188 72t-67 189q0 110 69 184t187 74q109 0 169.5 -63t60.5 -174q0 -37 -1 -47h-396q1 -65 48 -109t126 -44q48 0 89 11t59 21t52 32v-87zM132 299h307q0 57 -39.5 94.5t-106.5 37.5q-68 0 -111.5 -36t-49.5 -96zM206 581q-21 0 -36 15 t-15 37t14.5 37.5t36.5 15.5q21 0 35.5 -16t14.5 -37q0 -22 -14.5 -37t-35.5 -15zM384 581q-22 0 -36.5 15t-14.5 37t14.5 37.5t36.5 15.5q21 0 35.5 -16t14.5 -37q0 -22 -14.5 -37t-35.5 -15z" />
<glyph unicode="&#xec;" horiz-adv-x="235" d="M176 596l-47 -35q-102 69 -162 176l74 38q57 -114 135 -179zM76 0v495h88v-495h-88z" />
<glyph unicode="&#xed;" horiz-adv-x="235" d="M106 561l-47 35q79 68 135 179l74 -38q-60 -107 -162 -176zM76 0v495h88v-495h-88z" />
<glyph unicode="&#xee;" horiz-adv-x="235" d="M76 0v495h88v-495h-88zM4 563l-48 29q84 78 139 174h56q47 -94 137 -174l-49 -29q-62 43 -119 118q-69 -86 -116 -118z" />
<glyph unicode="&#xef;" horiz-adv-x="235" d="M30 581q-21 0 -36 15t-15 37t14.5 37.5t36.5 15.5q21 0 35.5 -16t14.5 -37q0 -22 -14.5 -37t-35.5 -15zM208 581q-22 0 -36.5 15t-14.5 37t14.5 37.5t36.5 15.5q21 0 35.5 -16t14.5 -37q0 -22 -14.5 -37t-35.5 -15zM76 0v495h88v-495h-88z" />
<glyph unicode="&#xf0;" horiz-adv-x="580" d="M560 289q0 -55 -15 -106t-45 -95.5t-82.5 -71.5t-120.5 -27q-117 0 -188 71t-71 187q0 113 72 187.5t189 74.5q110 0 167 -78q-10 83 -52 143q-10 16 -35 44l-68 -67l-38 39l68 67q-36 27 -81 45l25 56q52 -20 100 -55l72 71l37 -39l-67 -66q29 -26 49 -55 q66 -93 79 -220q5 -51 5 -105zM469 257q0 71 -43 119.5t-127 48.5q-85 0 -128.5 -51.5t-43.5 -126.5q0 -76 45 -126t127 -50t126 52t44 134z" />
<glyph unicode="&#xf1;" horiz-adv-x="596" d="M165 0h-89v495h87v-89q22 43 73.5 71.5t112.5 28.5q114 0 156 -80q21 -38 21 -120v-306h-88v282q0 66 -18 96q-27 47 -99 47q-37 0 -75 -18.5t-59 -52.5q-22 -32 -22 -81v-273zM185 584l-54 10q27 125 102 125q29 0 74 -27q41 -24 59 -24q14 0 23 14t20 47l53 -10 q-15 -64 -36.5 -94.5t-55.5 -30.5q-28 0 -75 27q-46 25 -61 25q-30 0 -49 -62z" />
<glyph unicode="&#xf2;" horiz-adv-x="596" d="M559 250q0 -114 -73 -187.5t-189 -73.5q-117 0 -188 71t-71 187q0 113 72 187.5t189 74.5q119 0 189.5 -72.5t70.5 -186.5zM469 249q0 75 -43 126.5t-127 51.5t-128 -52.5t-44 -127.5q0 -76 45 -126t127 -50q80 0 125 52.5t45 125.5zM359 596l-47 -35q-102 69 -162 176 l74 38q57 -114 135 -179z" />
<glyph unicode="&#xf3;" horiz-adv-x="596" d="M559 250q0 -114 -73 -187.5t-189 -73.5q-117 0 -188 71t-71 187q0 113 72 187.5t189 74.5q119 0 189.5 -72.5t70.5 -186.5zM469 249q0 75 -43 126.5t-127 51.5t-128 -52.5t-44 -127.5q0 -76 45 -126t127 -50q80 0 125 52.5t45 125.5zM282 561l-47 35q79 68 135 179 l74 -38q-60 -107 -162 -176z" />
<glyph unicode="&#xf4;" horiz-adv-x="596" d="M559 250q0 -114 -73 -187.5t-189 -73.5q-117 0 -188 71t-71 187q0 113 72 187.5t189 74.5q119 0 189.5 -72.5t70.5 -186.5zM469 249q0 75 -43 126.5t-127 51.5t-128 -52.5t-44 -127.5q0 -76 45 -126t127 -50q80 0 125 52.5t45 125.5zM183 563l-48 29q84 78 139 174h56 q47 -94 137 -174l-49 -29q-62 43 -119 118q-69 -86 -116 -118z" />
<glyph unicode="&#xf5;" horiz-adv-x="596" d="M559 250q0 -114 -73 -187.5t-189 -73.5q-117 0 -188 71t-71 187q0 113 72 187.5t189 74.5q119 0 189.5 -72.5t70.5 -186.5zM469 249q0 75 -43 126.5t-127 51.5t-128 -52.5t-44 -127.5q0 -76 45 -126t127 -50q80 0 125 52.5t45 125.5zM185 584l-54 10q27 125 102 125 q29 0 74 -27q41 -24 59 -24q14 0 23 14t20 47l53 -10q-15 -64 -36.5 -94.5t-55.5 -30.5q-28 0 -75 27q-46 25 -61 25q-30 0 -49 -62z" />
<glyph unicode="&#xf6;" horiz-adv-x="596" d="M559 250q0 -114 -73 -187.5t-189 -73.5q-117 0 -188 71t-71 187q0 113 72 187.5t189 74.5q119 0 189.5 -72.5t70.5 -186.5zM469 249q0 75 -43 126.5t-127 51.5t-128 -52.5t-44 -127.5q0 -76 45 -126t127 -50q80 0 125 52.5t45 125.5zM212 581q-21 0 -36 15t-15 37 t14.5 37.5t36.5 15.5q21 0 35.5 -16t14.5 -37q0 -22 -14.5 -37t-35.5 -15zM390 581q-22 0 -36.5 15t-14.5 37t14.5 37.5t36.5 15.5q21 0 35.5 -16t14.5 -37q0 -22 -14.5 -37t-35.5 -15z" />
<glyph unicode="&#xf7;" horiz-adv-x="428" d="M213 43q-22 0 -37.5 16t-15.5 39t15.5 39.5t37.5 16.5t37.5 -16.5t15.5 -39.5t-15.5 -39t-37.5 -16zM42 228v76h343v-76h-343zM213 389q-22 0 -37.5 16.5t-15.5 39.5t15.5 39.5t37.5 16.5t38 -16.5t16 -39.5t-16 -39.5t-38 -16.5z" />
<glyph unicode="&#xf8;" horiz-adv-x="596" d="M54 -29l-37 39l74 72q-53 65 -53 165q0 111 72 185.5t189 74.5q98 0 165 -51l64 62l38 -37l-63 -62q56 -68 56 -169q0 -111 -73 -186t-187 -75q-100 0 -170 56zM186 107q43 -36 113 -36q79 0 124.5 53t45.5 125q0 57 -33 99zM155 147l246 241q-43 35 -102 35 q-83 0 -127 -51.5t-44 -124.5q0 -62 27 -100z" />
<glyph unicode="&#xf9;" horiz-adv-x="594" d="M525 495v-276q0 -84 -27 -134q-53 -96 -202 -96q-156 0 -203 94q-23 46 -23 136v276h88v-274q0 -67 20 -100q32 -51 119 -51q84 0 119 53q20 31 20 98v274h89zM402 596l-47 -35q-102 69 -162 176l74 38q57 -114 135 -179z" />
<glyph unicode="&#xfa;" horiz-adv-x="594" d="M525 495v-276q0 -84 -27 -134q-53 -96 -202 -96q-156 0 -203 94q-23 46 -23 136v276h88v-274q0 -67 20 -100q32 -51 119 -51q84 0 119 53q20 31 20 98v274h89zM258 561l-47 35q79 68 135 179l74 -38q-60 -107 -162 -176z" />
<glyph unicode="&#xfb;" horiz-adv-x="594" d="M525 495v-276q0 -84 -27 -134q-53 -96 -202 -96q-156 0 -203 94q-23 46 -23 136v276h88v-274q0 -67 20 -100q32 -51 119 -51q84 0 119 53q20 31 20 98v274h89zM183 563l-48 29q84 78 139 174h56q47 -94 137 -174l-49 -29q-62 43 -119 118q-69 -86 -116 -118z" />
<glyph unicode="&#xfc;" horiz-adv-x="594" d="M525 495v-276q0 -84 -27 -134q-53 -96 -202 -96q-156 0 -203 94q-23 46 -23 136v276h88v-274q0 -67 20 -100q32 -51 119 -51q84 0 119 53q20 31 20 98v274h89zM214 581q-21 0 -36 15t-15 37t14.5 37.5t36.5 15.5q21 0 35.5 -16t14.5 -37q0 -22 -14.5 -37t-35.5 -15z M392 581q-22 0 -36.5 15t-14.5 37t14.5 37.5t36.5 15.5q21 0 35.5 -16t14.5 -37q0 -22 -14.5 -37t-35.5 -15z" />
<glyph unicode="&#xfd;" horiz-adv-x="524" d="M11 -239v82q40 -18 84 -18q50 0 74 35q23 33 42 82l23 58h-17l-212 495h99q131 -301 168 -410q16 49 152 410h95l-229 -576q-30 -74 -55 -109q-45 -62 -130 -62q-56 0 -94 13zM240 561l-47 35q79 68 135 179l74 -38q-60 -107 -162 -176z" />
<glyph unicode="&#xfe;" horiz-adv-x="590" d="M76 -243v908h87v-252q30 44 78.5 68t97.5 24q98 0 152 -66t54 -175q0 -139 -76 -207t-187 -68q-50 0 -117 18v-250h-89zM165 92q52 -21 113 -21q79 0 128 45t49 140q0 78 -37.5 121.5t-105.5 43.5q-36 0 -69.5 -17.5t-53.5 -47.5q-24 -30 -24 -82v-182z" />
<glyph unicode="&#xff;" horiz-adv-x="524" d="M11 -239v82q40 -18 84 -18q50 0 74 35q23 33 42 82l23 58h-17l-212 495h99q131 -301 168 -410q16 49 152 410h95l-229 -576q-30 -74 -55 -109q-45 -62 -130 -62q-56 0 -94 13zM184 581q-21 0 -36 15t-15 37t14.5 37.5t36.5 15.5q21 0 35.5 -16t14.5 -37q0 -22 -14.5 -37 t-35.5 -15zM362 581q-22 0 -36.5 15t-14.5 37t14.5 37.5t36.5 15.5q21 0 35.5 -16t14.5 -37q0 -22 -14.5 -37t-35.5 -15z" />
<glyph unicode="&#x152;" horiz-adv-x="1077" d="M632 0v117q-88 -129 -258 -129q-155 0 -245 100t-90 245q0 154 99 249t245 95q78 0 143.5 -31.5t105.5 -88.5v108h395v-87h-313v-197h289v-84h-289v-207h323v-90h-405zM379 82q108 0 175.5 67t67.5 184q0 120 -68 187.5t-174 67.5q-109 0 -177.5 -69t-68.5 -186 q0 -115 68 -183t177 -68z" />
<glyph unicode="&#x153;" horiz-adv-x="991" d="M296 -11q-117 0 -187.5 71t-70.5 187q0 113 72 187.5t189 74.5q74 0 129.5 -31.5t84.5 -87.5q28 55 82 86.5t124 31.5q118 0 179 -72q56 -67 56 -185v-27h-399q1 -78 46.5 -119t128.5 -41q48 0 89 11t59 21.5t51 31.5v-80q-94 -59 -208 -59q-76 0 -130 32.5t-82 88.5 q-30 -56 -86 -88.5t-127 -32.5zM299 71q80 0 125 52.5t45 127.5q0 73 -43 124t-127 51q-85 0 -128.5 -52t-43.5 -127q0 -76 45 -126t127 -50zM559 299h308q-2 58 -40 94t-106 36q-67 0 -111 -35.5t-51 -94.5z" />
<glyph unicode="&#x178;" horiz-adv-x="639" d="M354 0h-92v257l-262 408h107q201 -314 203 -317q17 26 36 56t64.5 100.5t102.5 160.5h105l-264 -408v-257zM227 705q-22 0 -36.5 15t-14.5 37t14.5 37.5t36.5 15.5q21 0 35.5 -16t14.5 -37q0 -22 -14.5 -37t-35.5 -15zM391 705q-21 0 -35.5 15t-14.5 37t14.5 37.5 t35.5 15.5t36 -16t15 -37q0 -22 -15 -37t-36 -15z" />
<glyph unicode="&#x2c6;" horiz-adv-x="432" d="M98 563l-48 29q84 78 139 174h56q47 -94 137 -174l-49 -29q-62 43 -119 118q-69 -86 -116 -118z" />
<glyph unicode="&#x2dc;" horiz-adv-x="452" d="M115 584l-54 10q27 125 102 125q29 0 74 -27q41 -24 59 -24q14 0 23 14t20 47l53 -10q-15 -64 -36.5 -94.5t-55.5 -30.5q-28 0 -75 27q-46 25 -61 25q-30 0 -49 -62z" />
<glyph unicode="&#x2000;" horiz-adv-x="451" />
<glyph unicode="&#x2001;" horiz-adv-x="903" />
<glyph unicode="&#x2002;" horiz-adv-x="451" />
<glyph unicode="&#x2003;" horiz-adv-x="903" />
<glyph unicode="&#x2004;" horiz-adv-x="301" />
<glyph unicode="&#x2005;" horiz-adv-x="225" />
<glyph unicode="&#x2006;" horiz-adv-x="150" />
<glyph unicode="&#x2007;" horiz-adv-x="150" />
<glyph unicode="&#x2008;" horiz-adv-x="112" />
<glyph unicode="&#x2009;" horiz-adv-x="180" />
<glyph unicode="&#x200a;" horiz-adv-x="50" />
<glyph unicode="&#x2010;" horiz-adv-x="332" d="M44 210v81h245v-81h-245z" />
<glyph unicode="&#x2011;" horiz-adv-x="332" d="M44 210v81h245v-81h-245z" />
<glyph unicode="&#x2012;" horiz-adv-x="332" d="M44 210v81h245v-81h-245z" />
<glyph unicode="&#x2013;" horiz-adv-x="429" d="M40 212v82h350v-82h-350z" />
<glyph unicode="&#x2014;" horiz-adv-x="586" d="M40 212v82h506v-82h-506z" />
<glyph unicode="&#x2018;" horiz-adv-x="195" d="M124 710l63 -20q-31 -47 -53 -115.5t-22 -139.5l-86 5q2 79 31 151.5t67 118.5z" />
<glyph unicode="&#x2019;" horiz-adv-x="195" d="M70 432l-63 20q32 47 54 115.5t22 139.5l86 -5q-3 -79 -32 -151.5t-67 -118.5z" />
<glyph unicode="&#x201a;" horiz-adv-x="196" d="M7 -151q32 47 54 115.5t22 139.5l86 -5q-3 -79 -32 -151.5t-67 -119.5z" />
<glyph unicode="&#x201c;" horiz-adv-x="357" d="M287 710l63 -20q-32 -47 -54 -115.5t-22 -139.5l-86 5q3 79 32 151.5t67 118.5zM124 710l63 -20q-31 -47 -53 -115.5t-22 -139.5l-86 5q2 79 31 151.5t67 118.5z" />
<glyph unicode="&#x201d;" horiz-adv-x="357" d="M70 432l-63 20q32 47 54 115.5t22 139.5l86 -5q-3 -79 -32 -151.5t-67 -118.5zM233 432l-63 20q31 47 53 115.5t22 139.5l86 -5q-2 -79 -31 -151.5t-67 -118.5z" />
<glyph unicode="&#x201e;" horiz-adv-x="357" d="M70 -172l-63 21q32 47 54 115.5t22 139.5l86 -5q-3 -79 -32 -151.5t-67 -119.5zM233 -172l-63 21q31 47 53 115.5t22 139.5l86 -5q-2 -79 -31 -151.5t-67 -119.5z" />
<glyph unicode="&#x2022;" horiz-adv-x="416" d="M99 310q0 46 32 79.5t77 33.5q44 0 76.5 -33.5t32.5 -79.5q0 -47 -32 -79.5t-77 -32.5q-46 0 -77.5 32.5t-31.5 79.5z" />
<glyph unicode="&#x2026;" horiz-adv-x="699" d="M120 -9q-22 0 -38 17t-16 41q0 23 16 40t38 17t38.5 -17t16.5 -40q0 -24 -16 -41t-39 -17zM349 -9q-22 0 -38 17t-16 41q0 23 16 40t38 17t38.5 -17t16.5 -40q0 -24 -16 -41t-39 -17zM578 -9q-22 0 -38 17t-16 41q0 23 16 40t38 17t38.5 -17t16.5 -40q0 -24 -16 -41 t-39 -17z" />
<glyph unicode="&#x202f;" horiz-adv-x="180" />
<glyph unicode="&#x2039;" horiz-adv-x="295" d="M181 69l-159 172l163 189h74l-137 -189l134 -172h-75z" />
<glyph unicode="&#x203a;" horiz-adv-x="295" d="M39 69l134 172l-137 189h73l164 -189l-159 -172h-75z" />
<glyph unicode="&#x205f;" horiz-adv-x="225" />
<glyph unicode="&#x20ac;" horiz-adv-x="843" d="M36 266l48 49h440l-48 -49h-142q16 -87 79.5 -138t159.5 -51q114 0 232 68v-97q-105 -60 -239 -60q-140 0 -225 78t-104 200h-201zM125 357l48 50h65q23 124 117 196.5t220 72.5q121 0 218 -50v-97q-113 58 -219 58q-88 0 -153.5 -47.5t-84.5 -132.5h279l-48 -50h-442z " />
<glyph unicode="&#x2122;" horiz-adv-x="954" d="M200 238v363h-127v64h379l178 -221l178 221h61v-427h-68v311l-13 -17q-13 -17 -53.5 -68.5t-96.5 -121.5h-14q-83 99 -164 207v-311h-68v363h-123v-363h-69z" />
</font>
</defs>
</svg>
